G75*
%MOIN*%
%OFA0B0*%
%FSLAX24Y24*%
%IPPOS*%
%LPD*%
%AMOC8*
5,1,8,0,0,1.08239X$1,22.5*
%
%ADD10C,0.0650*%
%ADD11C,0.0520*%
%ADD12R,0.0800X0.0800*%
%ADD13C,0.0800*%
%ADD14C,0.0740*%
%ADD15OC8,0.0660*%
%ADD16C,0.0600*%
%ADD17C,0.1000*%
%ADD18OC8,0.0520*%
%ADD19C,0.0580*%
%ADD20C,0.0160*%
D10*
X010680Y009180D03*
X011680Y009180D03*
X014680Y004180D03*
X014680Y003180D03*
X013164Y014180D03*
X011196Y014180D03*
D11*
X011680Y008180D03*
X012680Y008180D03*
X013680Y008180D03*
X014680Y008180D03*
X014680Y005180D03*
X013680Y005180D03*
X012680Y005180D03*
X011680Y005180D03*
D12*
X030680Y016113D03*
X030680Y021692D03*
D13*
X030680Y023070D03*
X030680Y024448D03*
X030680Y025826D03*
X030680Y020247D03*
X030680Y018869D03*
X030680Y017491D03*
D14*
X007550Y020180D02*
X006810Y020180D01*
X006810Y012680D02*
X007550Y012680D01*
X007550Y005180D02*
X006810Y005180D01*
D15*
X010180Y017180D03*
X011180Y017180D03*
X011180Y020180D03*
X010180Y020180D03*
X010180Y023180D03*
X011180Y023180D03*
X011180Y026180D03*
X010180Y026180D03*
X010180Y029180D03*
X011180Y029180D03*
D16*
X022880Y009180D02*
X023480Y009180D01*
X023480Y008180D02*
X022880Y008180D01*
X022880Y007180D02*
X023480Y007180D01*
X030380Y007180D02*
X030980Y007180D01*
X030980Y008180D02*
X030380Y008180D01*
X030380Y009180D02*
X030980Y009180D01*
D17*
X029180Y011680D03*
X029180Y004680D03*
X021680Y004680D03*
X021680Y011680D03*
D18*
X017180Y013180D03*
X015680Y013180D03*
X014180Y013180D03*
X012680Y013180D03*
X009680Y014180D03*
X009680Y010180D03*
X009680Y009180D03*
X012680Y009180D03*
X014180Y009180D03*
X015680Y009180D03*
X017180Y009180D03*
X017180Y007180D03*
X017180Y003180D03*
X009680Y005180D03*
X007680Y023680D03*
X007680Y025180D03*
X007680Y026680D03*
X007680Y028180D03*
X007680Y029680D03*
X003680Y029680D03*
X003680Y028180D03*
X003680Y026680D03*
X003680Y025180D03*
X003680Y023680D03*
D19*
X013680Y023180D03*
X013680Y022180D03*
X013680Y021180D03*
X013680Y020180D03*
X013680Y019180D03*
X013680Y018180D03*
X013680Y017180D03*
X013680Y016180D03*
X014680Y016180D03*
X015680Y016180D03*
X016680Y016180D03*
X017680Y016180D03*
X018680Y016180D03*
X019680Y016180D03*
X019680Y017180D03*
X019680Y018180D03*
X019680Y019180D03*
X019680Y020180D03*
X019680Y021180D03*
X019680Y022180D03*
X019680Y023180D03*
X019680Y024180D03*
X019680Y025180D03*
X019680Y026180D03*
X019680Y027180D03*
X019680Y028180D03*
X019680Y029180D03*
X013680Y029180D03*
X013680Y028180D03*
X013680Y027180D03*
X013680Y026180D03*
X013680Y025180D03*
X013680Y024180D03*
D20*
X000660Y029727D02*
X000660Y002133D01*
X000792Y002362D01*
X000998Y002568D01*
X001252Y002714D01*
X001534Y002790D01*
X001826Y002790D01*
X002108Y002714D01*
X002362Y002568D01*
X002568Y002362D01*
X002714Y002108D01*
X002790Y001826D01*
X002790Y001534D01*
X002714Y001252D01*
X002568Y000998D01*
X002362Y000792D01*
X002133Y000660D01*
X031727Y000660D01*
X031498Y000792D01*
X031292Y000998D01*
X031146Y001252D01*
X031070Y001534D01*
X031070Y001826D01*
X031146Y002108D01*
X031292Y002362D01*
X031498Y002568D01*
X031752Y002714D01*
X032034Y002790D01*
X032326Y002790D01*
X032608Y002714D01*
X032862Y002568D01*
X033068Y002362D01*
X033070Y002358D01*
X033070Y029502D01*
X033068Y029498D01*
X032862Y029292D01*
X032608Y029146D01*
X032326Y029070D01*
X032034Y029070D01*
X031752Y029146D01*
X031498Y029292D01*
X031292Y029498D01*
X031146Y029752D01*
X031070Y030034D01*
X031070Y030326D01*
X031146Y030608D01*
X031292Y030862D01*
X031498Y031068D01*
X031720Y031196D01*
X002140Y031196D01*
X002362Y031068D01*
X002568Y030862D01*
X002714Y030608D01*
X002790Y030326D01*
X002790Y030034D01*
X002714Y029752D01*
X002568Y029498D01*
X002362Y029292D01*
X002108Y029146D01*
X001826Y029070D01*
X001534Y029070D01*
X001252Y029146D01*
X000998Y029292D01*
X000792Y029498D01*
X000660Y029727D01*
X000660Y029661D02*
X000698Y029661D01*
X000660Y029503D02*
X000790Y029503D01*
X000660Y029344D02*
X000946Y029344D01*
X001183Y029186D02*
X000660Y029186D01*
X000660Y029027D02*
X009690Y029027D01*
X009690Y028977D02*
X009977Y028690D01*
X010383Y028690D01*
X010670Y028977D01*
X010670Y029383D01*
X010383Y029670D01*
X009977Y029670D01*
X009690Y029383D01*
X009690Y028977D01*
X009798Y028869D02*
X000660Y028869D01*
X000660Y028710D02*
X009957Y028710D01*
X010403Y028710D02*
X010957Y028710D01*
X010977Y028690D02*
X011383Y028690D01*
X011670Y028977D01*
X011670Y029383D01*
X011383Y029670D01*
X010977Y029670D01*
X010690Y029383D01*
X010690Y028977D01*
X010977Y028690D01*
X010798Y028869D02*
X010562Y028869D01*
X010670Y029027D02*
X010690Y029027D01*
X010690Y029186D02*
X010670Y029186D01*
X010670Y029344D02*
X010690Y029344D01*
X010810Y029503D02*
X010550Y029503D01*
X010392Y029661D02*
X010968Y029661D01*
X011392Y029661D02*
X031198Y029661D01*
X031128Y029820D02*
X008100Y029820D01*
X008100Y029854D02*
X007854Y030100D01*
X007506Y030100D01*
X007260Y029854D01*
X007260Y029506D01*
X007506Y029260D01*
X007854Y029260D01*
X008100Y029506D01*
X008100Y029854D01*
X007976Y029978D02*
X031085Y029978D01*
X031070Y030137D02*
X002790Y030137D01*
X002790Y030295D02*
X031070Y030295D01*
X031104Y030454D02*
X002756Y030454D01*
X002712Y030612D02*
X031148Y030612D01*
X031239Y030771D02*
X002621Y030771D01*
X002501Y030929D02*
X031359Y030929D01*
X031532Y031088D02*
X002328Y031088D01*
X002775Y029978D02*
X003356Y029978D01*
X003240Y029862D02*
X003240Y029680D01*
X003680Y029680D01*
X004120Y029680D01*
X004120Y029862D01*
X003862Y030120D01*
X003680Y030120D01*
X003680Y029680D01*
X003680Y029680D01*
X003680Y029680D01*
X004120Y029680D01*
X004120Y029498D01*
X003862Y029240D01*
X003680Y029240D01*
X003680Y029680D01*
X003680Y029680D01*
X003680Y029680D01*
X003680Y030120D01*
X003498Y030120D01*
X003240Y029862D01*
X003240Y029820D02*
X002732Y029820D01*
X002662Y029661D02*
X003240Y029661D01*
X003240Y029680D02*
X003240Y029498D01*
X003498Y029240D01*
X003680Y029240D01*
X003680Y029680D01*
X003240Y029680D01*
X003240Y029503D02*
X002570Y029503D01*
X002414Y029344D02*
X003394Y029344D01*
X003680Y029344D02*
X003680Y029344D01*
X003680Y029503D02*
X003680Y029503D01*
X003680Y029661D02*
X003680Y029661D01*
X003680Y029820D02*
X003680Y029820D01*
X003680Y029978D02*
X003680Y029978D01*
X004004Y029978D02*
X007384Y029978D01*
X007260Y029820D02*
X004120Y029820D01*
X004120Y029661D02*
X007260Y029661D01*
X007263Y029503D02*
X004120Y029503D01*
X003966Y029344D02*
X007422Y029344D01*
X007938Y029344D02*
X009690Y029344D01*
X009690Y029186D02*
X002177Y029186D01*
X003240Y028362D02*
X003240Y028180D01*
X003680Y028180D01*
X004120Y028180D01*
X004120Y028362D01*
X003862Y028620D01*
X003680Y028620D01*
X003680Y028180D01*
X003680Y028180D01*
X003680Y028180D01*
X004120Y028180D01*
X004120Y027998D01*
X003862Y027740D01*
X003680Y027740D01*
X003680Y028180D01*
X003680Y028180D01*
X003680Y028180D01*
X003680Y028620D01*
X003498Y028620D01*
X003240Y028362D01*
X003271Y028393D02*
X000660Y028393D01*
X000660Y028235D02*
X003240Y028235D01*
X003240Y028180D02*
X003240Y027998D01*
X003498Y027740D01*
X003680Y027740D01*
X003680Y028180D01*
X003240Y028180D01*
X003240Y028076D02*
X000660Y028076D01*
X000660Y027918D02*
X003320Y027918D01*
X003479Y027759D02*
X000660Y027759D01*
X000660Y027601D02*
X013519Y027601D01*
X013590Y027630D02*
X013425Y027561D01*
X013299Y027435D01*
X013230Y027270D01*
X013230Y027090D01*
X013299Y026925D01*
X013425Y026799D01*
X013590Y026730D01*
X013770Y026730D01*
X013935Y026799D01*
X014061Y026925D01*
X014130Y027090D01*
X014130Y027270D01*
X014061Y027435D01*
X013935Y027561D01*
X013770Y027630D01*
X013590Y027630D01*
X013590Y027730D02*
X013425Y027799D01*
X013299Y027925D01*
X013230Y028090D01*
X013230Y028270D01*
X013299Y028435D01*
X013425Y028561D01*
X013590Y028630D01*
X013770Y028630D01*
X013935Y028561D01*
X014061Y028435D01*
X014130Y028270D01*
X014130Y028090D01*
X014061Y027925D01*
X013935Y027799D01*
X013770Y027730D01*
X013590Y027730D01*
X013520Y027759D02*
X003881Y027759D01*
X003680Y027759D02*
X003680Y027759D01*
X003680Y027918D02*
X003680Y027918D01*
X003680Y028076D02*
X003680Y028076D01*
X003680Y028235D02*
X003680Y028235D01*
X003680Y028393D02*
X003680Y028393D01*
X003680Y028552D02*
X003680Y028552D01*
X003931Y028552D02*
X007458Y028552D01*
X007506Y028600D02*
X007260Y028354D01*
X007260Y028006D01*
X007506Y027760D01*
X007854Y027760D01*
X008100Y028006D01*
X008100Y028354D01*
X007854Y028600D01*
X007506Y028600D01*
X007299Y028393D02*
X004089Y028393D01*
X004120Y028235D02*
X007260Y028235D01*
X007260Y028076D02*
X004120Y028076D01*
X004040Y027918D02*
X007348Y027918D01*
X008012Y027918D02*
X013306Y027918D01*
X013236Y028076D02*
X008100Y028076D01*
X008100Y028235D02*
X013230Y028235D01*
X013281Y028393D02*
X008061Y028393D01*
X007902Y028552D02*
X013415Y028552D01*
X013500Y028744D02*
X013570Y028722D01*
X013643Y028710D01*
X013665Y028710D01*
X013665Y029165D01*
X013695Y029165D01*
X013695Y029195D01*
X014150Y029195D01*
X014150Y029217D01*
X014138Y029290D01*
X014116Y029360D01*
X014082Y029426D01*
X014038Y029486D01*
X013986Y029538D01*
X013926Y029582D01*
X013860Y029616D01*
X013790Y029638D01*
X013717Y029650D01*
X013695Y029650D01*
X013695Y029195D01*
X013665Y029195D01*
X013665Y029650D01*
X013643Y029650D01*
X013570Y029638D01*
X013500Y029616D01*
X013434Y029582D01*
X013374Y029538D01*
X013322Y029486D01*
X013278Y029426D01*
X013244Y029360D01*
X013222Y029290D01*
X013210Y029217D01*
X013210Y029195D01*
X013665Y029195D01*
X013665Y029165D01*
X013210Y029165D01*
X013210Y029143D01*
X013222Y029070D01*
X013244Y029000D01*
X013278Y028934D01*
X013322Y028874D01*
X013374Y028822D01*
X013434Y028778D01*
X013500Y028744D01*
X013643Y028710D02*
X011403Y028710D01*
X011562Y028869D02*
X013327Y028869D01*
X013236Y029027D02*
X011670Y029027D01*
X011670Y029186D02*
X013665Y029186D01*
X013695Y029186D02*
X019230Y029186D01*
X019230Y029270D02*
X019230Y029090D01*
X019299Y028925D01*
X019425Y028799D01*
X019590Y028730D01*
X019770Y028730D01*
X019935Y028799D01*
X020061Y028925D01*
X020130Y029090D01*
X020130Y029270D01*
X020061Y029435D01*
X019935Y029561D01*
X019770Y029630D01*
X019590Y029630D01*
X019425Y029561D01*
X019299Y029435D01*
X019230Y029270D01*
X019261Y029344D02*
X014121Y029344D01*
X014150Y029165D02*
X013695Y029165D01*
X013695Y028710D01*
X013717Y028710D01*
X013790Y028722D01*
X013860Y028744D01*
X013926Y028778D01*
X013986Y028822D01*
X014038Y028874D01*
X014082Y028934D01*
X014116Y029000D01*
X014138Y029070D01*
X014150Y029143D01*
X014150Y029165D01*
X014124Y029027D02*
X019256Y029027D01*
X019355Y028869D02*
X014033Y028869D01*
X013945Y028552D02*
X019415Y028552D01*
X019425Y028561D02*
X019299Y028435D01*
X019230Y028270D01*
X019230Y028090D01*
X019299Y027925D01*
X019425Y027799D01*
X019590Y027730D01*
X019770Y027730D01*
X019935Y027799D01*
X020061Y027925D01*
X020130Y028090D01*
X020130Y028270D01*
X020061Y028435D01*
X019935Y028561D01*
X019770Y028630D01*
X019590Y028630D01*
X019425Y028561D01*
X019281Y028393D02*
X014079Y028393D01*
X014130Y028235D02*
X019230Y028235D01*
X019236Y028076D02*
X014124Y028076D01*
X014054Y027918D02*
X019306Y027918D01*
X019520Y027759D02*
X013840Y027759D01*
X013841Y027601D02*
X019519Y027601D01*
X019590Y027630D02*
X019425Y027561D01*
X019299Y027435D01*
X019230Y027270D01*
X019230Y027090D01*
X019299Y026925D01*
X019425Y026799D01*
X019590Y026730D01*
X019770Y026730D01*
X019935Y026799D01*
X020061Y026925D01*
X020130Y027090D01*
X020130Y027270D01*
X020061Y027435D01*
X019935Y027561D01*
X019770Y027630D01*
X019590Y027630D01*
X019841Y027601D02*
X033070Y027601D01*
X033070Y027759D02*
X019840Y027759D01*
X020054Y027918D02*
X033070Y027918D01*
X033070Y028076D02*
X020124Y028076D01*
X020130Y028235D02*
X033070Y028235D01*
X033070Y028393D02*
X020079Y028393D01*
X019945Y028552D02*
X033070Y028552D01*
X033070Y028710D02*
X013717Y028710D01*
X013695Y028710D02*
X013665Y028710D01*
X013665Y028869D02*
X013695Y028869D01*
X013695Y029027D02*
X013665Y029027D01*
X013665Y029344D02*
X013695Y029344D01*
X013695Y029503D02*
X013665Y029503D01*
X013338Y029503D02*
X011550Y029503D01*
X011670Y029344D02*
X013239Y029344D01*
X014022Y029503D02*
X019366Y029503D01*
X019994Y029503D02*
X031290Y029503D01*
X031446Y029344D02*
X020099Y029344D01*
X020130Y029186D02*
X031683Y029186D01*
X032677Y029186D02*
X033070Y029186D01*
X033070Y029344D02*
X032914Y029344D01*
X033070Y029027D02*
X020104Y029027D01*
X020005Y028869D02*
X033070Y028869D01*
X033070Y027442D02*
X020054Y027442D01*
X020124Y027284D02*
X033070Y027284D01*
X033070Y027125D02*
X020130Y027125D01*
X020079Y026967D02*
X033070Y026967D01*
X033070Y026808D02*
X019944Y026808D01*
X019935Y026561D02*
X019770Y026630D01*
X019590Y026630D01*
X019425Y026561D01*
X019299Y026435D01*
X019230Y026270D01*
X019230Y026090D01*
X019299Y025925D01*
X019425Y025799D01*
X019590Y025730D01*
X019770Y025730D01*
X019935Y025799D01*
X020061Y025925D01*
X020130Y026090D01*
X020130Y026270D01*
X020061Y026435D01*
X019935Y026561D01*
X020005Y026491D02*
X033070Y026491D01*
X033070Y026333D02*
X030920Y026333D01*
X030997Y026301D02*
X030791Y026386D01*
X030569Y026386D01*
X030363Y026301D01*
X030205Y026143D01*
X030120Y025937D01*
X030120Y025714D01*
X030205Y025509D01*
X030363Y025351D01*
X030569Y025266D01*
X030791Y025266D01*
X030997Y025351D01*
X031155Y025509D01*
X031240Y025714D01*
X031240Y025937D01*
X031155Y026143D01*
X030997Y026301D01*
X031124Y026174D02*
X033070Y026174D01*
X033070Y026016D02*
X031208Y026016D01*
X031240Y025857D02*
X033070Y025857D01*
X033070Y025699D02*
X031233Y025699D01*
X031168Y025540D02*
X033070Y025540D01*
X033070Y025382D02*
X031028Y025382D01*
X030903Y024985D02*
X030816Y025014D01*
X030726Y025028D01*
X030718Y025028D01*
X030718Y024486D01*
X030642Y024486D01*
X030642Y025028D01*
X030634Y025028D01*
X030544Y025014D01*
X030457Y024985D01*
X030376Y024944D01*
X030302Y024890D01*
X030238Y024826D01*
X030184Y024752D01*
X030142Y024671D01*
X030114Y024584D01*
X030100Y024494D01*
X030100Y024486D01*
X030642Y024486D01*
X030642Y024410D01*
X030100Y024410D01*
X030100Y024402D01*
X030114Y024312D01*
X030142Y024225D01*
X030184Y024144D01*
X030238Y024070D01*
X030302Y024006D01*
X030376Y023952D01*
X030457Y023910D01*
X030544Y023882D01*
X030634Y023868D01*
X030642Y023868D01*
X030642Y024410D01*
X030718Y024410D01*
X030718Y024486D01*
X031260Y024486D01*
X031260Y024494D01*
X031246Y024584D01*
X031218Y024671D01*
X031176Y024752D01*
X031122Y024826D01*
X031058Y024890D01*
X030984Y024944D01*
X030903Y024985D01*
X031036Y024906D02*
X033070Y024906D01*
X033070Y024748D02*
X031178Y024748D01*
X031244Y024589D02*
X033070Y024589D01*
X033070Y024431D02*
X030718Y024431D01*
X030718Y024410D02*
X031260Y024410D01*
X031260Y024402D01*
X031246Y024312D01*
X031218Y024225D01*
X031176Y024144D01*
X031122Y024070D01*
X031058Y024006D01*
X030984Y023952D01*
X030903Y023910D01*
X030816Y023882D01*
X030726Y023868D01*
X030718Y023868D01*
X030718Y024410D01*
X030642Y024431D02*
X020063Y024431D01*
X020061Y024435D02*
X019935Y024561D01*
X019770Y024630D01*
X019590Y024630D01*
X019425Y024561D01*
X019299Y024435D01*
X019230Y024270D01*
X019230Y024090D01*
X019299Y023925D01*
X019425Y023799D01*
X019590Y023730D01*
X019770Y023730D01*
X019935Y023799D01*
X020061Y023925D01*
X020130Y024090D01*
X020130Y024270D01*
X020061Y024435D01*
X020129Y024272D02*
X030127Y024272D01*
X030206Y024114D02*
X020130Y024114D01*
X020074Y023955D02*
X030372Y023955D01*
X030642Y023955D02*
X030718Y023955D01*
X030718Y024114D02*
X030642Y024114D01*
X030642Y024272D02*
X030718Y024272D01*
X030718Y024589D02*
X030642Y024589D01*
X030642Y024748D02*
X030718Y024748D01*
X030718Y024906D02*
X030642Y024906D01*
X030324Y024906D02*
X020042Y024906D01*
X020061Y024925D02*
X020130Y025090D01*
X020130Y025270D01*
X020061Y025435D01*
X019935Y025561D01*
X019770Y025630D01*
X019590Y025630D01*
X019425Y025561D01*
X019299Y025435D01*
X019230Y025270D01*
X019230Y025090D01*
X019299Y024925D01*
X019425Y024799D01*
X019590Y024730D01*
X019770Y024730D01*
X019935Y024799D01*
X020061Y024925D01*
X020119Y025065D02*
X033070Y025065D01*
X033070Y025223D02*
X020130Y025223D01*
X020084Y025382D02*
X030332Y025382D01*
X030192Y025540D02*
X019956Y025540D01*
X019993Y025857D02*
X030120Y025857D01*
X030127Y025699D02*
X011392Y025699D01*
X011383Y025690D02*
X011670Y025977D01*
X011670Y026383D01*
X011383Y026670D01*
X010977Y026670D01*
X010690Y026383D01*
X010690Y025977D01*
X010977Y025690D01*
X011383Y025690D01*
X011550Y025857D02*
X013367Y025857D01*
X013425Y025799D02*
X013299Y025925D01*
X013230Y026090D01*
X013230Y026270D01*
X013299Y026435D01*
X013425Y026561D01*
X013590Y026630D01*
X013770Y026630D01*
X013935Y026561D01*
X014061Y026435D01*
X014130Y026270D01*
X014130Y026090D01*
X014061Y025925D01*
X013935Y025799D01*
X013770Y025730D01*
X013590Y025730D01*
X013425Y025799D01*
X013590Y025630D02*
X013425Y025561D01*
X013299Y025435D01*
X013230Y025270D01*
X013230Y025090D01*
X013299Y024925D01*
X013425Y024799D01*
X013590Y024730D01*
X013770Y024730D01*
X013935Y024799D01*
X014061Y024925D01*
X014130Y025090D01*
X014130Y025270D01*
X014061Y025435D01*
X013935Y025561D01*
X013770Y025630D01*
X013590Y025630D01*
X013404Y025540D02*
X007914Y025540D01*
X007854Y025600D02*
X007506Y025600D01*
X007260Y025354D01*
X007260Y025006D01*
X007506Y024760D01*
X007854Y024760D01*
X008100Y025006D01*
X008100Y025354D01*
X007854Y025600D01*
X008072Y025382D02*
X013276Y025382D01*
X013230Y025223D02*
X008100Y025223D01*
X008100Y025065D02*
X013241Y025065D01*
X013318Y024906D02*
X008000Y024906D01*
X007360Y024906D02*
X004028Y024906D01*
X004120Y024998D02*
X003862Y024740D01*
X003680Y024740D01*
X003680Y025180D01*
X004120Y025180D01*
X004120Y025362D01*
X003862Y025620D01*
X003680Y025620D01*
X003680Y025180D01*
X003680Y025180D01*
X003680Y025180D01*
X004120Y025180D01*
X004120Y024998D01*
X004120Y025065D02*
X007260Y025065D01*
X007260Y025223D02*
X004120Y025223D01*
X004101Y025382D02*
X007288Y025382D01*
X007446Y025540D02*
X003942Y025540D01*
X003680Y025540D02*
X003680Y025540D01*
X003680Y025620D02*
X003498Y025620D01*
X003240Y025362D01*
X003240Y025180D01*
X003680Y025180D01*
X003680Y025180D01*
X003680Y025180D01*
X003680Y025620D01*
X003680Y025382D02*
X003680Y025382D01*
X003680Y025223D02*
X003680Y025223D01*
X003680Y025180D02*
X003240Y025180D01*
X003240Y024998D01*
X003498Y024740D01*
X003680Y024740D01*
X003680Y025180D01*
X003680Y025065D02*
X003680Y025065D01*
X003680Y024906D02*
X003680Y024906D01*
X003680Y024748D02*
X003680Y024748D01*
X003870Y024748D02*
X013548Y024748D01*
X013590Y024630D02*
X013425Y024561D01*
X013299Y024435D01*
X013230Y024270D01*
X013230Y024090D01*
X013299Y023925D01*
X013425Y023799D01*
X013590Y023730D01*
X013770Y023730D01*
X013935Y023799D01*
X014061Y023925D01*
X014130Y024090D01*
X014130Y024270D01*
X014061Y024435D01*
X013935Y024561D01*
X013770Y024630D01*
X013590Y024630D01*
X013492Y024589D02*
X000660Y024589D01*
X000660Y024431D02*
X013297Y024431D01*
X013231Y024272D02*
X000660Y024272D01*
X000660Y024114D02*
X003491Y024114D01*
X003498Y024120D02*
X003240Y023862D01*
X003240Y023680D01*
X003680Y023680D01*
X004120Y023680D01*
X004120Y023862D01*
X003862Y024120D01*
X003680Y024120D01*
X003680Y023680D01*
X003680Y023680D01*
X003680Y023680D01*
X004120Y023680D01*
X004120Y023498D01*
X003862Y023240D01*
X003680Y023240D01*
X003680Y023680D01*
X003680Y023680D01*
X003680Y023680D01*
X003680Y024120D01*
X003498Y024120D01*
X003680Y024114D02*
X003680Y024114D01*
X003680Y023955D02*
X003680Y023955D01*
X003680Y023797D02*
X003680Y023797D01*
X003680Y023680D02*
X003240Y023680D01*
X003240Y023498D01*
X003498Y023240D01*
X003680Y023240D01*
X003680Y023680D01*
X003680Y023638D02*
X003680Y023638D01*
X003680Y023480D02*
X003680Y023480D01*
X003680Y023321D02*
X003680Y023321D01*
X003943Y023321D02*
X007445Y023321D01*
X007506Y023260D02*
X007260Y023506D01*
X007260Y023854D01*
X007506Y024100D01*
X007854Y024100D01*
X008100Y023854D01*
X008100Y023506D01*
X007854Y023260D01*
X007506Y023260D01*
X007286Y023480D02*
X004102Y023480D01*
X004120Y023638D02*
X007260Y023638D01*
X007260Y023797D02*
X004120Y023797D01*
X004027Y023955D02*
X007361Y023955D01*
X007999Y023955D02*
X013286Y023955D01*
X013230Y024114D02*
X003869Y024114D01*
X003333Y023955D02*
X000660Y023955D01*
X000660Y023797D02*
X003240Y023797D01*
X003240Y023638D02*
X000660Y023638D01*
X000660Y023480D02*
X003258Y023480D01*
X003417Y023321D02*
X000660Y023321D01*
X000660Y023163D02*
X009690Y023163D01*
X009690Y023321D02*
X007915Y023321D01*
X008074Y023480D02*
X009787Y023480D01*
X009690Y023383D02*
X009690Y022977D01*
X009977Y022690D01*
X010383Y022690D01*
X010670Y022977D01*
X010670Y023383D01*
X010383Y023670D01*
X009977Y023670D01*
X009690Y023383D01*
X009945Y023638D02*
X008100Y023638D01*
X008100Y023797D02*
X013430Y023797D01*
X013590Y023630D02*
X013425Y023561D01*
X013299Y023435D01*
X013230Y023270D01*
X013230Y023090D01*
X013299Y022925D01*
X013425Y022799D01*
X013590Y022730D01*
X013770Y022730D01*
X013935Y022799D01*
X014061Y022925D01*
X014130Y023090D01*
X014130Y023270D01*
X014061Y023435D01*
X013935Y023561D01*
X013770Y023630D01*
X013590Y023630D01*
X013343Y023480D02*
X011573Y023480D01*
X011670Y023383D02*
X011383Y023670D01*
X010977Y023670D01*
X010690Y023383D01*
X010690Y022977D01*
X010977Y022690D01*
X011383Y022690D01*
X011670Y022977D01*
X011670Y023383D01*
X011670Y023321D02*
X013251Y023321D01*
X013230Y023163D02*
X011670Y023163D01*
X011670Y023004D02*
X013266Y023004D01*
X013378Y022846D02*
X011538Y022846D01*
X010821Y022846D02*
X010538Y022846D01*
X010670Y023004D02*
X010690Y023004D01*
X010690Y023163D02*
X010670Y023163D01*
X010670Y023321D02*
X010690Y023321D01*
X010787Y023480D02*
X010573Y023480D01*
X010415Y023638D02*
X010945Y023638D01*
X011415Y023638D02*
X033070Y023638D01*
X033070Y023480D02*
X031062Y023480D01*
X030997Y023545D02*
X030791Y023630D01*
X030569Y023630D01*
X030363Y023545D01*
X030205Y023387D01*
X030120Y023181D01*
X030120Y022959D01*
X030205Y022753D01*
X030363Y022595D01*
X030569Y022510D01*
X030791Y022510D01*
X030997Y022595D01*
X031155Y022753D01*
X031240Y022959D01*
X031240Y023181D01*
X031155Y023387D01*
X030997Y023545D01*
X031182Y023321D02*
X033070Y023321D01*
X033070Y023163D02*
X031240Y023163D01*
X031240Y023004D02*
X033070Y023004D01*
X033070Y022846D02*
X031193Y022846D01*
X031089Y022687D02*
X033070Y022687D01*
X033070Y022529D02*
X030836Y022529D01*
X030524Y022529D02*
X019968Y022529D01*
X019935Y022561D02*
X019770Y022630D01*
X019590Y022630D01*
X019425Y022561D01*
X019299Y022435D01*
X019230Y022270D01*
X019230Y022090D01*
X019299Y021925D01*
X019425Y021799D01*
X019590Y021730D01*
X019770Y021730D01*
X019935Y021799D01*
X020061Y021925D01*
X020130Y022090D01*
X020130Y022270D01*
X020061Y022435D01*
X019935Y022561D01*
X019770Y022730D02*
X019590Y022730D01*
X019425Y022799D01*
X019299Y022925D01*
X019230Y023090D01*
X019230Y023270D01*
X019299Y023435D01*
X019425Y023561D01*
X019590Y023630D01*
X019770Y023630D01*
X019935Y023561D01*
X020061Y023435D01*
X020130Y023270D01*
X020130Y023090D01*
X020061Y022925D01*
X019935Y022799D01*
X019770Y022730D01*
X019982Y022846D02*
X030167Y022846D01*
X030120Y023004D02*
X020094Y023004D01*
X020130Y023163D02*
X030120Y023163D01*
X030178Y023321D02*
X020109Y023321D01*
X020017Y023480D02*
X030298Y023480D01*
X030271Y022687D02*
X000660Y022687D01*
X000660Y022529D02*
X013392Y022529D01*
X013425Y022561D02*
X013299Y022435D01*
X013230Y022270D01*
X013230Y022090D01*
X013299Y021925D01*
X013425Y021799D01*
X013590Y021730D01*
X013770Y021730D01*
X013935Y021799D01*
X014061Y021925D01*
X014130Y022090D01*
X014130Y022270D01*
X014061Y022435D01*
X013935Y022561D01*
X013770Y022630D01*
X013590Y022630D01*
X013425Y022561D01*
X013272Y022370D02*
X000660Y022370D01*
X000660Y022212D02*
X002321Y022212D01*
X002112Y022156D02*
X001628Y021876D01*
X001234Y021482D01*
X000954Y020998D01*
X000810Y020459D01*
X000810Y019901D01*
X000954Y019362D01*
X001234Y018878D01*
X001628Y018484D01*
X002112Y018204D01*
X002651Y018060D01*
X003209Y018060D01*
X003748Y018204D01*
X004232Y018484D01*
X004626Y018878D01*
X004906Y019362D01*
X005050Y019901D01*
X005050Y020459D01*
X004906Y020998D01*
X004626Y021482D01*
X004232Y021876D01*
X003748Y022156D01*
X003209Y022300D01*
X002651Y022300D01*
X002112Y022156D01*
X001934Y022053D02*
X000660Y022053D01*
X000660Y021895D02*
X001660Y021895D01*
X001488Y021736D02*
X000660Y021736D01*
X000660Y021578D02*
X001329Y021578D01*
X001197Y021419D02*
X000660Y021419D01*
X000660Y021261D02*
X001106Y021261D01*
X001014Y021102D02*
X000660Y021102D01*
X000660Y020944D02*
X000940Y020944D01*
X000897Y020785D02*
X000660Y020785D01*
X000660Y020627D02*
X000855Y020627D01*
X000812Y020468D02*
X000660Y020468D01*
X000660Y020310D02*
X000810Y020310D01*
X000810Y020151D02*
X000660Y020151D01*
X000660Y019993D02*
X000810Y019993D01*
X000828Y019834D02*
X000660Y019834D01*
X000660Y019676D02*
X000870Y019676D01*
X000913Y019517D02*
X000660Y019517D01*
X000660Y019359D02*
X000956Y019359D01*
X001048Y019200D02*
X000660Y019200D01*
X000660Y019042D02*
X001139Y019042D01*
X001231Y018883D02*
X000660Y018883D01*
X000660Y018725D02*
X001387Y018725D01*
X001546Y018566D02*
X000660Y018566D01*
X000660Y018408D02*
X001760Y018408D01*
X002035Y018249D02*
X000660Y018249D01*
X000660Y018091D02*
X002537Y018091D01*
X003323Y018091D02*
X013230Y018091D01*
X013230Y018090D02*
X013299Y017925D01*
X013425Y017799D01*
X013590Y017730D01*
X013770Y017730D01*
X013935Y017799D01*
X014061Y017925D01*
X014130Y018090D01*
X014130Y018270D01*
X014061Y018435D01*
X013935Y018561D01*
X013770Y018630D01*
X013590Y018630D01*
X013425Y018561D01*
X013299Y018435D01*
X013230Y018270D01*
X013230Y018090D01*
X013230Y018249D02*
X003825Y018249D01*
X004100Y018408D02*
X013287Y018408D01*
X013436Y018566D02*
X004314Y018566D01*
X004473Y018725D02*
X030134Y018725D01*
X030120Y018758D02*
X030205Y018552D01*
X030363Y018394D01*
X030569Y018309D01*
X030791Y018309D01*
X030997Y018394D01*
X031155Y018552D01*
X031240Y018758D01*
X031240Y018980D01*
X031155Y019186D01*
X030997Y019344D01*
X030791Y019429D01*
X030569Y019429D01*
X030363Y019344D01*
X030205Y019186D01*
X030120Y018980D01*
X030120Y018758D01*
X030120Y018883D02*
X020019Y018883D01*
X020061Y018925D02*
X020130Y019090D01*
X020130Y019270D01*
X020061Y019435D01*
X019935Y019561D01*
X019770Y019630D01*
X019590Y019630D01*
X019425Y019561D01*
X019299Y019435D01*
X019230Y019270D01*
X019230Y019090D01*
X019299Y018925D01*
X019425Y018799D01*
X019590Y018730D01*
X019770Y018730D01*
X019935Y018799D01*
X020061Y018925D01*
X020110Y019042D02*
X030145Y019042D01*
X030219Y019200D02*
X020130Y019200D01*
X020093Y019359D02*
X030399Y019359D01*
X030569Y019687D02*
X030791Y019687D01*
X030997Y019772D01*
X031155Y019930D01*
X031240Y020136D01*
X031240Y020358D01*
X031155Y020564D01*
X030997Y020722D01*
X030791Y020807D01*
X030569Y020807D01*
X030363Y020722D01*
X030205Y020564D01*
X030120Y020358D01*
X030120Y020136D01*
X030205Y019930D01*
X030363Y019772D01*
X030569Y019687D01*
X030301Y019834D02*
X019970Y019834D01*
X019935Y019799D02*
X020061Y019925D01*
X020130Y020090D01*
X020130Y020270D01*
X020061Y020435D01*
X019935Y020561D01*
X019770Y020630D01*
X019590Y020630D01*
X019425Y020561D01*
X019299Y020435D01*
X019230Y020270D01*
X019230Y020090D01*
X019299Y019925D01*
X019425Y019799D01*
X019590Y019730D01*
X019770Y019730D01*
X019935Y019799D01*
X020089Y019993D02*
X030179Y019993D01*
X030120Y020151D02*
X020130Y020151D01*
X020113Y020310D02*
X030120Y020310D01*
X030165Y020468D02*
X020028Y020468D01*
X019778Y020627D02*
X030268Y020627D01*
X030516Y020785D02*
X019902Y020785D01*
X019935Y020799D02*
X020061Y020925D01*
X020130Y021090D01*
X020130Y021270D01*
X020061Y021435D01*
X019935Y021561D01*
X019770Y021630D01*
X019590Y021630D01*
X019425Y021561D01*
X019299Y021435D01*
X019230Y021270D01*
X019230Y021090D01*
X019299Y020925D01*
X019425Y020799D01*
X019590Y020730D01*
X019770Y020730D01*
X019935Y020799D01*
X020069Y020944D02*
X033070Y020944D01*
X033070Y021102D02*
X020130Y021102D01*
X020130Y021261D02*
X030120Y021261D01*
X030120Y021226D02*
X030214Y021132D01*
X031146Y021132D01*
X031240Y021226D01*
X031240Y022158D01*
X031146Y022252D01*
X030214Y022252D01*
X030120Y022158D01*
X030120Y021226D01*
X030120Y021419D02*
X020068Y021419D01*
X019896Y021578D02*
X030120Y021578D01*
X030120Y021736D02*
X019784Y021736D01*
X019576Y021736D02*
X013784Y021736D01*
X013770Y021630D02*
X013590Y021630D01*
X013425Y021561D01*
X013299Y021435D01*
X013230Y021270D01*
X013230Y021090D01*
X013299Y020925D01*
X013425Y020799D01*
X013590Y020730D01*
X013770Y020730D01*
X013935Y020799D01*
X014061Y020925D01*
X014130Y021090D01*
X014130Y021270D01*
X014061Y021435D01*
X013935Y021561D01*
X013770Y021630D01*
X013896Y021578D02*
X019464Y021578D01*
X019292Y021419D02*
X014068Y021419D01*
X014130Y021261D02*
X019230Y021261D01*
X019230Y021102D02*
X014130Y021102D01*
X014069Y020944D02*
X019291Y020944D01*
X019458Y020785D02*
X013902Y020785D01*
X013778Y020627D02*
X019582Y020627D01*
X019332Y020468D02*
X014028Y020468D01*
X014061Y020435D02*
X013935Y020561D01*
X013770Y020630D01*
X013590Y020630D01*
X013425Y020561D01*
X013299Y020435D01*
X013230Y020270D01*
X013230Y020090D01*
X013299Y019925D01*
X013425Y019799D01*
X013590Y019730D01*
X013770Y019730D01*
X013935Y019799D01*
X014061Y019925D01*
X014130Y020090D01*
X014130Y020270D01*
X014061Y020435D01*
X014113Y020310D02*
X019247Y020310D01*
X019230Y020151D02*
X014130Y020151D01*
X014089Y019993D02*
X019271Y019993D01*
X019390Y019834D02*
X013970Y019834D01*
X013935Y019561D02*
X013770Y019630D01*
X013590Y019630D01*
X013425Y019561D01*
X013299Y019435D01*
X013230Y019270D01*
X013230Y019090D01*
X013299Y018925D01*
X013425Y018799D01*
X013590Y018730D01*
X013770Y018730D01*
X013935Y018799D01*
X014061Y018925D01*
X014130Y019090D01*
X014130Y019270D01*
X014061Y019435D01*
X013935Y019561D01*
X013979Y019517D02*
X019381Y019517D01*
X019267Y019359D02*
X014093Y019359D01*
X014130Y019200D02*
X019230Y019200D01*
X019250Y019042D02*
X014110Y019042D01*
X014019Y018883D02*
X019341Y018883D01*
X019436Y018566D02*
X013924Y018566D01*
X014073Y018408D02*
X019287Y018408D01*
X019299Y018435D02*
X019230Y018270D01*
X019230Y018090D01*
X019299Y017925D01*
X019425Y017799D01*
X019590Y017730D01*
X019770Y017730D01*
X019935Y017799D01*
X020061Y017925D01*
X020130Y018090D01*
X020130Y018270D01*
X020061Y018435D01*
X019935Y018561D01*
X019770Y018630D01*
X019590Y018630D01*
X019425Y018561D01*
X019299Y018435D01*
X019230Y018249D02*
X014130Y018249D01*
X014130Y018091D02*
X019230Y018091D01*
X019296Y017932D02*
X014064Y017932D01*
X013875Y017774D02*
X019485Y017774D01*
X019554Y017615D02*
X013806Y017615D01*
X013770Y017630D02*
X013590Y017630D01*
X013425Y017561D01*
X013299Y017435D01*
X013230Y017270D01*
X013230Y017090D01*
X013299Y016925D01*
X013425Y016799D01*
X013590Y016730D01*
X013770Y016730D01*
X013935Y016799D01*
X014061Y016925D01*
X014130Y017090D01*
X014130Y017270D01*
X014061Y017435D01*
X013935Y017561D01*
X013770Y017630D01*
X013554Y017615D02*
X011438Y017615D01*
X011383Y017670D02*
X010977Y017670D01*
X010690Y017383D01*
X010690Y016977D01*
X010977Y016690D01*
X011383Y016690D01*
X011670Y016977D01*
X011670Y017383D01*
X011383Y017670D01*
X011596Y017457D02*
X013320Y017457D01*
X013242Y017298D02*
X011670Y017298D01*
X011670Y017140D02*
X013230Y017140D01*
X013275Y016981D02*
X011670Y016981D01*
X011515Y016823D02*
X013401Y016823D01*
X013425Y016561D02*
X013299Y016435D01*
X013230Y016270D01*
X013230Y016090D01*
X013299Y015925D01*
X013425Y015799D01*
X013590Y015730D01*
X013770Y015730D01*
X013935Y015799D01*
X014061Y015925D01*
X014130Y016090D01*
X014130Y016270D01*
X014061Y016435D01*
X013935Y016561D01*
X013770Y016630D01*
X013590Y016630D01*
X013425Y016561D01*
X013369Y016506D02*
X000660Y016506D01*
X000660Y016664D02*
X030205Y016664D01*
X030214Y016673D02*
X030120Y016579D01*
X030120Y015647D01*
X030214Y015553D01*
X031146Y015553D01*
X031240Y015647D01*
X031240Y016579D01*
X031146Y016673D01*
X030214Y016673D01*
X030120Y016506D02*
X019991Y016506D01*
X019935Y016561D02*
X020061Y016435D01*
X020130Y016270D01*
X020130Y016090D01*
X020061Y015925D01*
X019935Y015799D01*
X019770Y015730D01*
X019590Y015730D01*
X019425Y015799D01*
X019299Y015925D01*
X019230Y016090D01*
X019230Y016270D01*
X019299Y016435D01*
X019425Y016561D01*
X019590Y016630D01*
X019770Y016630D01*
X019935Y016561D01*
X019770Y016730D02*
X019590Y016730D01*
X019425Y016799D01*
X019299Y016925D01*
X019230Y017090D01*
X019230Y017270D01*
X019299Y017435D01*
X019425Y017561D01*
X019590Y017630D01*
X019770Y017630D01*
X019935Y017561D01*
X020061Y017435D01*
X020130Y017270D01*
X020130Y017090D01*
X020061Y016925D01*
X019935Y016799D01*
X019770Y016730D01*
X019959Y016823D02*
X033070Y016823D01*
X033070Y016981D02*
X030957Y016981D01*
X030984Y016995D02*
X031058Y017049D01*
X031122Y017113D01*
X031176Y017187D01*
X031218Y017268D01*
X031246Y017355D01*
X031260Y017445D01*
X031260Y017453D01*
X030718Y017453D01*
X030718Y016911D01*
X030726Y016911D01*
X030816Y016925D01*
X030903Y016954D01*
X030984Y016995D01*
X031142Y017140D02*
X033070Y017140D01*
X033070Y017298D02*
X031227Y017298D01*
X031260Y017529D02*
X031260Y017537D01*
X031246Y017627D01*
X031218Y017714D01*
X031176Y017795D01*
X031122Y017869D01*
X031058Y017933D01*
X030984Y017987D01*
X030903Y018029D01*
X030816Y018057D01*
X030726Y018071D01*
X030718Y018071D01*
X030718Y017529D01*
X031260Y017529D01*
X031248Y017615D02*
X033070Y017615D01*
X033070Y017457D02*
X030718Y017457D01*
X030718Y017453D02*
X030718Y017529D01*
X030642Y017529D01*
X030642Y017453D01*
X030718Y017453D01*
X030642Y017453D02*
X030642Y016911D01*
X030634Y016911D01*
X030544Y016925D01*
X030457Y016954D01*
X030376Y016995D01*
X030302Y017049D01*
X030238Y017113D01*
X030184Y017187D01*
X030142Y017268D01*
X030114Y017355D01*
X030100Y017445D01*
X030100Y017453D01*
X030642Y017453D01*
X030642Y017457D02*
X020040Y017457D01*
X020118Y017298D02*
X030133Y017298D01*
X030218Y017140D02*
X020130Y017140D01*
X020085Y016981D02*
X030403Y016981D01*
X030642Y016981D02*
X030718Y016981D01*
X030718Y017140D02*
X030642Y017140D01*
X030642Y017298D02*
X030718Y017298D01*
X030642Y017529D02*
X030100Y017529D01*
X030100Y017537D01*
X030114Y017627D01*
X030142Y017714D01*
X030184Y017795D01*
X030238Y017869D01*
X030302Y017933D01*
X030376Y017987D01*
X030457Y018029D01*
X030544Y018057D01*
X030634Y018071D01*
X030642Y018071D01*
X030642Y017529D01*
X030642Y017615D02*
X030718Y017615D01*
X030718Y017774D02*
X030642Y017774D01*
X030642Y017932D02*
X030718Y017932D01*
X031059Y017932D02*
X033070Y017932D01*
X033070Y017774D02*
X031187Y017774D01*
X031011Y018408D02*
X033070Y018408D01*
X033070Y018566D02*
X031161Y018566D01*
X031226Y018725D02*
X033070Y018725D01*
X033070Y018883D02*
X031240Y018883D01*
X031215Y019042D02*
X033070Y019042D01*
X033070Y019200D02*
X031141Y019200D01*
X030961Y019359D02*
X033070Y019359D01*
X033070Y019517D02*
X019979Y019517D01*
X019924Y018566D02*
X030199Y018566D01*
X030349Y018408D02*
X020073Y018408D01*
X020130Y018249D02*
X033070Y018249D01*
X033070Y018091D02*
X020130Y018091D01*
X020064Y017932D02*
X030301Y017932D01*
X030173Y017774D02*
X019875Y017774D01*
X019806Y017615D02*
X030112Y017615D01*
X030120Y016347D02*
X020098Y016347D01*
X020130Y016189D02*
X030120Y016189D01*
X030120Y016030D02*
X020105Y016030D01*
X020008Y015872D02*
X030120Y015872D01*
X030120Y015713D02*
X016736Y015713D01*
X016717Y015710D02*
X016790Y015722D01*
X016860Y015744D01*
X016926Y015778D01*
X016986Y015822D01*
X017038Y015874D01*
X017082Y015934D01*
X017116Y016000D01*
X017138Y016070D01*
X017150Y016143D01*
X017150Y016165D01*
X016695Y016165D01*
X016695Y016195D01*
X017150Y016195D01*
X017150Y016217D01*
X017138Y016290D01*
X017116Y016360D01*
X017082Y016426D01*
X017038Y016486D01*
X016986Y016538D01*
X016926Y016582D01*
X016860Y016616D01*
X016790Y016638D01*
X016717Y016650D01*
X016695Y016650D01*
X016695Y016195D01*
X016665Y016195D01*
X016665Y016650D01*
X016643Y016650D01*
X016570Y016638D01*
X016500Y016616D01*
X016434Y016582D01*
X016374Y016538D01*
X016322Y016486D01*
X016278Y016426D01*
X016244Y016360D01*
X016222Y016290D01*
X016210Y016217D01*
X016210Y016195D01*
X016665Y016195D01*
X016665Y016165D01*
X016695Y016165D01*
X016695Y015710D01*
X016717Y015710D01*
X016695Y015713D02*
X016665Y015713D01*
X016665Y015710D02*
X016665Y016165D01*
X016210Y016165D01*
X016210Y016143D01*
X016222Y016070D01*
X016244Y016000D01*
X016278Y015934D01*
X016322Y015874D01*
X016374Y015822D01*
X016434Y015778D01*
X016500Y015744D01*
X016570Y015722D01*
X016643Y015710D01*
X016665Y015710D01*
X016624Y015713D02*
X000660Y015713D01*
X000660Y015555D02*
X030212Y015555D01*
X031148Y015555D02*
X033070Y015555D01*
X033070Y015713D02*
X031240Y015713D01*
X031240Y015872D02*
X033070Y015872D01*
X033070Y016030D02*
X031240Y016030D01*
X031240Y016189D02*
X033070Y016189D01*
X033070Y016347D02*
X031240Y016347D01*
X031240Y016506D02*
X033070Y016506D01*
X033070Y016664D02*
X031155Y016664D01*
X033070Y015396D02*
X000660Y015396D01*
X000660Y015238D02*
X033070Y015238D01*
X033070Y015079D02*
X000660Y015079D01*
X000660Y014921D02*
X033070Y014921D01*
X033070Y014762D02*
X003351Y014762D01*
X003209Y014800D02*
X002651Y014800D01*
X002112Y014656D01*
X001628Y014376D01*
X001234Y013982D01*
X000954Y013498D01*
X000810Y012959D01*
X000810Y012401D01*
X000954Y011862D01*
X001234Y011378D01*
X001628Y010984D01*
X002112Y010704D01*
X002651Y010560D01*
X003209Y010560D01*
X003748Y010704D01*
X004232Y010984D01*
X004626Y011378D01*
X004906Y011862D01*
X005050Y012401D01*
X005050Y012959D01*
X004906Y013498D01*
X004626Y013982D01*
X004232Y014376D01*
X003748Y014656D01*
X003209Y014800D01*
X003838Y014604D02*
X010920Y014604D01*
X010931Y014612D02*
X010867Y014565D01*
X010811Y014509D01*
X010764Y014445D01*
X010009Y014445D01*
X010100Y014354D02*
X009854Y014600D01*
X009506Y014600D01*
X009260Y014354D01*
X009260Y014006D01*
X009506Y013760D01*
X009854Y013760D01*
X010100Y014006D01*
X010100Y014354D01*
X010100Y014287D02*
X010701Y014287D01*
X010703Y014298D02*
X010691Y014220D01*
X010691Y014180D01*
X010691Y014140D01*
X010703Y014062D01*
X010728Y013986D01*
X010764Y013915D01*
X010811Y013851D01*
X010867Y013795D01*
X010931Y013748D01*
X011002Y013712D01*
X011077Y013687D01*
X011156Y013675D01*
X011196Y013675D01*
X011235Y013675D01*
X011314Y013687D01*
X011390Y013712D01*
X011460Y013748D01*
X011525Y013795D01*
X011581Y013851D01*
X011628Y013915D01*
X011664Y013986D01*
X011688Y014062D01*
X011701Y014140D01*
X011701Y014180D01*
X011701Y014220D01*
X011688Y014298D01*
X011664Y014374D01*
X011628Y014445D01*
X011581Y014509D01*
X011525Y014565D01*
X011460Y014612D01*
X011390Y014648D01*
X011314Y014673D01*
X011235Y014685D01*
X011196Y014685D01*
X011196Y014180D01*
X011701Y014180D01*
X011196Y014180D01*
X011196Y014180D01*
X011196Y013675D01*
X011196Y014180D01*
X011196Y014180D01*
X011196Y014180D01*
X011196Y014685D01*
X011156Y014685D01*
X011077Y014673D01*
X011002Y014648D01*
X010931Y014612D01*
X010764Y014445D02*
X010728Y014374D01*
X010703Y014298D01*
X010691Y014180D02*
X011196Y014180D01*
X010691Y014180D01*
X010693Y014128D02*
X010100Y014128D01*
X010063Y013970D02*
X010736Y013970D01*
X010851Y013811D02*
X009905Y013811D01*
X009455Y013811D02*
X004725Y013811D01*
X004816Y013653D02*
X033070Y013653D01*
X033070Y013811D02*
X013481Y013811D01*
X013439Y013769D02*
X013575Y013905D01*
X013649Y014084D01*
X013649Y014276D01*
X013575Y014455D01*
X013439Y014591D01*
X013261Y014665D01*
X013068Y014665D01*
X012890Y014591D01*
X012753Y014455D01*
X012679Y014276D01*
X012679Y014084D01*
X012753Y013905D01*
X012890Y013769D01*
X013068Y013695D01*
X013261Y013695D01*
X013439Y013769D01*
X013602Y013970D02*
X033070Y013970D01*
X033070Y014128D02*
X013649Y014128D01*
X013645Y014287D02*
X033070Y014287D01*
X033070Y014445D02*
X013579Y014445D01*
X013409Y014604D02*
X033070Y014604D01*
X033070Y013494D02*
X017488Y013494D01*
X017362Y013620D02*
X017180Y013620D01*
X017180Y013180D01*
X017180Y013180D01*
X017620Y013180D01*
X017620Y013362D01*
X017362Y013620D01*
X017180Y013620D02*
X017180Y013180D01*
X017180Y013180D01*
X017180Y013180D01*
X016740Y013180D01*
X016740Y013362D01*
X016998Y013620D01*
X017180Y013620D01*
X017180Y013494D02*
X017180Y013494D01*
X017180Y013336D02*
X017180Y013336D01*
X017180Y013180D02*
X016740Y013180D01*
X016740Y012998D01*
X016998Y012740D01*
X017180Y012740D01*
X017362Y012740D01*
X017620Y012998D01*
X017620Y013180D01*
X017180Y013180D01*
X017180Y012740D01*
X017180Y013180D01*
X017180Y013180D01*
X017180Y013177D02*
X017180Y013177D01*
X017180Y013019D02*
X017180Y013019D01*
X017180Y012860D02*
X017180Y012860D01*
X017482Y012860D02*
X033070Y012860D01*
X033070Y012702D02*
X007210Y012702D01*
X007210Y012710D02*
X008100Y012710D01*
X008100Y012723D01*
X008086Y012809D01*
X008060Y012891D01*
X008020Y012968D01*
X007970Y013038D01*
X007908Y013100D01*
X007838Y013150D01*
X007761Y013190D01*
X007679Y013216D01*
X007593Y013230D01*
X007210Y013230D01*
X007210Y012710D01*
X007150Y012710D01*
X007150Y013230D01*
X006767Y013230D01*
X006681Y013216D01*
X006599Y013190D01*
X006522Y013150D01*
X006452Y013100D01*
X006390Y013038D01*
X006340Y012968D01*
X006300Y012891D01*
X006274Y012809D01*
X006260Y012723D01*
X006260Y012710D01*
X007150Y012710D01*
X007150Y012650D01*
X007210Y012650D01*
X007210Y012710D01*
X007210Y012650D02*
X008100Y012650D01*
X008100Y012637D01*
X008086Y012551D01*
X008060Y012469D01*
X008020Y012392D01*
X007970Y012322D01*
X007908Y012260D01*
X007838Y012210D01*
X007761Y012170D01*
X007679Y012144D01*
X007593Y012130D01*
X007210Y012130D01*
X007210Y012650D01*
X007150Y012650D02*
X007150Y012130D01*
X006767Y012130D01*
X006681Y012144D01*
X006599Y012170D01*
X006522Y012210D01*
X006452Y012260D01*
X006390Y012322D01*
X006340Y012392D01*
X006300Y012469D01*
X006274Y012551D01*
X006260Y012637D01*
X006260Y012650D01*
X007150Y012650D01*
X007150Y012702D02*
X005050Y012702D01*
X005050Y012860D02*
X006290Y012860D01*
X006376Y013019D02*
X005034Y013019D01*
X004992Y013177D02*
X006574Y013177D01*
X007150Y013177D02*
X007210Y013177D01*
X007210Y013019D02*
X007150Y013019D01*
X007150Y012860D02*
X007210Y012860D01*
X007210Y012543D02*
X007150Y012543D01*
X007150Y012385D02*
X007210Y012385D01*
X007210Y012226D02*
X007150Y012226D01*
X006499Y012226D02*
X005003Y012226D01*
X004961Y012068D02*
X021134Y012068D01*
X021120Y012054D02*
X021020Y011811D01*
X021020Y011549D01*
X021120Y011306D01*
X021306Y011120D01*
X021549Y011020D01*
X021811Y011020D01*
X022054Y011120D01*
X022240Y011306D01*
X022340Y011549D01*
X022340Y011811D01*
X022240Y012054D01*
X022054Y012240D01*
X021811Y012340D01*
X021549Y012340D01*
X021306Y012240D01*
X021120Y012054D01*
X021060Y011909D02*
X004918Y011909D01*
X004841Y011751D02*
X021020Y011751D01*
X021020Y011592D02*
X004750Y011592D01*
X004658Y011434D02*
X021068Y011434D01*
X021152Y011275D02*
X004523Y011275D01*
X004365Y011117D02*
X021316Y011117D01*
X022044Y011117D02*
X028816Y011117D01*
X028806Y011120D02*
X029049Y011020D01*
X029311Y011020D01*
X029554Y011120D01*
X029740Y011306D01*
X029840Y011549D01*
X029840Y011811D01*
X029740Y012054D01*
X029554Y012240D01*
X029311Y012340D01*
X029049Y012340D01*
X028806Y012240D01*
X028620Y012054D01*
X028520Y011811D01*
X028520Y011549D01*
X028620Y011306D01*
X028806Y011120D01*
X028652Y011275D02*
X022208Y011275D01*
X022292Y011434D02*
X028568Y011434D01*
X028520Y011592D02*
X022340Y011592D01*
X022340Y011751D02*
X028520Y011751D01*
X028560Y011909D02*
X022300Y011909D01*
X022226Y012068D02*
X028634Y012068D01*
X028793Y012226D02*
X022067Y012226D01*
X021293Y012226D02*
X007861Y012226D01*
X008015Y012385D02*
X033070Y012385D01*
X033070Y012543D02*
X008084Y012543D01*
X008070Y012860D02*
X012378Y012860D01*
X012498Y012740D02*
X012240Y012998D01*
X012240Y013180D01*
X012680Y013180D01*
X012680Y013180D01*
X012680Y013620D01*
X012862Y013620D01*
X013120Y013362D01*
X013120Y013180D01*
X012680Y013180D01*
X012680Y013180D01*
X012680Y013180D01*
X012680Y013620D01*
X012498Y013620D01*
X012240Y013362D01*
X012240Y013180D01*
X012680Y013180D01*
X013120Y013180D01*
X013120Y012998D01*
X012862Y012740D01*
X012680Y012740D01*
X012680Y013180D01*
X012680Y013180D01*
X012680Y012740D01*
X012498Y012740D01*
X012680Y012860D02*
X012680Y012860D01*
X012680Y013019D02*
X012680Y013019D01*
X012680Y013177D02*
X012680Y013177D01*
X012680Y013336D02*
X012680Y013336D01*
X012680Y013494D02*
X012680Y013494D01*
X012988Y013494D02*
X013900Y013494D01*
X014006Y013600D02*
X013760Y013354D01*
X013760Y013006D01*
X014006Y012760D01*
X014354Y012760D01*
X014600Y013006D01*
X014600Y013354D01*
X014354Y013600D01*
X014006Y013600D01*
X013760Y013336D02*
X013120Y013336D01*
X013120Y013177D02*
X013760Y013177D01*
X013760Y013019D02*
X013120Y013019D01*
X012982Y012860D02*
X013906Y012860D01*
X014454Y012860D02*
X015406Y012860D01*
X015506Y012760D02*
X015854Y012760D01*
X016100Y013006D01*
X016100Y013354D01*
X015854Y013600D01*
X015506Y013600D01*
X015260Y013354D01*
X015260Y013006D01*
X015506Y012760D01*
X015260Y013019D02*
X014600Y013019D01*
X014600Y013177D02*
X015260Y013177D01*
X015260Y013336D02*
X014600Y013336D01*
X014460Y013494D02*
X015400Y013494D01*
X015960Y013494D02*
X016872Y013494D01*
X016740Y013336D02*
X016100Y013336D01*
X016100Y013177D02*
X016740Y013177D01*
X016740Y013019D02*
X016100Y013019D01*
X015954Y012860D02*
X016878Y012860D01*
X017620Y013019D02*
X033070Y013019D01*
X033070Y013177D02*
X017620Y013177D01*
X017620Y013336D02*
X033070Y013336D01*
X033070Y012226D02*
X029567Y012226D01*
X029726Y012068D02*
X033070Y012068D01*
X033070Y011909D02*
X029800Y011909D01*
X029840Y011751D02*
X033070Y011751D01*
X033070Y011592D02*
X029840Y011592D01*
X029792Y011434D02*
X033070Y011434D01*
X033070Y011275D02*
X029708Y011275D01*
X029544Y011117D02*
X033070Y011117D01*
X033070Y010958D02*
X004187Y010958D01*
X003913Y010800D02*
X033070Y010800D01*
X033070Y010641D02*
X003511Y010641D01*
X002349Y010641D02*
X000660Y010641D01*
X000660Y010483D02*
X009389Y010483D01*
X009506Y010600D02*
X009260Y010354D01*
X009260Y010006D01*
X009506Y009760D01*
X009854Y009760D01*
X010100Y010006D01*
X010100Y010354D01*
X009854Y010600D01*
X009506Y010600D01*
X009260Y010324D02*
X000660Y010324D01*
X000660Y010166D02*
X009260Y010166D01*
X009260Y010007D02*
X000660Y010007D01*
X000660Y009849D02*
X009418Y009849D01*
X009506Y009600D02*
X009260Y009354D01*
X009260Y009006D01*
X009506Y008760D01*
X009854Y008760D01*
X010100Y009006D01*
X010100Y009354D01*
X009854Y009600D01*
X009506Y009600D01*
X009438Y009532D02*
X000660Y009532D01*
X000660Y009690D02*
X033070Y009690D01*
X033070Y009532D02*
X031279Y009532D01*
X031241Y009570D02*
X031370Y009441D01*
X031440Y009271D01*
X031440Y009088D01*
X031370Y008919D01*
X031241Y008790D01*
X031071Y008720D01*
X030288Y008720D01*
X030119Y008790D01*
X029990Y008919D01*
X029920Y009088D01*
X029920Y009271D01*
X029990Y009441D01*
X030119Y009570D01*
X030288Y009640D01*
X031071Y009640D01*
X031241Y009570D01*
X031398Y009373D02*
X033070Y009373D01*
X033070Y009215D02*
X031440Y009215D01*
X031427Y009056D02*
X033070Y009056D01*
X033070Y008898D02*
X031348Y008898D01*
X031117Y008739D02*
X033070Y008739D01*
X033070Y008581D02*
X031215Y008581D01*
X031241Y008570D02*
X031071Y008640D01*
X030288Y008640D01*
X030119Y008570D01*
X029990Y008441D01*
X029920Y008271D01*
X029920Y008088D01*
X029990Y007919D01*
X030119Y007790D01*
X030288Y007720D01*
X031071Y007720D01*
X031241Y007790D01*
X031370Y007919D01*
X031440Y008088D01*
X031440Y008271D01*
X031370Y008441D01*
X031241Y008570D01*
X031378Y008422D02*
X033070Y008422D01*
X033070Y008264D02*
X031440Y008264D01*
X031440Y008105D02*
X033070Y008105D01*
X033070Y007947D02*
X031381Y007947D01*
X031236Y007788D02*
X033070Y007788D01*
X033070Y007630D02*
X031097Y007630D01*
X031071Y007640D02*
X030288Y007640D01*
X030119Y007570D01*
X029990Y007441D01*
X029920Y007271D01*
X029920Y007088D01*
X029990Y006919D01*
X030119Y006790D01*
X030288Y006720D01*
X031071Y006720D01*
X031241Y006790D01*
X031370Y006919D01*
X031440Y007088D01*
X031440Y007271D01*
X031370Y007441D01*
X031241Y007570D01*
X031071Y007640D01*
X031340Y007471D02*
X033070Y007471D01*
X033070Y007313D02*
X031423Y007313D01*
X031440Y007154D02*
X033070Y007154D01*
X033070Y006996D02*
X031401Y006996D01*
X031288Y006837D02*
X033070Y006837D01*
X033070Y006679D02*
X004430Y006679D01*
X004271Y006837D02*
X016929Y006837D01*
X017006Y006760D02*
X016760Y007006D01*
X016760Y007354D01*
X017006Y007600D01*
X017354Y007600D01*
X017600Y007354D01*
X017600Y007006D01*
X017354Y006760D01*
X017006Y006760D01*
X016771Y006996D02*
X004025Y006996D01*
X004232Y006876D02*
X003748Y007156D01*
X003209Y007300D01*
X002651Y007300D01*
X002112Y007156D01*
X001628Y006876D01*
X001234Y006482D01*
X000954Y005998D01*
X000810Y005459D01*
X000810Y004901D01*
X000954Y004362D01*
X001234Y003878D01*
X001628Y003484D01*
X002112Y003204D01*
X002651Y003060D01*
X003209Y003060D01*
X003748Y003204D01*
X004232Y003484D01*
X004626Y003878D01*
X004906Y004362D01*
X005050Y004901D01*
X005050Y005459D01*
X004906Y005998D01*
X004626Y006482D01*
X004232Y006876D01*
X004588Y006520D02*
X033070Y006520D01*
X033070Y006362D02*
X004696Y006362D01*
X004787Y006203D02*
X033070Y006203D01*
X033070Y006045D02*
X004879Y006045D01*
X004936Y005886D02*
X033070Y005886D01*
X033070Y005728D02*
X004978Y005728D01*
X005021Y005569D02*
X006449Y005569D01*
X006510Y005629D02*
X006361Y005480D01*
X006280Y005285D01*
X006280Y005075D01*
X006361Y004880D01*
X006510Y004731D01*
X006705Y004650D01*
X007655Y004650D01*
X007850Y004731D01*
X007999Y004880D01*
X008080Y005075D01*
X008080Y005285D01*
X007999Y005480D01*
X007850Y005629D01*
X007655Y005710D01*
X006705Y005710D01*
X006510Y005629D01*
X006332Y005411D02*
X005050Y005411D01*
X005050Y005252D02*
X006280Y005252D01*
X006280Y005094D02*
X005050Y005094D01*
X005050Y004935D02*
X006338Y004935D01*
X006464Y004777D02*
X005017Y004777D01*
X004974Y004618D02*
X014470Y004618D01*
X014405Y004591D02*
X014269Y004455D01*
X014195Y004276D01*
X014195Y004084D01*
X014269Y003905D01*
X014405Y003769D01*
X014584Y003695D01*
X014776Y003695D01*
X014955Y003769D01*
X015091Y003905D01*
X015165Y004084D01*
X015165Y004276D01*
X015091Y004455D01*
X014955Y004591D01*
X014776Y004665D01*
X014584Y004665D01*
X014405Y004591D01*
X014274Y004460D02*
X004932Y004460D01*
X004870Y004301D02*
X014205Y004301D01*
X014195Y004143D02*
X004779Y004143D01*
X004687Y003984D02*
X014236Y003984D01*
X014349Y003826D02*
X004574Y003826D01*
X004415Y003667D02*
X014545Y003667D01*
X014562Y003673D02*
X014486Y003648D01*
X014415Y003612D01*
X014351Y003565D01*
X014295Y003509D01*
X014248Y003445D01*
X014212Y003374D01*
X014187Y003298D01*
X014175Y003220D01*
X014175Y003180D01*
X014680Y003180D01*
X014680Y003180D01*
X014680Y003685D01*
X014720Y003685D01*
X014798Y003673D01*
X014874Y003648D01*
X014945Y003612D01*
X015009Y003565D01*
X015065Y003509D01*
X015112Y003445D01*
X015148Y003374D01*
X015173Y003298D01*
X015185Y003220D01*
X015185Y003180D01*
X014680Y003180D01*
X014680Y003180D01*
X014680Y003180D01*
X014680Y003685D01*
X014640Y003685D01*
X014562Y003673D01*
X014680Y003667D02*
X014680Y003667D01*
X014815Y003667D02*
X033070Y003667D01*
X033070Y003509D02*
X017474Y003509D01*
X017362Y003620D02*
X017180Y003620D01*
X017180Y003180D01*
X017180Y003180D01*
X017620Y003180D01*
X017620Y003362D01*
X017362Y003620D01*
X017180Y003620D02*
X016998Y003620D01*
X016740Y003362D01*
X016740Y003180D01*
X017180Y003180D01*
X017180Y003180D01*
X017180Y003180D01*
X017180Y003620D01*
X017180Y003509D02*
X017180Y003509D01*
X017180Y003350D02*
X017180Y003350D01*
X017180Y003192D02*
X017180Y003192D01*
X017180Y003180D02*
X016740Y003180D01*
X016740Y002998D01*
X016998Y002740D01*
X017180Y002740D01*
X017362Y002740D01*
X017620Y002998D01*
X017620Y003180D01*
X017180Y003180D01*
X017180Y002740D01*
X017180Y003180D01*
X017180Y003180D01*
X017180Y003033D02*
X017180Y003033D01*
X017180Y002875D02*
X017180Y002875D01*
X017497Y002875D02*
X033070Y002875D01*
X033070Y003033D02*
X017620Y003033D01*
X017620Y003192D02*
X033070Y003192D01*
X033070Y003350D02*
X017620Y003350D01*
X016886Y003509D02*
X015066Y003509D01*
X015156Y003350D02*
X016740Y003350D01*
X016740Y003192D02*
X015185Y003192D01*
X015185Y003180D02*
X014680Y003180D01*
X014680Y002675D01*
X014720Y002675D01*
X014798Y002687D01*
X014874Y002712D01*
X014945Y002748D01*
X015009Y002795D01*
X015065Y002851D01*
X015112Y002915D01*
X015148Y002986D01*
X015173Y003062D01*
X015185Y003140D01*
X015185Y003180D01*
X015163Y003033D02*
X016740Y003033D01*
X016863Y002875D02*
X015082Y002875D01*
X014882Y002716D02*
X031758Y002716D01*
X031488Y002558D02*
X002372Y002558D01*
X002531Y002399D02*
X031329Y002399D01*
X031222Y002241D02*
X002638Y002241D01*
X002721Y002082D02*
X031139Y002082D01*
X031096Y001924D02*
X002764Y001924D01*
X002790Y001765D02*
X031070Y001765D01*
X031070Y001607D02*
X002790Y001607D01*
X002767Y001448D02*
X031093Y001448D01*
X031136Y001290D02*
X002724Y001290D01*
X002645Y001131D02*
X031215Y001131D01*
X031318Y000973D02*
X002542Y000973D01*
X002384Y000814D02*
X031476Y000814D01*
X033031Y002399D02*
X033070Y002399D01*
X033070Y002558D02*
X032872Y002558D01*
X033070Y002716D02*
X032602Y002716D01*
X033070Y003826D02*
X015011Y003826D01*
X015124Y003984D02*
X033070Y003984D01*
X033070Y004143D02*
X029576Y004143D01*
X029554Y004120D02*
X029740Y004306D01*
X029840Y004549D01*
X029840Y004811D01*
X029740Y005054D01*
X029554Y005240D01*
X029311Y005340D01*
X029049Y005340D01*
X028806Y005240D01*
X028620Y005054D01*
X028520Y004811D01*
X028520Y004549D01*
X028620Y004306D01*
X028806Y004120D01*
X029049Y004020D01*
X029311Y004020D01*
X029554Y004120D01*
X029734Y004301D02*
X033070Y004301D01*
X033070Y004460D02*
X029803Y004460D01*
X029840Y004618D02*
X033070Y004618D01*
X033070Y004777D02*
X029840Y004777D01*
X029789Y004935D02*
X033070Y004935D01*
X033070Y005094D02*
X029700Y005094D01*
X029524Y005252D02*
X033070Y005252D01*
X033070Y005411D02*
X015039Y005411D01*
X015036Y005418D02*
X015100Y005264D01*
X015100Y005096D01*
X015036Y004942D01*
X014918Y004824D01*
X014764Y004760D01*
X014596Y004760D01*
X014442Y004824D01*
X014324Y004942D01*
X014260Y005096D01*
X014260Y005264D01*
X014324Y005418D01*
X014442Y005536D01*
X014596Y005600D01*
X014764Y005600D01*
X014918Y005536D01*
X015036Y005418D01*
X015100Y005252D02*
X021336Y005252D01*
X021306Y005240D02*
X021549Y005340D01*
X021811Y005340D01*
X022054Y005240D01*
X022240Y005054D01*
X022340Y004811D01*
X022340Y004549D01*
X022240Y004306D01*
X022054Y004120D01*
X021811Y004020D01*
X021549Y004020D01*
X021306Y004120D01*
X021120Y004306D01*
X021020Y004549D01*
X021020Y004811D01*
X021120Y005054D01*
X021306Y005240D01*
X021160Y005094D02*
X015099Y005094D01*
X015029Y004935D02*
X021071Y004935D01*
X021020Y004777D02*
X014803Y004777D01*
X014890Y004618D02*
X021020Y004618D01*
X021057Y004460D02*
X015086Y004460D01*
X015155Y004301D02*
X021126Y004301D01*
X021284Y004143D02*
X015165Y004143D01*
X014680Y003509D02*
X014680Y003509D01*
X014680Y003350D02*
X014680Y003350D01*
X014680Y003192D02*
X014680Y003192D01*
X014680Y003180D02*
X014175Y003180D01*
X014175Y003140D01*
X014187Y003062D01*
X014212Y002986D01*
X014248Y002915D01*
X014295Y002851D01*
X014351Y002795D01*
X014415Y002748D01*
X014486Y002712D01*
X014562Y002687D01*
X014640Y002675D01*
X014680Y002675D01*
X014680Y003180D01*
X014680Y003180D01*
X014680Y003033D02*
X014680Y003033D01*
X014680Y002875D02*
X014680Y002875D01*
X014680Y002716D02*
X014680Y002716D01*
X014478Y002716D02*
X002102Y002716D01*
X002160Y003192D02*
X000660Y003192D01*
X000660Y003350D02*
X001860Y003350D01*
X001603Y003509D02*
X000660Y003509D01*
X000660Y003667D02*
X001445Y003667D01*
X001286Y003826D02*
X000660Y003826D01*
X000660Y003984D02*
X001173Y003984D01*
X001081Y004143D02*
X000660Y004143D01*
X000660Y004301D02*
X000990Y004301D01*
X000928Y004460D02*
X000660Y004460D01*
X000660Y004618D02*
X000886Y004618D01*
X000843Y004777D02*
X000660Y004777D01*
X000660Y004935D02*
X000810Y004935D01*
X000810Y005094D02*
X000660Y005094D01*
X000660Y005252D02*
X000810Y005252D01*
X000810Y005411D02*
X000660Y005411D01*
X000660Y005569D02*
X000839Y005569D01*
X000882Y005728D02*
X000660Y005728D01*
X000660Y005886D02*
X000924Y005886D01*
X000981Y006045D02*
X000660Y006045D01*
X000660Y006203D02*
X001073Y006203D01*
X001164Y006362D02*
X000660Y006362D01*
X000660Y006520D02*
X001272Y006520D01*
X001430Y006679D02*
X000660Y006679D01*
X000660Y006837D02*
X001589Y006837D01*
X001835Y006996D02*
X000660Y006996D01*
X000660Y007154D02*
X002109Y007154D01*
X000660Y007313D02*
X016760Y007313D01*
X016760Y007154D02*
X003751Y007154D01*
X000660Y007471D02*
X016877Y007471D01*
X017483Y007471D02*
X022520Y007471D01*
X022490Y007441D02*
X022420Y007271D01*
X022420Y007088D01*
X022490Y006919D01*
X022619Y006790D01*
X022788Y006720D01*
X023571Y006720D01*
X023741Y006790D01*
X023870Y006919D01*
X023940Y007088D01*
X023940Y007271D01*
X023870Y007441D01*
X023741Y007570D01*
X023571Y007640D01*
X022788Y007640D01*
X022619Y007570D01*
X022490Y007441D01*
X022437Y007313D02*
X017600Y007313D01*
X017600Y007154D02*
X022420Y007154D01*
X022459Y006996D02*
X017589Y006996D01*
X017431Y006837D02*
X022572Y006837D01*
X022763Y007630D02*
X000660Y007630D01*
X000660Y007788D02*
X011529Y007788D01*
X011596Y007760D02*
X011764Y007760D01*
X011918Y007824D01*
X012036Y007942D01*
X012100Y008096D01*
X012100Y008264D01*
X012036Y008418D01*
X011918Y008536D01*
X011764Y008600D01*
X011596Y008600D01*
X011442Y008536D01*
X011324Y008418D01*
X011260Y008264D01*
X011260Y008096D01*
X011324Y007942D01*
X011442Y007824D01*
X011596Y007760D01*
X011831Y007788D02*
X012529Y007788D01*
X012596Y007760D02*
X012764Y007760D01*
X012918Y007824D01*
X013036Y007942D01*
X013100Y008096D01*
X013100Y008264D01*
X013036Y008418D01*
X012918Y008536D01*
X012764Y008600D01*
X012596Y008600D01*
X012442Y008536D01*
X012324Y008418D01*
X012260Y008264D01*
X012260Y008096D01*
X012324Y007942D01*
X012442Y007824D01*
X012596Y007760D01*
X012831Y007788D02*
X013529Y007788D01*
X013596Y007760D02*
X013442Y007824D01*
X013324Y007942D01*
X013260Y008096D01*
X013260Y008264D01*
X013324Y008418D01*
X013442Y008536D01*
X013596Y008600D01*
X013764Y008600D01*
X013918Y008536D01*
X014036Y008418D01*
X014100Y008264D01*
X014100Y008096D01*
X014036Y007942D01*
X013918Y007824D01*
X013764Y007760D01*
X013596Y007760D01*
X013831Y007788D02*
X014529Y007788D01*
X014596Y007760D02*
X014442Y007824D01*
X014324Y007942D01*
X014260Y008096D01*
X014260Y008264D01*
X014324Y008418D01*
X014442Y008536D01*
X014596Y008600D01*
X014764Y008600D01*
X014918Y008536D01*
X015036Y008418D01*
X015100Y008264D01*
X015100Y008096D01*
X015036Y007942D01*
X014918Y007824D01*
X014764Y007760D01*
X014596Y007760D01*
X014831Y007788D02*
X022624Y007788D01*
X022619Y007790D02*
X022788Y007720D01*
X023571Y007720D01*
X023741Y007790D01*
X023870Y007919D01*
X023940Y008088D01*
X023940Y008271D01*
X023870Y008441D01*
X023741Y008570D01*
X023571Y008640D01*
X022788Y008640D01*
X022619Y008570D01*
X022490Y008441D01*
X022420Y008271D01*
X022420Y008088D01*
X022490Y007919D01*
X022619Y007790D01*
X022479Y007947D02*
X015038Y007947D01*
X015100Y008105D02*
X022420Y008105D01*
X022420Y008264D02*
X015100Y008264D01*
X015032Y008422D02*
X022482Y008422D01*
X022645Y008581D02*
X014811Y008581D01*
X014549Y008581D02*
X013811Y008581D01*
X013549Y008581D02*
X012811Y008581D01*
X012854Y008760D02*
X012506Y008760D01*
X012260Y009006D01*
X012260Y009354D01*
X012506Y009600D01*
X012854Y009600D01*
X013100Y009354D01*
X013100Y009006D01*
X012854Y008760D01*
X012991Y008898D02*
X013869Y008898D01*
X013760Y009006D02*
X014006Y008760D01*
X014354Y008760D01*
X014600Y009006D01*
X014600Y009354D01*
X014354Y009600D01*
X014006Y009600D01*
X013760Y009354D01*
X013760Y009006D01*
X013760Y009056D02*
X013100Y009056D01*
X013100Y009215D02*
X013760Y009215D01*
X013779Y009373D02*
X013081Y009373D01*
X012922Y009532D02*
X013938Y009532D01*
X014422Y009532D02*
X015438Y009532D01*
X015506Y009600D02*
X015260Y009354D01*
X015260Y009006D01*
X015506Y008760D01*
X015854Y008760D01*
X016100Y009006D01*
X016100Y009354D01*
X015854Y009600D01*
X015506Y009600D01*
X015279Y009373D02*
X014581Y009373D01*
X014600Y009215D02*
X015260Y009215D01*
X015260Y009056D02*
X014600Y009056D01*
X014491Y008898D02*
X015369Y008898D01*
X015991Y008898D02*
X016869Y008898D01*
X016760Y009006D02*
X017006Y008760D01*
X017354Y008760D01*
X017600Y009006D01*
X017600Y009354D01*
X017354Y009600D01*
X017006Y009600D01*
X016760Y009354D01*
X016760Y009006D01*
X016760Y009056D02*
X016100Y009056D01*
X016100Y009215D02*
X016760Y009215D01*
X016779Y009373D02*
X016081Y009373D01*
X015922Y009532D02*
X016938Y009532D01*
X017422Y009532D02*
X022581Y009532D01*
X022619Y009570D02*
X022490Y009441D01*
X022420Y009271D01*
X022420Y009088D01*
X022490Y008919D01*
X022619Y008790D01*
X022788Y008720D01*
X023571Y008720D01*
X023741Y008790D01*
X023870Y008919D01*
X023940Y009088D01*
X023940Y009271D01*
X023870Y009441D01*
X023741Y009570D01*
X023571Y009640D01*
X022788Y009640D01*
X022619Y009570D01*
X022462Y009373D02*
X017581Y009373D01*
X017600Y009215D02*
X022420Y009215D01*
X022433Y009056D02*
X017600Y009056D01*
X017491Y008898D02*
X022512Y008898D01*
X022743Y008739D02*
X011883Y008739D01*
X011955Y008769D02*
X012091Y008905D01*
X012165Y009084D01*
X012165Y009276D01*
X012091Y009455D01*
X011955Y009591D01*
X011776Y009665D01*
X011584Y009665D01*
X011405Y009591D01*
X011269Y009455D01*
X011195Y009276D01*
X011195Y009084D01*
X011269Y008905D01*
X011405Y008769D01*
X011584Y008695D01*
X011776Y008695D01*
X011955Y008769D01*
X012083Y008898D02*
X012369Y008898D01*
X012260Y009056D02*
X012154Y009056D01*
X012165Y009215D02*
X012260Y009215D01*
X012279Y009373D02*
X012125Y009373D01*
X012014Y009532D02*
X012438Y009532D01*
X012549Y008581D02*
X011811Y008581D01*
X011549Y008581D02*
X000660Y008581D01*
X000660Y008739D02*
X010433Y008739D01*
X010415Y008748D02*
X010486Y008712D01*
X010562Y008687D01*
X010640Y008675D01*
X010680Y008675D01*
X010720Y008675D01*
X010798Y008687D01*
X010874Y008712D01*
X010945Y008748D01*
X011009Y008795D01*
X011065Y008851D01*
X011112Y008915D01*
X011148Y008986D01*
X011173Y009062D01*
X011185Y009140D01*
X011185Y009180D01*
X011185Y009220D01*
X011173Y009298D01*
X011148Y009374D01*
X011112Y009445D01*
X011065Y009509D01*
X011009Y009565D01*
X010945Y009612D01*
X010874Y009648D01*
X010798Y009673D01*
X010720Y009685D01*
X010680Y009685D01*
X010680Y009180D01*
X011185Y009180D01*
X010680Y009180D01*
X010680Y009180D01*
X010680Y009180D01*
X010680Y008675D01*
X010680Y009180D01*
X010680Y009180D01*
X010680Y009180D01*
X010175Y009180D01*
X010175Y009220D01*
X010187Y009298D01*
X010212Y009374D01*
X010248Y009445D01*
X010295Y009509D01*
X010351Y009565D01*
X010415Y009612D01*
X010486Y009648D01*
X010562Y009673D01*
X010640Y009685D01*
X010680Y009685D01*
X010680Y009180D01*
X010175Y009180D01*
X010175Y009140D01*
X010187Y009062D01*
X010212Y008986D01*
X010248Y008915D01*
X010295Y008851D01*
X010351Y008795D01*
X010415Y008748D01*
X010261Y008898D02*
X009991Y008898D01*
X010100Y009056D02*
X010189Y009056D01*
X010175Y009215D02*
X010100Y009215D01*
X010081Y009373D02*
X010212Y009373D01*
X010317Y009532D02*
X009922Y009532D01*
X009942Y009849D02*
X033070Y009849D01*
X033070Y010007D02*
X010100Y010007D01*
X010100Y010166D02*
X033070Y010166D01*
X033070Y010324D02*
X010100Y010324D01*
X009971Y010483D02*
X033070Y010483D01*
X030243Y008739D02*
X023617Y008739D01*
X023715Y008581D02*
X030145Y008581D01*
X029982Y008422D02*
X023878Y008422D01*
X023940Y008264D02*
X029920Y008264D01*
X029920Y008105D02*
X023940Y008105D01*
X023881Y007947D02*
X029979Y007947D01*
X030124Y007788D02*
X023736Y007788D01*
X023597Y007630D02*
X030263Y007630D01*
X030020Y007471D02*
X023840Y007471D01*
X023923Y007313D02*
X029937Y007313D01*
X029920Y007154D02*
X023940Y007154D01*
X023901Y006996D02*
X029959Y006996D01*
X030072Y006837D02*
X023788Y006837D01*
X022024Y005252D02*
X028836Y005252D01*
X028660Y005094D02*
X022200Y005094D01*
X022289Y004935D02*
X028571Y004935D01*
X028520Y004777D02*
X022340Y004777D01*
X022340Y004618D02*
X028520Y004618D01*
X028557Y004460D02*
X022303Y004460D01*
X022234Y004301D02*
X028626Y004301D01*
X028784Y004143D02*
X022076Y004143D01*
X023848Y008898D02*
X030012Y008898D01*
X029933Y009056D02*
X023927Y009056D01*
X023940Y009215D02*
X029920Y009215D01*
X029962Y009373D02*
X023898Y009373D01*
X023779Y009532D02*
X030081Y009532D01*
X033070Y005569D02*
X014838Y005569D01*
X014522Y005569D02*
X013838Y005569D01*
X013764Y005600D02*
X013596Y005600D01*
X013442Y005536D01*
X013324Y005418D01*
X013260Y005264D01*
X013260Y005096D01*
X013324Y004942D01*
X013442Y004824D01*
X013596Y004760D01*
X013764Y004760D01*
X013918Y004824D01*
X014036Y004942D01*
X014100Y005096D01*
X014100Y005264D01*
X014036Y005418D01*
X013918Y005536D01*
X013764Y005600D01*
X013522Y005569D02*
X012838Y005569D01*
X012764Y005600D02*
X012596Y005600D01*
X012442Y005536D01*
X012324Y005418D01*
X012260Y005264D01*
X012260Y005096D01*
X012324Y004942D01*
X012442Y004824D01*
X012596Y004760D01*
X012764Y004760D01*
X012918Y004824D01*
X013036Y004942D01*
X013100Y005096D01*
X013100Y005264D01*
X013036Y005418D01*
X012918Y005536D01*
X012764Y005600D01*
X012522Y005569D02*
X011838Y005569D01*
X011764Y005600D02*
X011596Y005600D01*
X011442Y005536D01*
X011324Y005418D01*
X011260Y005264D01*
X011260Y005096D01*
X011324Y004942D01*
X011442Y004824D01*
X011596Y004760D01*
X011764Y004760D01*
X011918Y004824D01*
X012036Y004942D01*
X012100Y005096D01*
X012100Y005264D01*
X012036Y005418D01*
X011918Y005536D01*
X011764Y005600D01*
X011522Y005569D02*
X009885Y005569D01*
X009854Y005600D02*
X009506Y005600D01*
X009260Y005354D01*
X009260Y005006D01*
X009506Y004760D01*
X009854Y004760D01*
X010100Y005006D01*
X010100Y005354D01*
X009854Y005600D01*
X010043Y005411D02*
X011321Y005411D01*
X011260Y005252D02*
X010100Y005252D01*
X010100Y005094D02*
X011261Y005094D01*
X011331Y004935D02*
X010029Y004935D01*
X009870Y004777D02*
X011557Y004777D01*
X011803Y004777D02*
X012557Y004777D01*
X012803Y004777D02*
X013557Y004777D01*
X013803Y004777D02*
X014557Y004777D01*
X014331Y004935D02*
X014029Y004935D01*
X014099Y005094D02*
X014261Y005094D01*
X014260Y005252D02*
X014100Y005252D01*
X014039Y005411D02*
X014321Y005411D01*
X013321Y005411D02*
X013039Y005411D01*
X013100Y005252D02*
X013260Y005252D01*
X013261Y005094D02*
X013099Y005094D01*
X013029Y004935D02*
X013331Y004935D01*
X012331Y004935D02*
X012029Y004935D01*
X012099Y005094D02*
X012261Y005094D01*
X012260Y005252D02*
X012100Y005252D01*
X012039Y005411D02*
X012321Y005411D01*
X014294Y003509D02*
X004257Y003509D01*
X004000Y003350D02*
X014204Y003350D01*
X014175Y003192D02*
X003700Y003192D01*
X001258Y002716D02*
X000660Y002716D01*
X000660Y002558D02*
X000988Y002558D01*
X000829Y002399D02*
X000660Y002399D01*
X000660Y002241D02*
X000722Y002241D01*
X000660Y002875D02*
X014278Y002875D01*
X014197Y003033D02*
X000660Y003033D01*
X000660Y007947D02*
X011322Y007947D01*
X011260Y008105D02*
X000660Y008105D01*
X000660Y008264D02*
X011260Y008264D01*
X011328Y008422D02*
X000660Y008422D01*
X000660Y008898D02*
X009369Y008898D01*
X009260Y009056D02*
X000660Y009056D01*
X000660Y009215D02*
X009260Y009215D01*
X009279Y009373D02*
X000660Y009373D01*
X000660Y010800D02*
X001947Y010800D01*
X001673Y010958D02*
X000660Y010958D01*
X000660Y011117D02*
X001495Y011117D01*
X001337Y011275D02*
X000660Y011275D01*
X000660Y011434D02*
X001202Y011434D01*
X001110Y011592D02*
X000660Y011592D01*
X000660Y011751D02*
X001019Y011751D01*
X000942Y011909D02*
X000660Y011909D01*
X000660Y012068D02*
X000899Y012068D01*
X000857Y012226D02*
X000660Y012226D01*
X000660Y012385D02*
X000814Y012385D01*
X000810Y012543D02*
X000660Y012543D01*
X000660Y012702D02*
X000810Y012702D01*
X000810Y012860D02*
X000660Y012860D01*
X000660Y013019D02*
X000826Y013019D01*
X000868Y013177D02*
X000660Y013177D01*
X000660Y013336D02*
X000911Y013336D01*
X000953Y013494D02*
X000660Y013494D01*
X000660Y013653D02*
X001044Y013653D01*
X001135Y013811D02*
X000660Y013811D01*
X000660Y013970D02*
X001227Y013970D01*
X001380Y014128D02*
X000660Y014128D01*
X000660Y014287D02*
X001538Y014287D01*
X001747Y014445D02*
X000660Y014445D01*
X000660Y014604D02*
X002022Y014604D01*
X002509Y014762D02*
X000660Y014762D01*
X000660Y015872D02*
X013352Y015872D01*
X013255Y016030D02*
X000660Y016030D01*
X000660Y016189D02*
X013230Y016189D01*
X013262Y016347D02*
X000660Y016347D01*
X000660Y016823D02*
X009845Y016823D01*
X009977Y016690D02*
X010383Y016690D01*
X010670Y016977D01*
X010670Y017383D01*
X010383Y017670D01*
X009977Y017670D01*
X009690Y017383D01*
X009690Y016977D01*
X009977Y016690D01*
X009690Y016981D02*
X000660Y016981D01*
X000660Y017140D02*
X009690Y017140D01*
X009690Y017298D02*
X000660Y017298D01*
X000660Y017457D02*
X009764Y017457D01*
X009922Y017615D02*
X000660Y017615D01*
X000660Y017774D02*
X013485Y017774D01*
X013296Y017932D02*
X000660Y017932D01*
X004113Y014445D02*
X009351Y014445D01*
X009260Y014287D02*
X004322Y014287D01*
X004480Y014128D02*
X009260Y014128D01*
X009297Y013970D02*
X004633Y013970D01*
X004907Y013494D02*
X012372Y013494D01*
X012240Y013336D02*
X004949Y013336D01*
X005050Y012543D02*
X006276Y012543D01*
X006345Y012385D02*
X005046Y012385D01*
X007786Y013177D02*
X012240Y013177D01*
X012240Y013019D02*
X007984Y013019D01*
X011196Y013811D02*
X011196Y013811D01*
X011196Y013970D02*
X011196Y013970D01*
X011196Y014128D02*
X011196Y014128D01*
X011196Y014180D02*
X011196Y014180D01*
X011196Y014287D02*
X011196Y014287D01*
X011196Y014445D02*
X011196Y014445D01*
X011196Y014604D02*
X011196Y014604D01*
X011472Y014604D02*
X012919Y014604D01*
X012749Y014445D02*
X011627Y014445D01*
X011690Y014287D02*
X012683Y014287D01*
X012679Y014128D02*
X011699Y014128D01*
X011655Y013970D02*
X012726Y013970D01*
X012847Y013811D02*
X011541Y013811D01*
X014008Y015872D02*
X014352Y015872D01*
X014299Y015925D02*
X014425Y015799D01*
X014590Y015730D01*
X014770Y015730D01*
X014935Y015799D01*
X015061Y015925D01*
X015130Y016090D01*
X015130Y016270D01*
X015061Y016435D01*
X014935Y016561D01*
X014770Y016630D01*
X014590Y016630D01*
X014425Y016561D01*
X014299Y016435D01*
X014230Y016270D01*
X014230Y016090D01*
X014299Y015925D01*
X014255Y016030D02*
X014105Y016030D01*
X014130Y016189D02*
X014230Y016189D01*
X014262Y016347D02*
X014098Y016347D01*
X013991Y016506D02*
X014369Y016506D01*
X013959Y016823D02*
X019401Y016823D01*
X019275Y016981D02*
X014085Y016981D01*
X014130Y017140D02*
X019230Y017140D01*
X019242Y017298D02*
X014118Y017298D01*
X014040Y017457D02*
X019320Y017457D01*
X018935Y016561D02*
X018770Y016630D01*
X018590Y016630D01*
X018425Y016561D01*
X018299Y016435D01*
X018230Y016270D01*
X018230Y016090D01*
X018299Y015925D01*
X018425Y015799D01*
X018590Y015730D01*
X018770Y015730D01*
X018935Y015799D01*
X019061Y015925D01*
X019130Y016090D01*
X019130Y016270D01*
X019061Y016435D01*
X018935Y016561D01*
X018991Y016506D02*
X019369Y016506D01*
X019262Y016347D02*
X019098Y016347D01*
X019130Y016189D02*
X019230Y016189D01*
X019255Y016030D02*
X019105Y016030D01*
X019008Y015872D02*
X019352Y015872D01*
X018352Y015872D02*
X018008Y015872D01*
X018061Y015925D02*
X018130Y016090D01*
X018130Y016270D01*
X018061Y016435D01*
X017935Y016561D01*
X017770Y016630D01*
X017590Y016630D01*
X017425Y016561D01*
X017299Y016435D01*
X017230Y016270D01*
X017230Y016090D01*
X017299Y015925D01*
X017425Y015799D01*
X017590Y015730D01*
X017770Y015730D01*
X017935Y015799D01*
X018061Y015925D01*
X018105Y016030D02*
X018255Y016030D01*
X018230Y016189D02*
X018130Y016189D01*
X018098Y016347D02*
X018262Y016347D01*
X018369Y016506D02*
X017991Y016506D01*
X017369Y016506D02*
X017019Y016506D01*
X017120Y016347D02*
X017262Y016347D01*
X017230Y016189D02*
X016695Y016189D01*
X016665Y016189D02*
X016130Y016189D01*
X016130Y016270D02*
X016130Y016090D01*
X016061Y015925D01*
X015935Y015799D01*
X015770Y015730D01*
X015590Y015730D01*
X015425Y015799D01*
X015299Y015925D01*
X015230Y016090D01*
X015230Y016270D01*
X015299Y016435D01*
X015425Y016561D01*
X015590Y016630D01*
X015770Y016630D01*
X015935Y016561D01*
X016061Y016435D01*
X016130Y016270D01*
X016098Y016347D02*
X016240Y016347D01*
X016341Y016506D02*
X015991Y016506D01*
X016105Y016030D02*
X016235Y016030D01*
X016324Y015872D02*
X016008Y015872D01*
X015352Y015872D02*
X015008Y015872D01*
X015105Y016030D02*
X015255Y016030D01*
X015230Y016189D02*
X015130Y016189D01*
X015098Y016347D02*
X015262Y016347D01*
X015369Y016506D02*
X014991Y016506D01*
X016665Y016506D02*
X016695Y016506D01*
X016695Y016347D02*
X016665Y016347D01*
X016665Y016030D02*
X016695Y016030D01*
X016695Y015872D02*
X016665Y015872D01*
X017036Y015872D02*
X017352Y015872D01*
X017255Y016030D02*
X017125Y016030D01*
X013341Y018883D02*
X004629Y018883D01*
X004721Y019042D02*
X013250Y019042D01*
X013230Y019200D02*
X004812Y019200D01*
X004904Y019359D02*
X013267Y019359D01*
X013381Y019517D02*
X004947Y019517D01*
X004990Y019676D02*
X006643Y019676D01*
X006705Y019650D02*
X006510Y019731D01*
X006361Y019880D01*
X006280Y020075D01*
X006280Y020285D01*
X006361Y020480D01*
X006510Y020629D01*
X006705Y020710D01*
X007655Y020710D01*
X007850Y020629D01*
X007999Y020480D01*
X008080Y020285D01*
X008080Y020075D01*
X007999Y019880D01*
X007850Y019731D01*
X007655Y019650D01*
X006705Y019650D01*
X006406Y019834D02*
X005032Y019834D01*
X005050Y019993D02*
X006314Y019993D01*
X006280Y020151D02*
X005050Y020151D01*
X005050Y020310D02*
X006290Y020310D01*
X006356Y020468D02*
X005048Y020468D01*
X005005Y020627D02*
X006507Y020627D01*
X007717Y019676D02*
X033070Y019676D01*
X033070Y019834D02*
X031059Y019834D01*
X031181Y019993D02*
X033070Y019993D01*
X033070Y020151D02*
X031240Y020151D01*
X031240Y020310D02*
X033070Y020310D01*
X033070Y020468D02*
X031195Y020468D01*
X031092Y020627D02*
X033070Y020627D01*
X033070Y020785D02*
X030844Y020785D01*
X031240Y021261D02*
X033070Y021261D01*
X033070Y021419D02*
X031240Y021419D01*
X031240Y021578D02*
X033070Y021578D01*
X033070Y021736D02*
X031240Y021736D01*
X031240Y021895D02*
X033070Y021895D01*
X033070Y022053D02*
X031240Y022053D01*
X031187Y022212D02*
X033070Y022212D01*
X033070Y022370D02*
X020088Y022370D01*
X020130Y022212D02*
X030173Y022212D01*
X030120Y022053D02*
X020114Y022053D01*
X020031Y021895D02*
X030120Y021895D01*
X030988Y023955D02*
X033070Y023955D01*
X033070Y023797D02*
X019930Y023797D01*
X019430Y023797D02*
X013930Y023797D01*
X014074Y023955D02*
X019286Y023955D01*
X019230Y024114D02*
X014130Y024114D01*
X014129Y024272D02*
X019231Y024272D01*
X019297Y024431D02*
X014063Y024431D01*
X013868Y024589D02*
X019492Y024589D01*
X019548Y024748D02*
X013812Y024748D01*
X014042Y024906D02*
X019318Y024906D01*
X019241Y025065D02*
X014119Y025065D01*
X014130Y025223D02*
X019230Y025223D01*
X019276Y025382D02*
X014084Y025382D01*
X013956Y025540D02*
X019404Y025540D01*
X019367Y025857D02*
X013993Y025857D01*
X014099Y026016D02*
X019261Y026016D01*
X019230Y026174D02*
X014130Y026174D01*
X014104Y026333D02*
X019256Y026333D01*
X019355Y026491D02*
X014005Y026491D01*
X013944Y026808D02*
X019416Y026808D01*
X019281Y026967D02*
X014079Y026967D01*
X014130Y027125D02*
X019230Y027125D01*
X019236Y027284D02*
X014124Y027284D01*
X014054Y027442D02*
X019306Y027442D01*
X020104Y026333D02*
X030440Y026333D01*
X030236Y026174D02*
X020130Y026174D01*
X020099Y026016D02*
X030152Y026016D01*
X030182Y024748D02*
X019812Y024748D01*
X019868Y024589D02*
X030116Y024589D01*
X031154Y024114D02*
X033070Y024114D01*
X033070Y024272D02*
X031233Y024272D01*
X033070Y026650D02*
X011403Y026650D01*
X011562Y026491D02*
X013355Y026491D01*
X013256Y026333D02*
X011670Y026333D01*
X011670Y026174D02*
X013230Y026174D01*
X013261Y026016D02*
X011670Y026016D01*
X010968Y025699D02*
X010392Y025699D01*
X010383Y025690D02*
X010670Y025977D01*
X010670Y026383D01*
X010383Y026670D01*
X009977Y026670D01*
X009690Y026383D01*
X009690Y025977D01*
X009977Y025690D01*
X010383Y025690D01*
X010550Y025857D02*
X010810Y025857D01*
X010690Y026016D02*
X010670Y026016D01*
X010670Y026174D02*
X010690Y026174D01*
X010690Y026333D02*
X010670Y026333D01*
X010562Y026491D02*
X010798Y026491D01*
X010957Y026650D02*
X010403Y026650D01*
X009957Y026650D02*
X008100Y026650D01*
X008100Y026506D02*
X007854Y026260D01*
X007506Y026260D01*
X007260Y026506D01*
X007260Y026854D01*
X007506Y027100D01*
X007854Y027100D01*
X008100Y026854D01*
X008100Y026506D01*
X008085Y026491D02*
X009798Y026491D01*
X009690Y026333D02*
X007927Y026333D01*
X007433Y026333D02*
X003955Y026333D01*
X003862Y026240D02*
X004120Y026498D01*
X004120Y026680D01*
X004120Y026862D01*
X003862Y027120D01*
X003680Y027120D01*
X003680Y026680D01*
X004120Y026680D01*
X003680Y026680D01*
X003680Y026680D01*
X003680Y026680D01*
X003680Y026240D01*
X003862Y026240D01*
X003680Y026240D02*
X003680Y026680D01*
X003680Y026680D01*
X003680Y026680D01*
X003240Y026680D01*
X003240Y026862D01*
X003498Y027120D01*
X003680Y027120D01*
X003680Y026680D01*
X003240Y026680D01*
X003240Y026498D01*
X003498Y026240D01*
X003680Y026240D01*
X003680Y026333D02*
X003680Y026333D01*
X003680Y026491D02*
X003680Y026491D01*
X003680Y026650D02*
X003680Y026650D01*
X003680Y026808D02*
X003680Y026808D01*
X003680Y026967D02*
X003680Y026967D01*
X004016Y026967D02*
X007373Y026967D01*
X007260Y026808D02*
X004120Y026808D01*
X004120Y026650D02*
X007260Y026650D01*
X007275Y026491D02*
X004113Y026491D01*
X003405Y026333D02*
X000660Y026333D01*
X000660Y026491D02*
X003247Y026491D01*
X003240Y026650D02*
X000660Y026650D01*
X000660Y026808D02*
X003240Y026808D01*
X003344Y026967D02*
X000660Y026967D01*
X000660Y027125D02*
X013230Y027125D01*
X013236Y027284D02*
X000660Y027284D01*
X000660Y027442D02*
X013306Y027442D01*
X013281Y026967D02*
X007987Y026967D01*
X008100Y026808D02*
X013416Y026808D01*
X009968Y025699D02*
X000660Y025699D01*
X000660Y025857D02*
X009810Y025857D01*
X009690Y026016D02*
X000660Y026016D01*
X000660Y026174D02*
X009690Y026174D01*
X009690Y023004D02*
X000660Y023004D01*
X000660Y022846D02*
X009821Y022846D01*
X009977Y020670D02*
X009690Y020383D01*
X009690Y019977D01*
X009977Y019690D01*
X010383Y019690D01*
X010670Y019977D01*
X010670Y020383D01*
X010383Y020670D01*
X009977Y020670D01*
X009934Y020627D02*
X007853Y020627D01*
X008004Y020468D02*
X009775Y020468D01*
X009690Y020310D02*
X008070Y020310D01*
X008080Y020151D02*
X009690Y020151D01*
X009690Y019993D02*
X008046Y019993D01*
X007954Y019834D02*
X009833Y019834D01*
X010527Y019834D02*
X010833Y019834D01*
X010690Y019977D02*
X010977Y019690D01*
X011383Y019690D01*
X011670Y019977D01*
X011670Y020383D01*
X011383Y020670D01*
X010977Y020670D01*
X010690Y020383D01*
X010690Y019977D01*
X010690Y019993D02*
X010670Y019993D01*
X010670Y020151D02*
X010690Y020151D01*
X010690Y020310D02*
X010670Y020310D01*
X010585Y020468D02*
X010775Y020468D01*
X010934Y020627D02*
X010426Y020627D01*
X011426Y020627D02*
X013582Y020627D01*
X013458Y020785D02*
X004963Y020785D01*
X004920Y020944D02*
X013291Y020944D01*
X013230Y021102D02*
X004846Y021102D01*
X004754Y021261D02*
X013230Y021261D01*
X013292Y021419D02*
X004663Y021419D01*
X004531Y021578D02*
X013464Y021578D01*
X013576Y021736D02*
X004372Y021736D01*
X004200Y021895D02*
X013329Y021895D01*
X013246Y022053D02*
X003926Y022053D01*
X003539Y022212D02*
X013230Y022212D01*
X013968Y022529D02*
X019392Y022529D01*
X019272Y022370D02*
X014088Y022370D01*
X014130Y022212D02*
X019230Y022212D01*
X019246Y022053D02*
X014114Y022053D01*
X014031Y021895D02*
X019329Y021895D01*
X019378Y022846D02*
X013982Y022846D01*
X014094Y023004D02*
X019266Y023004D01*
X019230Y023163D02*
X014130Y023163D01*
X014109Y023321D02*
X019251Y023321D01*
X019343Y023480D02*
X014017Y023480D01*
X013332Y020468D02*
X011585Y020468D01*
X011670Y020310D02*
X013247Y020310D01*
X013230Y020151D02*
X011670Y020151D01*
X011670Y019993D02*
X013271Y019993D01*
X013390Y019834D02*
X011527Y019834D01*
X010922Y017615D02*
X010438Y017615D01*
X010596Y017457D02*
X010764Y017457D01*
X010690Y017298D02*
X010670Y017298D01*
X010670Y017140D02*
X010690Y017140D01*
X010690Y016981D02*
X010670Y016981D01*
X010515Y016823D02*
X010845Y016823D01*
X010680Y009532D02*
X010680Y009532D01*
X010680Y009373D02*
X010680Y009373D01*
X010680Y009215D02*
X010680Y009215D01*
X010680Y009056D02*
X010680Y009056D01*
X010680Y008898D02*
X010680Y008898D01*
X010680Y008739D02*
X010680Y008739D01*
X010927Y008739D02*
X011477Y008739D01*
X011277Y008898D02*
X011099Y008898D01*
X011171Y009056D02*
X011206Y009056D01*
X011195Y009215D02*
X011185Y009215D01*
X011148Y009373D02*
X011235Y009373D01*
X011346Y009532D02*
X011043Y009532D01*
X012032Y008422D02*
X012328Y008422D01*
X012260Y008264D02*
X012100Y008264D01*
X012100Y008105D02*
X012260Y008105D01*
X012322Y007947D02*
X012038Y007947D01*
X013038Y007947D02*
X013322Y007947D01*
X013260Y008105D02*
X013100Y008105D01*
X013100Y008264D02*
X013260Y008264D01*
X013328Y008422D02*
X013032Y008422D01*
X014032Y008422D02*
X014328Y008422D01*
X014260Y008264D02*
X014100Y008264D01*
X014100Y008105D02*
X014260Y008105D01*
X014322Y007947D02*
X014038Y007947D01*
X009490Y004777D02*
X007896Y004777D01*
X008022Y004935D02*
X009331Y004935D01*
X009260Y005094D02*
X008080Y005094D01*
X008080Y005252D02*
X009260Y005252D01*
X009317Y005411D02*
X008028Y005411D01*
X007911Y005569D02*
X009475Y005569D01*
X003490Y024748D02*
X000660Y024748D01*
X000660Y024906D02*
X003332Y024906D01*
X003240Y025065D02*
X000660Y025065D01*
X000660Y025223D02*
X003240Y025223D01*
X003259Y025382D02*
X000660Y025382D01*
X000660Y025540D02*
X003418Y025540D01*
X003429Y028552D02*
X000660Y028552D01*
X008097Y029503D02*
X009810Y029503D01*
X009968Y029661D02*
X008100Y029661D01*
M02*
