G75*
%MOIN*%
%OFA0B0*%
%FSLAX24Y24*%
%IPPOS*%
%LPD*%
%AMOC8*
5,1,8,0,0,1.08239X$1,22.5*
%
%ADD10C,0.0650*%
%ADD11C,0.0520*%
%ADD12R,0.0800X0.0800*%
%ADD13C,0.0800*%
%ADD14C,0.0740*%
%ADD15OC8,0.0660*%
%ADD16C,0.0600*%
%ADD17C,0.1000*%
%ADD18OC8,0.0520*%
%ADD19C,0.0580*%
%ADD20C,0.0240*%
%ADD21C,0.0160*%
%ADD22C,0.0560*%
D10*
X010680Y009180D03*
X011680Y009180D03*
X014680Y004180D03*
X014680Y003180D03*
X013164Y014180D03*
X011196Y014180D03*
D11*
X011680Y008180D03*
X012680Y008180D03*
X013680Y008180D03*
X014680Y008180D03*
X014680Y005180D03*
X013680Y005180D03*
X012680Y005180D03*
X011680Y005180D03*
D12*
X030680Y016113D03*
X030680Y021692D03*
D13*
X030680Y023070D03*
X030680Y024448D03*
X030680Y025826D03*
X030680Y020247D03*
X030680Y018869D03*
X030680Y017491D03*
D14*
X007550Y020180D02*
X006810Y020180D01*
X006810Y012680D02*
X007550Y012680D01*
X007550Y005180D02*
X006810Y005180D01*
D15*
X010180Y017180D03*
X011180Y017180D03*
X011180Y020180D03*
X010180Y020180D03*
X010180Y023180D03*
X011180Y023180D03*
X011180Y026180D03*
X010180Y026180D03*
X010180Y029180D03*
X011180Y029180D03*
D16*
X022880Y009180D02*
X023480Y009180D01*
X023480Y008180D02*
X022880Y008180D01*
X022880Y007180D02*
X023480Y007180D01*
X030380Y007180D02*
X030980Y007180D01*
X030980Y008180D02*
X030380Y008180D01*
X030380Y009180D02*
X030980Y009180D01*
D17*
X029180Y011680D03*
X029180Y004680D03*
X021680Y004680D03*
X021680Y011680D03*
D18*
X017180Y013180D03*
X015680Y013180D03*
X014180Y013180D03*
X012680Y013180D03*
X009680Y014180D03*
X009680Y010180D03*
X009680Y009180D03*
X012680Y009180D03*
X014180Y009180D03*
X015680Y009180D03*
X017180Y009180D03*
X017180Y007180D03*
X017180Y003180D03*
X009680Y005180D03*
X007680Y023680D03*
X007680Y025180D03*
X007680Y026680D03*
X007680Y028180D03*
X007680Y029680D03*
X003680Y029680D03*
X003680Y028180D03*
X003680Y026680D03*
X003680Y025180D03*
X003680Y023680D03*
D19*
X013680Y023180D03*
X013680Y022180D03*
X013680Y021180D03*
X013680Y020180D03*
X013680Y019180D03*
X013680Y018180D03*
X013680Y017180D03*
X013680Y016180D03*
X014680Y016180D03*
X015680Y016180D03*
X016680Y016180D03*
X017680Y016180D03*
X018680Y016180D03*
X019680Y016180D03*
X019680Y017180D03*
X019680Y018180D03*
X019680Y019180D03*
X019680Y020180D03*
X019680Y021180D03*
X019680Y022180D03*
X019680Y023180D03*
X019680Y024180D03*
X019680Y025180D03*
X019680Y026180D03*
X019680Y027180D03*
X019680Y028180D03*
X019680Y029180D03*
X013680Y029180D03*
X013680Y028180D03*
X013680Y027180D03*
X013680Y026180D03*
X013680Y025180D03*
X013680Y024180D03*
D20*
X013680Y025180D02*
X012680Y025180D01*
X011680Y026180D01*
X011180Y026180D01*
X010180Y026180D02*
X010180Y026680D01*
X008680Y028180D01*
X008180Y028180D01*
X007680Y028180D01*
X007680Y026680D02*
X008180Y026680D01*
X010180Y024680D01*
X010180Y023180D01*
X011180Y023180D02*
X011680Y023180D01*
X012680Y022180D01*
X013680Y022180D01*
X011680Y020180D02*
X011180Y020180D01*
X011680Y020180D02*
X012680Y019180D01*
X013680Y019180D01*
X011680Y017180D02*
X011180Y017180D01*
X011680Y017180D02*
X012680Y016180D01*
X013680Y016180D01*
X012180Y015180D02*
X010680Y015180D01*
X009680Y014180D01*
X012180Y015180D02*
X013164Y014196D01*
X013164Y014180D01*
X014180Y014196D01*
X014196Y014196D01*
X015680Y015680D01*
X015680Y016180D01*
X015680Y024180D01*
X018680Y027180D01*
X019680Y027180D01*
X019680Y029180D02*
X020680Y029180D01*
X024034Y025826D01*
X030680Y025826D01*
X031680Y026430D02*
X028180Y029930D01*
X017430Y029930D01*
X014680Y027180D01*
X014680Y025680D01*
X014180Y025180D01*
X013680Y025180D01*
X013680Y028180D02*
X012680Y028180D01*
X011680Y029180D01*
X011180Y029180D01*
X010180Y029180D02*
X009180Y029180D01*
X008680Y029680D01*
X007680Y029680D01*
X007680Y025180D02*
X008180Y025180D01*
X009180Y024180D01*
X009180Y022680D01*
X010180Y021680D01*
X010180Y020180D01*
X009180Y020680D02*
X009180Y018180D01*
X010180Y017180D01*
X009180Y020680D02*
X007680Y022180D01*
X007680Y023680D01*
X013680Y028180D02*
X014680Y028180D01*
X017180Y030680D01*
X028680Y030680D01*
X032430Y026930D01*
X032430Y019930D01*
X031369Y018869D01*
X030680Y018869D01*
X030680Y020247D02*
X031247Y020247D01*
X031680Y020680D01*
X031680Y026430D01*
X030680Y023070D02*
X024570Y023070D01*
X020680Y019180D01*
X019680Y019180D01*
X019680Y018180D02*
X020680Y018180D01*
X024192Y021692D01*
X030680Y021692D01*
X018680Y016180D02*
X018680Y015180D01*
X017680Y014180D01*
X015180Y014180D01*
X014180Y013180D01*
X015680Y013180D02*
X015680Y012680D01*
X016180Y012180D01*
X018180Y012180D01*
X021180Y009180D01*
X023180Y009180D01*
X023180Y007180D02*
X017180Y007180D01*
X016680Y007180D01*
X015430Y005930D01*
X013930Y005930D01*
X013680Y005680D01*
X013680Y005180D01*
X014680Y005180D02*
X014680Y004180D01*
X012680Y005180D02*
X012680Y005680D01*
X013430Y006430D01*
X014680Y006430D01*
X015680Y007430D01*
X015680Y009180D01*
X017180Y009180D01*
X014680Y008180D02*
X014680Y007430D01*
X014180Y006930D01*
X012680Y006930D01*
X011680Y005930D01*
X011680Y005180D01*
X009680Y005180D01*
X010430Y007430D02*
X009680Y008180D01*
X009680Y010180D01*
X009680Y009180D01*
X010430Y007430D02*
X013430Y007430D01*
X013680Y007680D01*
X013680Y008180D01*
X012680Y008180D02*
X012680Y009180D01*
X014180Y009180D01*
X023180Y007180D02*
X030680Y007180D01*
D21*
X000660Y002133D02*
X000660Y029727D01*
X000792Y029498D01*
X000998Y029292D01*
X001252Y029146D01*
X001534Y029070D01*
X001826Y029070D01*
X002108Y029146D01*
X002362Y029292D01*
X002568Y029498D01*
X002714Y029752D01*
X002790Y030034D01*
X002790Y030326D01*
X002714Y030608D01*
X002568Y030862D01*
X002362Y031068D01*
X002140Y031196D01*
X031720Y031196D01*
X031498Y031068D01*
X031292Y030862D01*
X031146Y030608D01*
X031070Y030326D01*
X031070Y030034D01*
X031146Y029752D01*
X031292Y029498D01*
X031498Y029292D01*
X031752Y029146D01*
X032034Y029070D01*
X032326Y029070D01*
X032608Y029146D01*
X032862Y029292D01*
X033068Y029498D01*
X033070Y029502D01*
X033070Y002358D01*
X033068Y002362D01*
X032862Y002568D01*
X032608Y002714D01*
X032326Y002790D01*
X032034Y002790D01*
X031752Y002714D01*
X031498Y002568D01*
X031292Y002362D01*
X031146Y002108D01*
X031070Y001826D01*
X031070Y001534D01*
X031146Y001252D01*
X031292Y000998D01*
X031498Y000792D01*
X031727Y000660D01*
X002133Y000660D01*
X002362Y000792D01*
X002568Y000998D01*
X002714Y001252D01*
X002790Y001534D01*
X002790Y001826D01*
X002714Y002108D01*
X002568Y002362D01*
X002362Y002568D01*
X002108Y002714D01*
X001826Y002790D01*
X001534Y002790D01*
X001252Y002714D01*
X000998Y002568D01*
X000792Y002362D01*
X000660Y002133D01*
X000660Y002241D02*
X000722Y002241D01*
X000660Y002399D02*
X000829Y002399D01*
X000988Y002558D02*
X000660Y002558D01*
X000660Y002716D02*
X001258Y002716D01*
X000660Y002875D02*
X014278Y002875D01*
X014295Y002851D02*
X014248Y002915D01*
X014212Y002986D01*
X014187Y003062D01*
X014175Y003140D01*
X014175Y003180D01*
X014680Y003180D01*
X015185Y003180D01*
X015185Y003220D01*
X015173Y003298D01*
X015148Y003374D01*
X015112Y003445D01*
X015065Y003509D01*
X015009Y003565D01*
X014945Y003612D01*
X014874Y003648D01*
X014814Y003667D01*
X014893Y003700D01*
X018275Y003700D01*
X018452Y003773D01*
X020129Y005450D01*
X032025Y005450D01*
X032202Y005523D01*
X032452Y005773D01*
X032587Y005908D01*
X032660Y006085D01*
X032660Y007775D01*
X032587Y007952D01*
X032087Y008452D01*
X031952Y008587D01*
X031775Y008660D01*
X031128Y008660D01*
X031079Y008680D01*
X030281Y008680D01*
X030097Y008604D01*
X029956Y008463D01*
X029880Y008279D01*
X029880Y008081D01*
X029956Y007897D01*
X030097Y007756D01*
X030281Y007680D01*
X031079Y007680D01*
X031128Y007700D01*
X031481Y007700D01*
X031700Y007481D01*
X031700Y006410D01*
X019835Y006410D01*
X019658Y006337D01*
X017981Y004660D01*
X015000Y004660D01*
X015000Y004849D01*
X015070Y004919D01*
X015140Y005088D01*
X015140Y005271D01*
X015070Y005441D01*
X014941Y005570D01*
X014844Y005610D01*
X015494Y005610D01*
X015611Y005659D01*
X015701Y005749D01*
X016813Y006860D01*
X016849Y006860D01*
X016989Y006720D01*
X017371Y006720D01*
X017511Y006860D01*
X022493Y006860D01*
X022597Y006756D01*
X022781Y006680D01*
X023579Y006680D01*
X023763Y006756D01*
X023867Y006860D01*
X029993Y006860D01*
X030097Y006756D01*
X030281Y006680D01*
X031079Y006680D01*
X031263Y006756D01*
X031404Y006897D01*
X031480Y007081D01*
X031480Y007279D01*
X031404Y007463D01*
X031263Y007604D01*
X031079Y007680D01*
X030281Y007680D01*
X030097Y007604D01*
X029993Y007500D01*
X023867Y007500D01*
X023763Y007604D01*
X023579Y007680D01*
X023763Y007756D01*
X023904Y007897D01*
X023980Y008081D01*
X023980Y008279D01*
X023904Y008463D01*
X023763Y008604D01*
X023579Y008680D01*
X022781Y008680D01*
X022732Y008660D01*
X019879Y008660D01*
X016952Y011587D01*
X016775Y011660D01*
X012585Y011660D01*
X012408Y011587D01*
X011680Y010859D01*
X007660Y014879D01*
X007660Y019610D01*
X007663Y019610D01*
X007873Y019697D01*
X008033Y019857D01*
X008120Y020067D01*
X008120Y020293D01*
X008033Y020503D01*
X007873Y020663D01*
X007663Y020750D01*
X006697Y020750D01*
X006487Y020663D01*
X006327Y020503D01*
X006240Y020293D01*
X006240Y020067D01*
X006327Y019857D01*
X006487Y019697D01*
X006697Y019610D01*
X006700Y019610D01*
X006700Y014585D01*
X006773Y014408D01*
X006908Y014273D01*
X006908Y014273D01*
X011200Y009981D01*
X011200Y009393D01*
X011167Y009314D01*
X011148Y009374D01*
X011112Y009445D01*
X011065Y009509D01*
X011009Y009565D01*
X010945Y009612D01*
X010874Y009648D01*
X010798Y009673D01*
X010720Y009685D01*
X010680Y009685D01*
X010680Y009180D01*
X010680Y009180D01*
X010680Y008675D01*
X010720Y008675D01*
X010798Y008687D01*
X010874Y008712D01*
X010945Y008748D01*
X011009Y008795D01*
X011065Y008851D01*
X011112Y008915D01*
X011148Y008986D01*
X011167Y009046D01*
X011200Y008967D01*
X011200Y008085D01*
X011273Y007908D01*
X011408Y007773D01*
X011464Y007750D01*
X010563Y007750D01*
X010000Y008313D01*
X010000Y008849D01*
X010140Y008989D01*
X010140Y009371D01*
X010000Y009511D01*
X010000Y009849D01*
X010140Y009989D01*
X010140Y010371D01*
X009871Y010640D01*
X009489Y010640D01*
X009220Y010371D01*
X009220Y009989D01*
X009360Y009849D01*
X009360Y009511D01*
X009220Y009371D01*
X009220Y008989D01*
X009360Y008849D01*
X009360Y008116D01*
X009409Y007999D01*
X009499Y007909D01*
X010249Y007159D01*
X010366Y007110D01*
X012407Y007110D01*
X011409Y006111D01*
X011360Y005994D01*
X011360Y005511D01*
X011349Y005500D01*
X010011Y005500D01*
X009871Y005640D01*
X009489Y005640D01*
X009220Y005371D01*
X009220Y004989D01*
X009489Y004720D01*
X009871Y004720D01*
X010011Y004860D01*
X011349Y004860D01*
X011419Y004790D01*
X011588Y004720D01*
X011771Y004720D01*
X011941Y004790D01*
X012070Y004919D01*
X012140Y005088D01*
X012140Y005271D01*
X012070Y005441D01*
X012000Y005511D01*
X012000Y005797D01*
X012813Y006610D01*
X013157Y006610D01*
X012409Y005861D01*
X012360Y005744D01*
X012360Y005511D01*
X012290Y005441D01*
X012220Y005271D01*
X012220Y005088D01*
X012290Y004919D01*
X012419Y004790D01*
X012588Y004720D01*
X012771Y004720D01*
X012941Y004790D01*
X013070Y004919D01*
X013140Y005088D01*
X013140Y005271D01*
X013070Y005441D01*
X013000Y005511D01*
X013000Y005547D01*
X013563Y006110D01*
X013657Y006110D01*
X013499Y005951D01*
X013409Y005861D01*
X013360Y005744D01*
X013360Y005511D01*
X013290Y005441D01*
X013220Y005271D01*
X013220Y005088D01*
X013290Y004919D01*
X013419Y004790D01*
X013588Y004720D01*
X013771Y004720D01*
X013941Y004790D01*
X014070Y004919D01*
X014140Y005088D01*
X014140Y005271D01*
X014070Y005441D01*
X014000Y005511D01*
X014000Y005547D01*
X014063Y005610D01*
X014516Y005610D01*
X014419Y005570D01*
X014290Y005441D01*
X014220Y005271D01*
X014220Y005088D01*
X014290Y004919D01*
X014360Y004849D01*
X014360Y004660D01*
X008879Y004660D01*
X007952Y005587D01*
X007947Y005589D01*
X007873Y005663D01*
X007663Y005750D01*
X006697Y005750D01*
X006487Y005663D01*
X006327Y005503D01*
X006240Y005293D01*
X006240Y005067D01*
X006327Y004857D01*
X006487Y004697D01*
X006697Y004610D01*
X007571Y004610D01*
X008273Y003908D01*
X008408Y003773D01*
X008585Y003700D01*
X014467Y003700D01*
X014546Y003667D01*
X014486Y003648D01*
X014415Y003612D01*
X014351Y003565D01*
X014295Y003509D01*
X014248Y003445D01*
X014212Y003374D01*
X014187Y003298D01*
X014175Y003220D01*
X014175Y003180D01*
X014680Y003180D01*
X014680Y003180D01*
X015185Y003180D01*
X015185Y003140D01*
X015173Y003062D01*
X015148Y002986D01*
X015112Y002915D01*
X015065Y002851D01*
X015009Y002795D01*
X014945Y002748D01*
X014874Y002712D01*
X014798Y002687D01*
X014720Y002675D01*
X014680Y002675D01*
X014680Y003180D01*
X014680Y003180D01*
X014680Y003180D01*
X014680Y002675D01*
X014640Y002675D01*
X014562Y002687D01*
X014486Y002712D01*
X014415Y002748D01*
X014351Y002795D01*
X014295Y002851D01*
X014197Y003033D02*
X000660Y003033D01*
X000660Y003192D02*
X002160Y003192D01*
X002112Y003204D02*
X002651Y003060D01*
X003209Y003060D01*
X003748Y003204D01*
X004232Y003484D01*
X004626Y003878D01*
X004906Y004362D01*
X005050Y004901D01*
X005050Y005459D01*
X004906Y005998D01*
X004626Y006482D01*
X004232Y006876D01*
X003748Y007156D01*
X003209Y007300D01*
X002651Y007300D01*
X002112Y007156D01*
X001628Y006876D01*
X001234Y006482D01*
X000954Y005998D01*
X000810Y005459D01*
X000810Y004901D01*
X000954Y004362D01*
X001234Y003878D01*
X001628Y003484D01*
X002112Y003204D01*
X001860Y003350D02*
X000660Y003350D01*
X000660Y003509D02*
X001603Y003509D01*
X001445Y003667D02*
X000660Y003667D01*
X000660Y003826D02*
X001286Y003826D01*
X001173Y003984D02*
X000660Y003984D01*
X000660Y004143D02*
X001081Y004143D01*
X000990Y004301D02*
X000660Y004301D01*
X000660Y004460D02*
X000928Y004460D01*
X000886Y004618D02*
X000660Y004618D01*
X000660Y004777D02*
X000843Y004777D01*
X000810Y004935D02*
X000660Y004935D01*
X000660Y005094D02*
X000810Y005094D01*
X000810Y005252D02*
X000660Y005252D01*
X000660Y005411D02*
X000810Y005411D01*
X000839Y005569D02*
X000660Y005569D01*
X000660Y005728D02*
X000882Y005728D01*
X000924Y005886D02*
X000660Y005886D01*
X000660Y006045D02*
X000981Y006045D01*
X001073Y006203D02*
X000660Y006203D01*
X000660Y006362D02*
X001164Y006362D01*
X001272Y006520D02*
X000660Y006520D01*
X000660Y006679D02*
X001430Y006679D01*
X001589Y006837D02*
X000660Y006837D01*
X000660Y006996D02*
X001835Y006996D01*
X002109Y007154D02*
X000660Y007154D01*
X000660Y007313D02*
X010095Y007313D01*
X009936Y007471D02*
X000660Y007471D01*
X000660Y007630D02*
X009778Y007630D01*
X009619Y007788D02*
X000660Y007788D01*
X000660Y007947D02*
X009461Y007947D01*
X009365Y008105D02*
X000660Y008105D01*
X000660Y008264D02*
X009360Y008264D01*
X009360Y008422D02*
X000660Y008422D01*
X000660Y008581D02*
X009360Y008581D01*
X009360Y008739D02*
X000660Y008739D01*
X000660Y008898D02*
X009312Y008898D01*
X009220Y009056D02*
X000660Y009056D01*
X000660Y009215D02*
X009220Y009215D01*
X009222Y009373D02*
X000660Y009373D01*
X000660Y009532D02*
X009360Y009532D01*
X009360Y009690D02*
X000660Y009690D01*
X000660Y009849D02*
X009360Y009849D01*
X009220Y010007D02*
X000660Y010007D01*
X000660Y010166D02*
X009220Y010166D01*
X009220Y010324D02*
X000660Y010324D01*
X000660Y010483D02*
X009332Y010483D01*
X010028Y010483D02*
X010699Y010483D01*
X010540Y010641D02*
X003511Y010641D01*
X003748Y010704D02*
X003209Y010560D01*
X002651Y010560D01*
X002112Y010704D01*
X001628Y010984D01*
X001234Y011378D01*
X000954Y011862D01*
X000810Y012401D01*
X000810Y012959D01*
X000954Y013498D01*
X001234Y013982D01*
X001628Y014376D01*
X002112Y014656D01*
X002651Y014800D01*
X003209Y014800D01*
X003748Y014656D01*
X004232Y014376D01*
X004626Y013982D01*
X004906Y013498D01*
X005050Y012959D01*
X005050Y012401D01*
X004906Y011862D01*
X004626Y011378D01*
X004232Y010984D01*
X003748Y010704D01*
X003913Y010800D02*
X010382Y010800D01*
X010223Y010958D02*
X004187Y010958D01*
X004365Y011117D02*
X010065Y011117D01*
X009906Y011275D02*
X004523Y011275D01*
X004658Y011434D02*
X009748Y011434D01*
X009589Y011592D02*
X004750Y011592D01*
X004841Y011751D02*
X009431Y011751D01*
X009272Y011909D02*
X004918Y011909D01*
X004961Y012068D02*
X009114Y012068D01*
X008955Y012226D02*
X007861Y012226D01*
X007838Y012210D02*
X007908Y012260D01*
X007970Y012322D01*
X008020Y012392D01*
X008060Y012469D01*
X008086Y012551D01*
X008100Y012637D01*
X008100Y012650D01*
X007210Y012650D01*
X007210Y012710D01*
X007150Y012710D01*
X007150Y013230D01*
X006767Y013230D01*
X006681Y013216D01*
X006599Y013190D01*
X006522Y013150D01*
X006452Y013100D01*
X006390Y013038D01*
X006340Y012968D01*
X006300Y012891D01*
X006274Y012809D01*
X006260Y012723D01*
X006260Y012710D01*
X007150Y012710D01*
X007150Y012650D01*
X007210Y012650D01*
X007210Y012130D01*
X007593Y012130D01*
X007679Y012144D01*
X007761Y012170D01*
X007838Y012210D01*
X008015Y012385D02*
X008797Y012385D01*
X008638Y012543D02*
X008084Y012543D01*
X008100Y012710D02*
X008100Y012723D01*
X008086Y012809D01*
X008060Y012891D01*
X008020Y012968D01*
X007970Y013038D01*
X007908Y013100D01*
X007838Y013150D01*
X007761Y013190D01*
X007679Y013216D01*
X007593Y013230D01*
X007210Y013230D01*
X007210Y012710D01*
X008100Y012710D01*
X008070Y012860D02*
X008321Y012860D01*
X008163Y013019D02*
X007984Y013019D01*
X008004Y013177D02*
X007786Y013177D01*
X007846Y013336D02*
X004949Y013336D01*
X004907Y013494D02*
X007687Y013494D01*
X007529Y013653D02*
X004816Y013653D01*
X004725Y013811D02*
X007370Y013811D01*
X007212Y013970D02*
X004633Y013970D01*
X004480Y014128D02*
X007053Y014128D01*
X006895Y014287D02*
X004322Y014287D01*
X004113Y014445D02*
X006758Y014445D01*
X006700Y014604D02*
X003838Y014604D01*
X003351Y014762D02*
X006700Y014762D01*
X006700Y014921D02*
X000660Y014921D01*
X000660Y015079D02*
X006700Y015079D01*
X006700Y015238D02*
X000660Y015238D01*
X000660Y015396D02*
X006700Y015396D01*
X006700Y015555D02*
X000660Y015555D01*
X000660Y015713D02*
X006700Y015713D01*
X006700Y015872D02*
X000660Y015872D01*
X000660Y016030D02*
X006700Y016030D01*
X006700Y016189D02*
X000660Y016189D01*
X000660Y016347D02*
X006700Y016347D01*
X006700Y016506D02*
X000660Y016506D01*
X000660Y016664D02*
X006700Y016664D01*
X006700Y016823D02*
X000660Y016823D01*
X000660Y016981D02*
X006700Y016981D01*
X006700Y017140D02*
X000660Y017140D01*
X000660Y017298D02*
X006700Y017298D01*
X006700Y017457D02*
X000660Y017457D01*
X000660Y017615D02*
X006700Y017615D01*
X006700Y017774D02*
X000660Y017774D01*
X000660Y017932D02*
X006700Y017932D01*
X006700Y018091D02*
X003323Y018091D01*
X003209Y018060D02*
X003748Y018204D01*
X004232Y018484D01*
X004626Y018878D01*
X004906Y019362D01*
X005050Y019901D01*
X005050Y020459D01*
X004906Y020998D01*
X004626Y021482D01*
X004232Y021876D01*
X003748Y022156D01*
X003209Y022300D01*
X002651Y022300D01*
X002112Y022156D01*
X001628Y021876D01*
X001234Y021482D01*
X000954Y020998D01*
X000810Y020459D01*
X000810Y019901D01*
X000954Y019362D01*
X001234Y018878D01*
X001628Y018484D01*
X002112Y018204D01*
X002651Y018060D01*
X003209Y018060D01*
X003825Y018249D02*
X006700Y018249D01*
X006700Y018408D02*
X004100Y018408D01*
X004314Y018566D02*
X006700Y018566D01*
X006700Y018725D02*
X004473Y018725D01*
X004629Y018883D02*
X006700Y018883D01*
X006700Y019042D02*
X004721Y019042D01*
X004812Y019200D02*
X006700Y019200D01*
X006700Y019359D02*
X004904Y019359D01*
X004947Y019517D02*
X006700Y019517D01*
X006538Y019676D02*
X004990Y019676D01*
X005032Y019834D02*
X006350Y019834D01*
X006271Y019993D02*
X005050Y019993D01*
X005050Y020151D02*
X006240Y020151D01*
X006247Y020310D02*
X005050Y020310D01*
X005048Y020468D02*
X006312Y020468D01*
X006450Y020627D02*
X005005Y020627D01*
X004963Y020785D02*
X008622Y020785D01*
X008464Y020944D02*
X004920Y020944D01*
X004846Y021102D02*
X008305Y021102D01*
X008147Y021261D02*
X004754Y021261D01*
X004663Y021419D02*
X007988Y021419D01*
X007830Y021578D02*
X004531Y021578D01*
X004372Y021736D02*
X007671Y021736D01*
X007513Y021895D02*
X004200Y021895D01*
X003926Y022053D02*
X007386Y022053D01*
X007409Y021999D02*
X008860Y020547D01*
X008860Y018116D01*
X008909Y017999D01*
X009650Y017257D01*
X009650Y016960D01*
X009960Y016650D01*
X010400Y016650D01*
X010680Y016930D01*
X010960Y016650D01*
X011400Y016650D01*
X011578Y016829D01*
X012409Y015999D01*
X012499Y015909D01*
X012616Y015860D01*
X013307Y015860D01*
X013402Y015765D01*
X013583Y015690D01*
X013777Y015690D01*
X013958Y015765D01*
X014095Y015902D01*
X014170Y016083D01*
X014170Y016277D01*
X014095Y016458D01*
X013958Y016595D01*
X013777Y016670D01*
X013583Y016670D01*
X013402Y016595D01*
X013307Y016500D01*
X012813Y016500D01*
X011861Y017451D01*
X011744Y017500D01*
X011610Y017500D01*
X011400Y017710D01*
X010960Y017710D01*
X010680Y017430D01*
X010400Y017710D01*
X010103Y017710D01*
X009500Y018313D01*
X009500Y020744D01*
X009451Y020861D01*
X009361Y020951D01*
X008000Y022313D01*
X008000Y023349D01*
X008140Y023489D01*
X008140Y023871D01*
X007871Y024140D01*
X007489Y024140D01*
X007220Y023871D01*
X007220Y023489D01*
X007360Y023349D01*
X007360Y022116D01*
X007409Y021999D01*
X007360Y022212D02*
X003539Y022212D01*
X003498Y023240D02*
X003680Y023240D01*
X003862Y023240D01*
X004120Y023498D01*
X004120Y023680D01*
X004120Y023862D01*
X003862Y024120D01*
X003680Y024120D01*
X003680Y023680D01*
X004120Y023680D01*
X003680Y023680D01*
X003680Y023680D01*
X003680Y023680D01*
X003680Y023240D01*
X003680Y023680D01*
X003680Y023680D01*
X003680Y023680D01*
X003240Y023680D01*
X003240Y023862D01*
X003498Y024120D01*
X003680Y024120D01*
X003680Y023680D01*
X003240Y023680D01*
X003240Y023498D01*
X003498Y023240D01*
X003417Y023321D02*
X000660Y023321D01*
X000660Y023163D02*
X007360Y023163D01*
X007360Y023321D02*
X003943Y023321D01*
X004102Y023480D02*
X007230Y023480D01*
X007220Y023638D02*
X004120Y023638D01*
X004120Y023797D02*
X007220Y023797D01*
X007304Y023955D02*
X004027Y023955D01*
X003869Y024114D02*
X007463Y024114D01*
X007897Y024114D02*
X008794Y024114D01*
X008860Y024047D02*
X008860Y022616D01*
X008909Y022499D01*
X009860Y021547D01*
X009860Y020610D01*
X009650Y020400D01*
X009650Y019960D01*
X009960Y019650D01*
X010400Y019650D01*
X010680Y019930D01*
X010960Y019650D01*
X011400Y019650D01*
X011578Y019829D01*
X012499Y018909D01*
X012616Y018860D01*
X013307Y018860D01*
X013402Y018765D01*
X013583Y018690D01*
X013777Y018690D01*
X013958Y018765D01*
X014095Y018902D01*
X014170Y019083D01*
X014170Y019277D01*
X014095Y019458D01*
X013958Y019595D01*
X013777Y019670D01*
X013583Y019670D01*
X013402Y019595D01*
X013307Y019500D01*
X012813Y019500D01*
X011951Y020361D01*
X011861Y020451D01*
X011744Y020500D01*
X011610Y020500D01*
X011400Y020710D01*
X010960Y020710D01*
X010680Y020430D01*
X010500Y020610D01*
X010500Y021744D01*
X010451Y021861D01*
X010361Y021951D01*
X009500Y022813D01*
X009500Y024244D01*
X009451Y024361D01*
X009361Y024451D01*
X008361Y025451D01*
X008244Y025500D01*
X008011Y025500D01*
X007871Y025640D01*
X007489Y025640D01*
X007220Y025371D01*
X007220Y024989D01*
X007489Y024720D01*
X007871Y024720D01*
X008011Y024860D01*
X008047Y024860D01*
X008860Y024047D01*
X008860Y023955D02*
X008055Y023955D01*
X008140Y023797D02*
X008860Y023797D01*
X008860Y023638D02*
X008140Y023638D01*
X008130Y023480D02*
X008860Y023480D01*
X008860Y023321D02*
X008000Y023321D01*
X008000Y023163D02*
X008860Y023163D01*
X008860Y023004D02*
X008000Y023004D01*
X008000Y022846D02*
X008860Y022846D01*
X008860Y022687D02*
X008000Y022687D01*
X008000Y022529D02*
X008896Y022529D01*
X009037Y022370D02*
X008000Y022370D01*
X008101Y022212D02*
X009196Y022212D01*
X009354Y022053D02*
X008260Y022053D01*
X008418Y021895D02*
X009513Y021895D01*
X009671Y021736D02*
X008577Y021736D01*
X008735Y021578D02*
X009830Y021578D01*
X009860Y021419D02*
X008894Y021419D01*
X009052Y021261D02*
X009860Y021261D01*
X009860Y021102D02*
X009211Y021102D01*
X009369Y020944D02*
X009860Y020944D01*
X009860Y020785D02*
X009483Y020785D01*
X009500Y020627D02*
X009860Y020627D01*
X009718Y020468D02*
X009500Y020468D01*
X009500Y020310D02*
X009650Y020310D01*
X009650Y020151D02*
X009500Y020151D01*
X009500Y019993D02*
X009650Y019993D01*
X009776Y019834D02*
X009500Y019834D01*
X009500Y019676D02*
X009935Y019676D01*
X009500Y019517D02*
X011890Y019517D01*
X011732Y019676D02*
X011425Y019676D01*
X010935Y019676D02*
X010425Y019676D01*
X010584Y019834D02*
X010776Y019834D01*
X010719Y020468D02*
X010641Y020468D01*
X010500Y020627D02*
X010877Y020627D01*
X010500Y020785D02*
X013382Y020785D01*
X013402Y020765D02*
X013583Y020690D01*
X013777Y020690D01*
X013958Y020765D01*
X014095Y020902D01*
X014170Y021083D01*
X014170Y021277D01*
X014095Y021458D01*
X013958Y021595D01*
X013777Y021670D01*
X013583Y021670D01*
X013402Y021595D01*
X013265Y021458D01*
X013190Y021277D01*
X013190Y021083D01*
X013265Y020902D01*
X013402Y020765D01*
X013478Y020627D02*
X011483Y020627D01*
X011821Y020468D02*
X013275Y020468D01*
X013265Y020458D02*
X013190Y020277D01*
X013190Y020083D01*
X013265Y019902D01*
X013402Y019765D01*
X013583Y019690D01*
X013777Y019690D01*
X013958Y019765D01*
X014095Y019902D01*
X014170Y020083D01*
X014170Y020277D01*
X014095Y020458D01*
X013958Y020595D01*
X013777Y020670D01*
X013583Y020670D01*
X013402Y020595D01*
X013265Y020458D01*
X013203Y020310D02*
X012003Y020310D01*
X012162Y020151D02*
X013190Y020151D01*
X013227Y019993D02*
X012320Y019993D01*
X012479Y019834D02*
X013333Y019834D01*
X013324Y019517D02*
X012796Y019517D01*
X012637Y019676D02*
X015360Y019676D01*
X015360Y019834D02*
X014027Y019834D01*
X014133Y019993D02*
X015360Y019993D01*
X015360Y020151D02*
X014170Y020151D01*
X014157Y020310D02*
X015360Y020310D01*
X015360Y020468D02*
X014085Y020468D01*
X013882Y020627D02*
X015360Y020627D01*
X015360Y020785D02*
X013978Y020785D01*
X014112Y020944D02*
X015360Y020944D01*
X015360Y021102D02*
X014170Y021102D01*
X014170Y021261D02*
X015360Y021261D01*
X015360Y021419D02*
X014111Y021419D01*
X013975Y021578D02*
X015360Y021578D01*
X015360Y021736D02*
X013889Y021736D01*
X013958Y021765D02*
X014095Y021902D01*
X014170Y022083D01*
X014170Y022277D01*
X014095Y022458D01*
X013958Y022595D01*
X013777Y022670D01*
X013583Y022670D01*
X013402Y022595D01*
X013307Y022500D01*
X012813Y022500D01*
X011951Y023361D01*
X011861Y023451D01*
X011744Y023500D01*
X011610Y023500D01*
X011400Y023710D01*
X010960Y023710D01*
X010680Y023430D01*
X010500Y023610D01*
X010500Y024744D01*
X010451Y024861D01*
X010361Y024951D01*
X008361Y026951D01*
X008244Y027000D01*
X008011Y027000D01*
X007871Y027140D01*
X007489Y027140D01*
X007220Y026871D01*
X007220Y026489D01*
X007489Y026220D01*
X007871Y026220D01*
X008011Y026360D01*
X008047Y026360D01*
X009860Y024547D01*
X009860Y023610D01*
X009650Y023400D01*
X009650Y022960D01*
X009960Y022650D01*
X010400Y022650D01*
X010680Y022930D01*
X010960Y022650D01*
X011400Y022650D01*
X011578Y022829D01*
X012499Y021909D01*
X012616Y021860D01*
X013307Y021860D01*
X013402Y021765D01*
X013583Y021690D01*
X013777Y021690D01*
X013958Y021765D01*
X014087Y021895D02*
X015360Y021895D01*
X015360Y022053D02*
X014158Y022053D01*
X014170Y022212D02*
X015360Y022212D01*
X015360Y022370D02*
X014132Y022370D01*
X014024Y022529D02*
X015360Y022529D01*
X015360Y022687D02*
X012626Y022687D01*
X012784Y022529D02*
X013336Y022529D01*
X013402Y022765D02*
X013583Y022690D01*
X013777Y022690D01*
X013958Y022765D01*
X014095Y022902D01*
X014170Y023083D01*
X014170Y023277D01*
X014095Y023458D01*
X013958Y023595D01*
X013777Y023670D01*
X013583Y023670D01*
X013402Y023595D01*
X013265Y023458D01*
X013190Y023277D01*
X013190Y023083D01*
X013265Y022902D01*
X013402Y022765D01*
X013321Y022846D02*
X012467Y022846D01*
X012309Y023004D02*
X013223Y023004D01*
X013190Y023163D02*
X012150Y023163D01*
X011992Y023321D02*
X013208Y023321D01*
X013287Y023480D02*
X011793Y023480D01*
X011471Y023638D02*
X013505Y023638D01*
X013583Y023690D02*
X013402Y023765D01*
X013265Y023902D01*
X013190Y024083D01*
X013190Y024277D01*
X013265Y024458D01*
X013402Y024595D01*
X013583Y024670D01*
X013777Y024670D01*
X013958Y024595D01*
X014095Y024458D01*
X014170Y024277D01*
X014170Y024083D01*
X014095Y023902D01*
X013958Y023765D01*
X013777Y023690D01*
X013583Y023690D01*
X013370Y023797D02*
X010500Y023797D01*
X010500Y023955D02*
X013243Y023955D01*
X013190Y024114D02*
X010500Y024114D01*
X010500Y024272D02*
X013190Y024272D01*
X013253Y024431D02*
X010500Y024431D01*
X010500Y024589D02*
X013396Y024589D01*
X013444Y024748D02*
X010498Y024748D01*
X010407Y024906D02*
X012505Y024906D01*
X012499Y024909D02*
X012616Y024860D01*
X013307Y024860D01*
X013402Y024765D01*
X013583Y024690D01*
X013777Y024690D01*
X013958Y024765D01*
X014053Y024860D01*
X014244Y024860D01*
X014361Y024909D01*
X014451Y024999D01*
X014951Y025499D01*
X015000Y025616D01*
X015000Y027047D01*
X017563Y029610D01*
X019438Y029610D01*
X019402Y029595D01*
X019265Y029458D01*
X019190Y029277D01*
X019190Y029083D01*
X019265Y028902D01*
X019402Y028765D01*
X019583Y028690D01*
X019777Y028690D01*
X019958Y028765D01*
X020053Y028860D01*
X020547Y028860D01*
X023853Y025555D01*
X023970Y025506D01*
X030163Y025506D01*
X030171Y025486D01*
X030340Y025317D01*
X030561Y025226D01*
X030799Y025226D01*
X031020Y025317D01*
X031189Y025486D01*
X031280Y025707D01*
X031280Y025945D01*
X031189Y026166D01*
X031020Y026335D01*
X030799Y026426D01*
X030561Y026426D01*
X030340Y026335D01*
X030171Y026166D01*
X030163Y026146D01*
X024167Y026146D01*
X020951Y029361D01*
X020861Y029451D01*
X020744Y029500D01*
X020053Y029500D01*
X019958Y029595D01*
X019922Y029610D01*
X028047Y029610D01*
X031360Y026297D01*
X031360Y020813D01*
X031161Y020614D01*
X031020Y020756D01*
X030799Y020847D01*
X030561Y020847D01*
X030340Y020756D01*
X030171Y020587D01*
X030080Y020366D01*
X030080Y020128D01*
X030171Y019907D01*
X030340Y019738D01*
X030561Y019647D01*
X030799Y019647D01*
X031020Y019738D01*
X031189Y019907D01*
X031197Y019927D01*
X031311Y019927D01*
X031428Y019976D01*
X031861Y020409D01*
X031951Y020499D01*
X032000Y020616D01*
X032000Y026494D01*
X031951Y026611D01*
X028451Y030111D01*
X028361Y030201D01*
X028244Y030250D01*
X017366Y030250D01*
X017249Y030201D01*
X014499Y027451D01*
X014409Y027361D01*
X014360Y027244D01*
X014360Y025813D01*
X014050Y025503D01*
X013958Y025595D01*
X013777Y025670D01*
X013583Y025670D01*
X013402Y025595D01*
X013307Y025500D01*
X012813Y025500D01*
X011951Y026361D01*
X011861Y026451D01*
X011744Y026500D01*
X011610Y026500D01*
X011400Y026710D01*
X010960Y026710D01*
X010680Y026430D01*
X010500Y026610D01*
X010500Y026744D01*
X010451Y026861D01*
X008951Y028361D01*
X008861Y028451D01*
X008744Y028500D01*
X008011Y028500D01*
X007871Y028640D01*
X007489Y028640D01*
X007220Y028371D01*
X007220Y027989D01*
X007489Y027720D01*
X007871Y027720D01*
X008011Y027860D01*
X008547Y027860D01*
X009829Y026578D01*
X009650Y026400D01*
X009650Y025960D01*
X009960Y025650D01*
X010400Y025650D01*
X010680Y025930D01*
X010960Y025650D01*
X011400Y025650D01*
X011578Y025829D01*
X012499Y024909D01*
X012343Y025065D02*
X010248Y025065D01*
X010090Y025223D02*
X012184Y025223D01*
X012026Y025382D02*
X009931Y025382D01*
X009773Y025540D02*
X011867Y025540D01*
X011709Y025699D02*
X011448Y025699D01*
X010912Y025699D02*
X010448Y025699D01*
X010607Y025857D02*
X010753Y025857D01*
X010742Y026491D02*
X010618Y026491D01*
X010500Y026650D02*
X010900Y026650D01*
X011460Y026650D02*
X013533Y026650D01*
X013583Y026670D02*
X013402Y026595D01*
X013265Y026458D01*
X013190Y026277D01*
X013190Y026083D01*
X013265Y025902D01*
X013402Y025765D01*
X013583Y025690D01*
X013777Y025690D01*
X013958Y025765D01*
X014095Y025902D01*
X014170Y026083D01*
X014170Y026277D01*
X014095Y026458D01*
X013958Y026595D01*
X013777Y026670D01*
X013583Y026670D01*
X013583Y026690D02*
X013777Y026690D01*
X013958Y026765D01*
X014095Y026902D01*
X014170Y027083D01*
X014170Y027277D01*
X014095Y027458D01*
X013958Y027595D01*
X013777Y027670D01*
X013583Y027670D01*
X013402Y027595D01*
X013265Y027458D01*
X013190Y027277D01*
X013190Y027083D01*
X013265Y026902D01*
X013402Y026765D01*
X013583Y026690D01*
X013827Y026650D02*
X014360Y026650D01*
X014360Y026808D02*
X014001Y026808D01*
X014122Y026967D02*
X014360Y026967D01*
X014360Y027125D02*
X014170Y027125D01*
X014167Y027284D02*
X014377Y027284D01*
X014489Y027442D02*
X014102Y027442D01*
X013945Y027601D02*
X014648Y027601D01*
X014806Y027759D02*
X013944Y027759D01*
X013958Y027765D02*
X014053Y027860D01*
X014744Y027860D01*
X014861Y027909D01*
X017313Y030360D01*
X028547Y030360D01*
X032110Y026797D01*
X032110Y020063D01*
X031236Y019189D01*
X031197Y019189D01*
X031189Y019209D01*
X031020Y019378D01*
X030799Y019469D01*
X030561Y019469D01*
X030340Y019378D01*
X030171Y019209D01*
X030080Y018988D01*
X030080Y018750D01*
X030171Y018529D01*
X030340Y018360D01*
X030561Y018269D01*
X030799Y018269D01*
X031020Y018360D01*
X031189Y018529D01*
X031197Y018549D01*
X031433Y018549D01*
X031550Y018598D01*
X032611Y019659D01*
X032701Y019749D01*
X032750Y019866D01*
X032750Y026994D01*
X032701Y027111D01*
X028951Y030861D01*
X028861Y030951D01*
X028744Y031000D01*
X017116Y031000D01*
X016999Y030951D01*
X014547Y028500D01*
X014053Y028500D01*
X013958Y028595D01*
X013777Y028670D01*
X013583Y028670D01*
X013402Y028595D01*
X013307Y028500D01*
X012813Y028500D01*
X011951Y029361D01*
X011951Y029361D01*
X011861Y029451D01*
X011744Y029500D01*
X011610Y029500D01*
X011400Y029710D01*
X010960Y029710D01*
X010680Y029430D01*
X010400Y029710D01*
X009960Y029710D01*
X009750Y029500D01*
X009313Y029500D01*
X008951Y029861D01*
X008861Y029951D01*
X008744Y030000D01*
X008011Y030000D01*
X007871Y030140D01*
X007489Y030140D01*
X007220Y029871D01*
X007220Y029489D01*
X007489Y029220D01*
X007871Y029220D01*
X008011Y029360D01*
X008547Y029360D01*
X008999Y028909D01*
X009116Y028860D01*
X009750Y028860D01*
X009960Y028650D01*
X010400Y028650D01*
X010680Y028930D01*
X010960Y028650D01*
X011400Y028650D01*
X011578Y028829D01*
X012499Y027909D01*
X012616Y027860D01*
X013307Y027860D01*
X013402Y027765D01*
X013583Y027690D01*
X013777Y027690D01*
X013958Y027765D01*
X013416Y027759D02*
X009554Y027759D01*
X009712Y027601D02*
X013415Y027601D01*
X013258Y027442D02*
X009871Y027442D01*
X010029Y027284D02*
X013193Y027284D01*
X013190Y027125D02*
X010188Y027125D01*
X010346Y026967D02*
X013238Y026967D01*
X013359Y026808D02*
X010473Y026808D01*
X009758Y026650D02*
X008663Y026650D01*
X008505Y026808D02*
X009599Y026808D01*
X009441Y026967D02*
X008324Y026967D01*
X007885Y027125D02*
X009282Y027125D01*
X009124Y027284D02*
X000660Y027284D01*
X000660Y027442D02*
X008965Y027442D01*
X008807Y027601D02*
X000660Y027601D01*
X000660Y027759D02*
X003479Y027759D01*
X003498Y027740D02*
X003680Y027740D01*
X003862Y027740D01*
X004120Y027998D01*
X004120Y028180D01*
X004120Y028362D01*
X003862Y028620D01*
X003680Y028620D01*
X003680Y028180D01*
X004120Y028180D01*
X003680Y028180D01*
X003680Y028180D01*
X003680Y028180D01*
X003680Y027740D01*
X003680Y028180D01*
X003680Y028180D01*
X003680Y028180D01*
X003240Y028180D01*
X003240Y028362D01*
X003498Y028620D01*
X003680Y028620D01*
X003680Y028180D01*
X003240Y028180D01*
X003240Y027998D01*
X003498Y027740D01*
X003680Y027759D02*
X003680Y027759D01*
X003680Y027918D02*
X003680Y027918D01*
X003680Y028076D02*
X003680Y028076D01*
X003680Y028235D02*
X003680Y028235D01*
X003680Y028393D02*
X003680Y028393D01*
X003680Y028552D02*
X003680Y028552D01*
X003931Y028552D02*
X007401Y028552D01*
X007243Y028393D02*
X004089Y028393D01*
X004120Y028235D02*
X007220Y028235D01*
X007220Y028076D02*
X004120Y028076D01*
X004040Y027918D02*
X007292Y027918D01*
X007450Y027759D02*
X003881Y027759D01*
X003320Y027918D02*
X000660Y027918D01*
X000660Y028076D02*
X003240Y028076D01*
X003240Y028235D02*
X000660Y028235D01*
X000660Y028393D02*
X003271Y028393D01*
X003429Y028552D02*
X000660Y028552D01*
X000660Y028710D02*
X009900Y028710D01*
X010460Y028710D02*
X010900Y028710D01*
X010742Y028869D02*
X010618Y028869D01*
X010607Y029503D02*
X010753Y029503D01*
X010912Y029661D02*
X010448Y029661D01*
X009912Y029661D02*
X009152Y029661D01*
X009310Y029503D02*
X009753Y029503D01*
X008993Y029820D02*
X015867Y029820D01*
X016025Y029978D02*
X008797Y029978D01*
X008563Y029344D02*
X007995Y029344D01*
X007365Y029344D02*
X003966Y029344D01*
X003862Y029240D02*
X003680Y029240D01*
X003680Y029680D01*
X004120Y029680D01*
X004120Y029862D01*
X003862Y030120D01*
X003680Y030120D01*
X003680Y029680D01*
X003680Y029680D01*
X003680Y029680D01*
X004120Y029680D01*
X004120Y029498D01*
X003862Y029240D01*
X003680Y029240D02*
X003680Y029680D01*
X003680Y029680D01*
X003680Y029680D01*
X003240Y029680D01*
X003240Y029862D01*
X003498Y030120D01*
X003680Y030120D01*
X003680Y029680D01*
X003240Y029680D01*
X003240Y029498D01*
X003498Y029240D01*
X003680Y029240D01*
X003680Y029344D02*
X003680Y029344D01*
X003680Y029503D02*
X003680Y029503D01*
X003680Y029661D02*
X003680Y029661D01*
X003680Y029820D02*
X003680Y029820D01*
X003680Y029978D02*
X003680Y029978D01*
X004004Y029978D02*
X007328Y029978D01*
X007220Y029820D02*
X004120Y029820D01*
X004120Y029661D02*
X007220Y029661D01*
X007220Y029503D02*
X004120Y029503D01*
X003394Y029344D02*
X002414Y029344D01*
X002570Y029503D02*
X003240Y029503D01*
X003240Y029661D02*
X002662Y029661D01*
X002732Y029820D02*
X003240Y029820D01*
X003356Y029978D02*
X002775Y029978D01*
X002790Y030137D02*
X007486Y030137D01*
X007874Y030137D02*
X016184Y030137D01*
X016342Y030295D02*
X002790Y030295D01*
X002756Y030454D02*
X016501Y030454D01*
X016659Y030612D02*
X002712Y030612D01*
X002621Y030771D02*
X016818Y030771D01*
X016976Y030929D02*
X002501Y030929D01*
X002328Y031088D02*
X031532Y031088D01*
X031359Y030929D02*
X028883Y030929D01*
X029042Y030771D02*
X031239Y030771D01*
X031148Y030612D02*
X029200Y030612D01*
X029359Y030454D02*
X031104Y030454D01*
X031070Y030295D02*
X029518Y030295D01*
X029676Y030137D02*
X031070Y030137D01*
X031085Y029978D02*
X029835Y029978D01*
X029993Y029820D02*
X031128Y029820D01*
X031198Y029661D02*
X030152Y029661D01*
X030310Y029503D02*
X031290Y029503D01*
X031446Y029344D02*
X030469Y029344D01*
X030627Y029186D02*
X031683Y029186D01*
X031103Y028710D02*
X033070Y028710D01*
X033070Y028552D02*
X031261Y028552D01*
X031420Y028393D02*
X033070Y028393D01*
X033070Y028235D02*
X031578Y028235D01*
X031737Y028076D02*
X033070Y028076D01*
X033070Y027918D02*
X031895Y027918D01*
X032054Y027759D02*
X033070Y027759D01*
X033070Y027601D02*
X032212Y027601D01*
X032371Y027442D02*
X033070Y027442D01*
X033070Y027284D02*
X032529Y027284D01*
X032688Y027125D02*
X033070Y027125D01*
X033070Y026967D02*
X032750Y026967D01*
X032750Y026808D02*
X033070Y026808D01*
X033070Y026650D02*
X032750Y026650D01*
X032750Y026491D02*
X033070Y026491D01*
X033070Y026333D02*
X032750Y026333D01*
X032750Y026174D02*
X033070Y026174D01*
X033070Y026016D02*
X032750Y026016D01*
X032750Y025857D02*
X033070Y025857D01*
X033070Y025699D02*
X032750Y025699D01*
X032750Y025540D02*
X033070Y025540D01*
X033070Y025382D02*
X032750Y025382D01*
X032750Y025223D02*
X033070Y025223D01*
X033070Y025065D02*
X032750Y025065D01*
X032750Y024906D02*
X033070Y024906D01*
X033070Y024748D02*
X032750Y024748D01*
X032750Y024589D02*
X033070Y024589D01*
X033070Y024431D02*
X032750Y024431D01*
X032750Y024272D02*
X033070Y024272D01*
X033070Y024114D02*
X032750Y024114D01*
X032750Y023955D02*
X033070Y023955D01*
X033070Y023797D02*
X032750Y023797D01*
X032750Y023638D02*
X033070Y023638D01*
X033070Y023480D02*
X032750Y023480D01*
X032750Y023321D02*
X033070Y023321D01*
X033070Y023163D02*
X032750Y023163D01*
X032750Y023004D02*
X033070Y023004D01*
X033070Y022846D02*
X032750Y022846D01*
X032750Y022687D02*
X033070Y022687D01*
X033070Y022529D02*
X032750Y022529D01*
X032750Y022370D02*
X033070Y022370D01*
X033070Y022212D02*
X032750Y022212D01*
X032750Y022053D02*
X033070Y022053D01*
X033070Y021895D02*
X032750Y021895D01*
X032750Y021736D02*
X033070Y021736D01*
X033070Y021578D02*
X032750Y021578D01*
X032750Y021419D02*
X033070Y021419D01*
X033070Y021261D02*
X032750Y021261D01*
X032750Y021102D02*
X033070Y021102D01*
X033070Y020944D02*
X032750Y020944D01*
X032750Y020785D02*
X033070Y020785D01*
X033070Y020627D02*
X032750Y020627D01*
X032750Y020468D02*
X033070Y020468D01*
X033070Y020310D02*
X032750Y020310D01*
X032750Y020151D02*
X033070Y020151D01*
X033070Y019993D02*
X032750Y019993D01*
X032737Y019834D02*
X033070Y019834D01*
X033070Y019676D02*
X032628Y019676D01*
X032470Y019517D02*
X033070Y019517D01*
X033070Y019359D02*
X032311Y019359D01*
X032153Y019200D02*
X033070Y019200D01*
X033070Y019042D02*
X031994Y019042D01*
X031836Y018883D02*
X033070Y018883D01*
X033070Y018725D02*
X031677Y018725D01*
X031474Y018566D02*
X033070Y018566D01*
X033070Y018408D02*
X031067Y018408D01*
X030903Y018029D02*
X030816Y018057D01*
X030726Y018071D01*
X030718Y018071D01*
X030718Y017529D01*
X031260Y017529D01*
X031260Y017537D01*
X031246Y017627D01*
X031218Y017714D01*
X031176Y017795D01*
X031122Y017869D01*
X031058Y017933D01*
X030984Y017987D01*
X030903Y018029D01*
X031059Y017932D02*
X033070Y017932D01*
X033070Y017774D02*
X031187Y017774D01*
X031248Y017615D02*
X033070Y017615D01*
X033070Y017457D02*
X030718Y017457D01*
X030718Y017453D02*
X030718Y017529D01*
X030642Y017529D01*
X030642Y017453D01*
X030718Y017453D01*
X030718Y016911D01*
X030726Y016911D01*
X030816Y016925D01*
X030903Y016954D01*
X030984Y016995D01*
X031058Y017049D01*
X031122Y017113D01*
X031176Y017187D01*
X031218Y017268D01*
X031246Y017355D01*
X031260Y017445D01*
X031260Y017453D01*
X030718Y017453D01*
X030642Y017453D02*
X030642Y016911D01*
X030634Y016911D01*
X030544Y016925D01*
X030457Y016954D01*
X030376Y016995D01*
X030302Y017049D01*
X030238Y017113D01*
X030184Y017187D01*
X030142Y017268D01*
X030114Y017355D01*
X030100Y017445D01*
X030100Y017453D01*
X030642Y017453D01*
X030642Y017457D02*
X020096Y017457D01*
X020095Y017458D02*
X019958Y017595D01*
X019777Y017670D01*
X019583Y017670D01*
X019402Y017595D01*
X019265Y017458D01*
X019190Y017277D01*
X019190Y017083D01*
X019265Y016902D01*
X019402Y016765D01*
X019583Y016690D01*
X019777Y016690D01*
X019958Y016765D01*
X020095Y016902D01*
X020170Y017083D01*
X020170Y017277D01*
X020095Y017458D01*
X020161Y017298D02*
X030133Y017298D01*
X030218Y017140D02*
X020170Y017140D01*
X020128Y016981D02*
X030403Y016981D01*
X030642Y016981D02*
X030718Y016981D01*
X030718Y017140D02*
X030642Y017140D01*
X030642Y017298D02*
X030718Y017298D01*
X030642Y017529D02*
X030100Y017529D01*
X030100Y017537D01*
X030114Y017627D01*
X030142Y017714D01*
X030184Y017795D01*
X030238Y017869D01*
X030302Y017933D01*
X030376Y017987D01*
X030457Y018029D01*
X030544Y018057D01*
X030634Y018071D01*
X030642Y018071D01*
X030642Y017529D01*
X030642Y017615D02*
X030718Y017615D01*
X030718Y017774D02*
X030642Y017774D01*
X030642Y017932D02*
X030718Y017932D01*
X030301Y017932D02*
X020885Y017932D01*
X020861Y017909D02*
X020951Y017999D01*
X024325Y021372D01*
X030080Y021372D01*
X030080Y021209D01*
X030197Y021092D01*
X031163Y021092D01*
X031280Y021209D01*
X031280Y022175D01*
X031163Y022292D01*
X030197Y022292D01*
X030080Y022175D01*
X030080Y022012D01*
X024128Y022012D01*
X024011Y021963D01*
X020547Y018500D01*
X020053Y018500D01*
X019958Y018595D01*
X019777Y018670D01*
X019583Y018670D01*
X019402Y018595D01*
X019265Y018458D01*
X019190Y018277D01*
X019190Y018083D01*
X019265Y017902D01*
X019402Y017765D01*
X019583Y017690D01*
X019777Y017690D01*
X019958Y017765D01*
X020053Y017860D01*
X020744Y017860D01*
X020861Y017909D01*
X021043Y018091D02*
X033070Y018091D01*
X033070Y018249D02*
X021202Y018249D01*
X021360Y018408D02*
X030293Y018408D01*
X030156Y018566D02*
X021519Y018566D01*
X021677Y018725D02*
X030090Y018725D01*
X030080Y018883D02*
X021836Y018883D01*
X021994Y019042D02*
X030102Y019042D01*
X030168Y019200D02*
X022153Y019200D01*
X022311Y019359D02*
X030321Y019359D01*
X030492Y019676D02*
X022628Y019676D01*
X022787Y019834D02*
X030244Y019834D01*
X030136Y019993D02*
X022945Y019993D01*
X023104Y020151D02*
X030080Y020151D01*
X030080Y020310D02*
X023262Y020310D01*
X023421Y020468D02*
X030122Y020468D01*
X030211Y020627D02*
X023579Y020627D01*
X023738Y020785D02*
X030411Y020785D01*
X030187Y021102D02*
X024055Y021102D01*
X024213Y021261D02*
X030080Y021261D01*
X030080Y022053D02*
X024006Y022053D01*
X023942Y021895D02*
X023847Y021895D01*
X023783Y021736D02*
X023689Y021736D01*
X023625Y021578D02*
X023530Y021578D01*
X023466Y021419D02*
X023372Y021419D01*
X023308Y021261D02*
X023213Y021261D01*
X023149Y021102D02*
X023055Y021102D01*
X022991Y020944D02*
X022896Y020944D01*
X022832Y020785D02*
X022738Y020785D01*
X022674Y020627D02*
X022579Y020627D01*
X022515Y020468D02*
X022421Y020468D01*
X022357Y020310D02*
X022262Y020310D01*
X022198Y020151D02*
X022104Y020151D01*
X022040Y019993D02*
X021945Y019993D01*
X021881Y019834D02*
X021787Y019834D01*
X021723Y019676D02*
X021628Y019676D01*
X021564Y019517D02*
X021470Y019517D01*
X021406Y019359D02*
X021311Y019359D01*
X021247Y019200D02*
X021153Y019200D01*
X021089Y019042D02*
X020994Y019042D01*
X020951Y018999D02*
X024703Y022750D01*
X030163Y022750D01*
X030171Y022730D01*
X030340Y022561D01*
X030561Y022470D01*
X030799Y022470D01*
X031020Y022561D01*
X031189Y022730D01*
X031280Y022951D01*
X031280Y023189D01*
X031189Y023410D01*
X031020Y023579D01*
X030799Y023670D01*
X030561Y023670D01*
X030340Y023579D01*
X030171Y023410D01*
X030163Y023390D01*
X024506Y023390D01*
X024389Y023341D01*
X020547Y019500D01*
X020053Y019500D01*
X019958Y019595D01*
X019777Y019670D01*
X019583Y019670D01*
X019402Y019595D01*
X019265Y019458D01*
X019190Y019277D01*
X019190Y019083D01*
X019265Y018902D01*
X019402Y018765D01*
X019583Y018690D01*
X019777Y018690D01*
X019958Y018765D01*
X020053Y018860D01*
X020744Y018860D01*
X020861Y018909D01*
X020951Y018999D01*
X020930Y018883D02*
X020799Y018883D01*
X020772Y018725D02*
X019861Y018725D01*
X019987Y018566D02*
X020613Y018566D01*
X020564Y019517D02*
X020036Y019517D01*
X019958Y019765D02*
X020095Y019902D01*
X020170Y020083D01*
X020170Y020277D01*
X020095Y020458D01*
X019958Y020595D01*
X019777Y020670D01*
X019583Y020670D01*
X019402Y020595D01*
X019265Y020458D01*
X019190Y020277D01*
X019190Y020083D01*
X019265Y019902D01*
X019402Y019765D01*
X019583Y019690D01*
X019777Y019690D01*
X019958Y019765D01*
X020027Y019834D02*
X020881Y019834D01*
X020723Y019676D02*
X016000Y019676D01*
X016000Y019834D02*
X019333Y019834D01*
X019227Y019993D02*
X016000Y019993D01*
X016000Y020151D02*
X019190Y020151D01*
X019203Y020310D02*
X016000Y020310D01*
X016000Y020468D02*
X019275Y020468D01*
X019478Y020627D02*
X016000Y020627D01*
X016000Y020785D02*
X019382Y020785D01*
X019402Y020765D02*
X019583Y020690D01*
X019777Y020690D01*
X019958Y020765D01*
X020095Y020902D01*
X020170Y021083D01*
X020170Y021277D01*
X020095Y021458D01*
X019958Y021595D01*
X019777Y021670D01*
X019583Y021670D01*
X019402Y021595D01*
X019265Y021458D01*
X019190Y021277D01*
X019190Y021083D01*
X019265Y020902D01*
X019402Y020765D01*
X019248Y020944D02*
X016000Y020944D01*
X016000Y021102D02*
X019190Y021102D01*
X019190Y021261D02*
X016000Y021261D01*
X016000Y021419D02*
X019249Y021419D01*
X019385Y021578D02*
X016000Y021578D01*
X016000Y021736D02*
X019471Y021736D01*
X019402Y021765D02*
X019583Y021690D01*
X019777Y021690D01*
X019958Y021765D01*
X020095Y021902D01*
X020170Y022083D01*
X020170Y022277D01*
X020095Y022458D01*
X019958Y022595D01*
X019777Y022670D01*
X019583Y022670D01*
X019402Y022595D01*
X019265Y022458D01*
X019190Y022277D01*
X019190Y022083D01*
X019265Y021902D01*
X019402Y021765D01*
X019273Y021895D02*
X016000Y021895D01*
X016000Y022053D02*
X019202Y022053D01*
X019190Y022212D02*
X016000Y022212D01*
X016000Y022370D02*
X019228Y022370D01*
X019336Y022529D02*
X016000Y022529D01*
X016000Y022687D02*
X023734Y022687D01*
X023576Y022529D02*
X020024Y022529D01*
X020132Y022370D02*
X023417Y022370D01*
X023259Y022212D02*
X020170Y022212D01*
X020158Y022053D02*
X023100Y022053D01*
X022942Y021895D02*
X020087Y021895D01*
X019889Y021736D02*
X022783Y021736D01*
X022625Y021578D02*
X019975Y021578D01*
X020111Y021419D02*
X022466Y021419D01*
X022308Y021261D02*
X020170Y021261D01*
X020170Y021102D02*
X022149Y021102D01*
X021991Y020944D02*
X020112Y020944D01*
X019978Y020785D02*
X021832Y020785D01*
X021674Y020627D02*
X019882Y020627D01*
X020085Y020468D02*
X021515Y020468D01*
X021357Y020310D02*
X020157Y020310D01*
X020170Y020151D02*
X021198Y020151D01*
X021040Y019993D02*
X020133Y019993D01*
X019324Y019517D02*
X016000Y019517D01*
X016000Y019359D02*
X019224Y019359D01*
X019190Y019200D02*
X016000Y019200D01*
X016000Y019042D02*
X019207Y019042D01*
X019284Y018883D02*
X016000Y018883D01*
X016000Y018725D02*
X019499Y018725D01*
X019373Y018566D02*
X016000Y018566D01*
X016000Y018408D02*
X019244Y018408D01*
X019190Y018249D02*
X016000Y018249D01*
X016000Y018091D02*
X019190Y018091D01*
X019252Y017932D02*
X016000Y017932D01*
X016000Y017774D02*
X019394Y017774D01*
X019450Y017615D02*
X016000Y017615D01*
X016000Y017457D02*
X019264Y017457D01*
X019199Y017298D02*
X016000Y017298D01*
X016000Y017140D02*
X019190Y017140D01*
X019232Y016981D02*
X016000Y016981D01*
X016000Y016823D02*
X019345Y016823D01*
X019402Y016595D02*
X019265Y016458D01*
X019190Y016277D01*
X019190Y016083D01*
X019265Y015902D01*
X019402Y015765D01*
X019583Y015690D01*
X019777Y015690D01*
X019958Y015765D01*
X020095Y015902D01*
X020170Y016083D01*
X020170Y016277D01*
X020095Y016458D01*
X019958Y016595D01*
X019777Y016670D01*
X019583Y016670D01*
X019402Y016595D01*
X019313Y016506D02*
X019047Y016506D01*
X019095Y016458D02*
X018958Y016595D01*
X018777Y016670D01*
X018583Y016670D01*
X018402Y016595D01*
X018265Y016458D01*
X018190Y016277D01*
X018190Y016083D01*
X018265Y015902D01*
X018360Y015807D01*
X018360Y015313D01*
X017547Y014500D01*
X015116Y014500D01*
X014999Y014451D01*
X014187Y013640D01*
X013989Y013640D01*
X013720Y013371D01*
X013720Y012989D01*
X013989Y012720D01*
X014371Y012720D01*
X014640Y012989D01*
X014640Y013187D01*
X015313Y013860D01*
X017744Y013860D01*
X017861Y013909D01*
X017951Y013999D01*
X018951Y014999D01*
X019000Y015116D01*
X019000Y015807D01*
X019095Y015902D01*
X019170Y016083D01*
X019170Y016277D01*
X019095Y016458D01*
X019141Y016347D02*
X019219Y016347D01*
X019190Y016189D02*
X019170Y016189D01*
X019148Y016030D02*
X019212Y016030D01*
X019296Y015872D02*
X019064Y015872D01*
X019000Y015713D02*
X019527Y015713D01*
X019833Y015713D02*
X030080Y015713D01*
X030080Y015630D02*
X030197Y015513D01*
X030200Y015513D01*
X030200Y009660D01*
X023628Y009660D01*
X023579Y009680D01*
X022781Y009680D01*
X022597Y009604D01*
X022493Y009500D01*
X021313Y009500D01*
X018451Y012361D01*
X018451Y012361D01*
X018361Y012451D01*
X018244Y012500D01*
X016313Y012500D01*
X016000Y012813D01*
X016000Y012849D01*
X016140Y012989D01*
X016140Y013371D01*
X015871Y013640D01*
X015489Y013640D01*
X015220Y013371D01*
X015220Y012989D01*
X015360Y012849D01*
X015360Y012616D01*
X015409Y012499D01*
X015909Y011999D01*
X015999Y011909D01*
X016116Y011860D01*
X018047Y011860D01*
X020909Y008999D01*
X020909Y008999D01*
X020999Y008909D01*
X021116Y008860D01*
X022493Y008860D01*
X022597Y008756D01*
X022781Y008680D01*
X023579Y008680D01*
X023628Y008700D01*
X030232Y008700D01*
X030281Y008680D01*
X031079Y008680D01*
X031263Y008756D01*
X031404Y008897D01*
X031480Y009081D01*
X031480Y009279D01*
X031404Y009463D01*
X031263Y009604D01*
X031160Y009647D01*
X031160Y015513D01*
X031163Y015513D01*
X031280Y015630D01*
X031280Y016596D01*
X031163Y016713D01*
X030197Y016713D01*
X030080Y016596D01*
X030080Y015630D01*
X030156Y015555D02*
X019000Y015555D01*
X019000Y015396D02*
X030200Y015396D01*
X030200Y015238D02*
X019000Y015238D01*
X018985Y015079D02*
X030200Y015079D01*
X030200Y014921D02*
X018873Y014921D01*
X018715Y014762D02*
X030200Y014762D01*
X030200Y014604D02*
X018556Y014604D01*
X018398Y014445D02*
X030200Y014445D01*
X030200Y014287D02*
X018239Y014287D01*
X018081Y014128D02*
X030200Y014128D01*
X030200Y013970D02*
X017922Y013970D01*
X017488Y013494D02*
X030200Y013494D01*
X030200Y013336D02*
X017620Y013336D01*
X017620Y013362D02*
X017362Y013620D01*
X017180Y013620D01*
X017180Y013180D01*
X017180Y013180D01*
X017620Y013180D01*
X017620Y013362D01*
X017620Y013180D02*
X017180Y013180D01*
X017180Y013180D01*
X017180Y013180D01*
X016740Y013180D01*
X016740Y013362D01*
X016998Y013620D01*
X017180Y013620D01*
X017180Y013180D01*
X017180Y012740D01*
X017362Y012740D01*
X017620Y012998D01*
X017620Y013180D01*
X017620Y013177D02*
X030200Y013177D01*
X030200Y013019D02*
X017620Y013019D01*
X017482Y012860D02*
X030200Y012860D01*
X030200Y012702D02*
X016111Y012702D01*
X016011Y012860D02*
X016878Y012860D01*
X016998Y012740D02*
X016740Y012998D01*
X016740Y013180D01*
X017180Y013180D01*
X017180Y013180D01*
X017180Y012740D01*
X016998Y012740D01*
X017180Y012860D02*
X017180Y012860D01*
X017180Y013019D02*
X017180Y013019D01*
X017180Y013177D02*
X017180Y013177D01*
X017180Y013336D02*
X017180Y013336D01*
X017180Y013494D02*
X017180Y013494D01*
X016872Y013494D02*
X016017Y013494D01*
X016140Y013336D02*
X016740Y013336D01*
X016740Y013177D02*
X016140Y013177D01*
X016140Y013019D02*
X016740Y013019D01*
X016270Y012543D02*
X030200Y012543D01*
X030200Y012385D02*
X018428Y012385D01*
X018587Y012226D02*
X021236Y012226D01*
X021283Y012273D02*
X021087Y012077D01*
X020980Y011819D01*
X020980Y011541D01*
X021087Y011283D01*
X021283Y011087D01*
X021541Y010980D01*
X021819Y010980D01*
X022077Y011087D01*
X022273Y011283D01*
X022380Y011541D01*
X022380Y011819D01*
X022273Y012077D01*
X022077Y012273D01*
X021819Y012380D01*
X021541Y012380D01*
X021283Y012273D01*
X021083Y012068D02*
X018745Y012068D01*
X018904Y011909D02*
X021017Y011909D01*
X020980Y011751D02*
X019062Y011751D01*
X019221Y011592D02*
X020980Y011592D01*
X021024Y011434D02*
X019379Y011434D01*
X019538Y011275D02*
X021095Y011275D01*
X021254Y011117D02*
X019696Y011117D01*
X019855Y010958D02*
X030200Y010958D01*
X030200Y010800D02*
X020013Y010800D01*
X020172Y010641D02*
X030200Y010641D01*
X030200Y010483D02*
X020330Y010483D01*
X020489Y010324D02*
X030200Y010324D01*
X030200Y010166D02*
X020647Y010166D01*
X020806Y010007D02*
X030200Y010007D01*
X030200Y009849D02*
X020964Y009849D01*
X021123Y009690D02*
X030200Y009690D01*
X031160Y009690D02*
X033070Y009690D01*
X033070Y009532D02*
X031336Y009532D01*
X031441Y009373D02*
X033070Y009373D01*
X033070Y009215D02*
X031480Y009215D01*
X031470Y009056D02*
X033070Y009056D01*
X033070Y008898D02*
X031404Y008898D01*
X031222Y008739D02*
X033070Y008739D01*
X033070Y008581D02*
X031958Y008581D01*
X032117Y008422D02*
X033070Y008422D01*
X033070Y008264D02*
X032275Y008264D01*
X032434Y008105D02*
X033070Y008105D01*
X033070Y007947D02*
X032589Y007947D01*
X032655Y007788D02*
X033070Y007788D01*
X033070Y007630D02*
X032660Y007630D01*
X032660Y007471D02*
X033070Y007471D01*
X033070Y007313D02*
X032660Y007313D01*
X032660Y007154D02*
X033070Y007154D01*
X033070Y006996D02*
X032660Y006996D01*
X032660Y006837D02*
X033070Y006837D01*
X033070Y006679D02*
X032660Y006679D01*
X032660Y006520D02*
X033070Y006520D01*
X033070Y006362D02*
X032660Y006362D01*
X032660Y006203D02*
X033070Y006203D01*
X033070Y006045D02*
X032643Y006045D01*
X032565Y005886D02*
X033070Y005886D01*
X033070Y005728D02*
X032406Y005728D01*
X032248Y005569D02*
X033070Y005569D01*
X033070Y005411D02*
X020089Y005411D01*
X019931Y005252D02*
X021262Y005252D01*
X021283Y005273D02*
X021087Y005077D01*
X020980Y004819D01*
X020980Y004541D01*
X021087Y004283D01*
X021283Y004087D01*
X021541Y003980D01*
X021819Y003980D01*
X022077Y004087D01*
X022273Y004283D01*
X022380Y004541D01*
X022380Y004819D01*
X022273Y005077D01*
X022077Y005273D01*
X021819Y005380D01*
X021541Y005380D01*
X021283Y005273D01*
X021104Y005094D02*
X019772Y005094D01*
X019614Y004935D02*
X021028Y004935D01*
X020980Y004777D02*
X019455Y004777D01*
X019297Y004618D02*
X020980Y004618D01*
X021014Y004460D02*
X019138Y004460D01*
X018980Y004301D02*
X021079Y004301D01*
X021228Y004143D02*
X018821Y004143D01*
X018663Y003984D02*
X021531Y003984D01*
X021829Y003984D02*
X029031Y003984D01*
X029041Y003980D02*
X029319Y003980D01*
X029577Y004087D01*
X029773Y004283D01*
X029880Y004541D01*
X029880Y004819D01*
X029773Y005077D01*
X029577Y005273D01*
X029319Y005380D01*
X029041Y005380D01*
X028783Y005273D01*
X028587Y005077D01*
X028480Y004819D01*
X028480Y004541D01*
X028587Y004283D01*
X028783Y004087D01*
X029041Y003980D01*
X029329Y003984D02*
X033070Y003984D01*
X033070Y003826D02*
X018504Y003826D01*
X017620Y003362D02*
X017362Y003620D01*
X017180Y003620D01*
X017180Y003180D01*
X017180Y003180D01*
X017620Y003180D01*
X017620Y003362D01*
X017620Y003350D02*
X033070Y003350D01*
X033070Y003192D02*
X017620Y003192D01*
X017620Y003180D02*
X017180Y003180D01*
X017180Y003180D01*
X017180Y003180D01*
X016740Y003180D01*
X016740Y003362D01*
X016998Y003620D01*
X017180Y003620D01*
X017180Y003180D01*
X017180Y002740D01*
X017362Y002740D01*
X017620Y002998D01*
X017620Y003180D01*
X017620Y003033D02*
X033070Y003033D01*
X033070Y002875D02*
X017497Y002875D01*
X017180Y002875D02*
X017180Y002875D01*
X017180Y002740D02*
X017180Y003180D01*
X017180Y003180D01*
X016740Y003180D01*
X016740Y002998D01*
X016998Y002740D01*
X017180Y002740D01*
X017180Y003033D02*
X017180Y003033D01*
X017180Y003192D02*
X017180Y003192D01*
X017180Y003350D02*
X017180Y003350D01*
X017180Y003509D02*
X017180Y003509D01*
X017474Y003509D02*
X033070Y003509D01*
X033070Y003667D02*
X014815Y003667D01*
X014545Y003667D02*
X004415Y003667D01*
X004257Y003509D02*
X014294Y003509D01*
X014204Y003350D02*
X004000Y003350D01*
X003700Y003192D02*
X014175Y003192D01*
X014680Y003033D02*
X014680Y003033D01*
X014680Y002875D02*
X014680Y002875D01*
X014680Y002716D02*
X014680Y002716D01*
X014882Y002716D02*
X031758Y002716D01*
X031488Y002558D02*
X002372Y002558D01*
X002531Y002399D02*
X031329Y002399D01*
X031222Y002241D02*
X002638Y002241D01*
X002721Y002082D02*
X031139Y002082D01*
X031096Y001924D02*
X002764Y001924D01*
X002790Y001765D02*
X031070Y001765D01*
X031070Y001607D02*
X002790Y001607D01*
X002767Y001448D02*
X031093Y001448D01*
X031136Y001290D02*
X002724Y001290D01*
X002645Y001131D02*
X031215Y001131D01*
X031318Y000973D02*
X002542Y000973D01*
X002384Y000814D02*
X031476Y000814D01*
X033031Y002399D02*
X033070Y002399D01*
X033070Y002558D02*
X032872Y002558D01*
X033070Y002716D02*
X032602Y002716D01*
X033070Y004143D02*
X029632Y004143D01*
X029781Y004301D02*
X033070Y004301D01*
X033070Y004460D02*
X029846Y004460D01*
X029880Y004618D02*
X033070Y004618D01*
X033070Y004777D02*
X029880Y004777D01*
X029832Y004935D02*
X033070Y004935D01*
X033070Y005094D02*
X029756Y005094D01*
X029598Y005252D02*
X033070Y005252D01*
X031700Y006520D02*
X016473Y006520D01*
X016631Y006679D02*
X031700Y006679D01*
X031700Y006837D02*
X031344Y006837D01*
X031445Y006996D02*
X031700Y006996D01*
X031700Y007154D02*
X031480Y007154D01*
X031466Y007313D02*
X031700Y007313D01*
X031700Y007471D02*
X031396Y007471D01*
X031552Y007630D02*
X031201Y007630D01*
X030159Y007630D02*
X023701Y007630D01*
X023579Y007680D02*
X022781Y007680D01*
X022732Y007700D01*
X019585Y007700D01*
X019408Y007773D01*
X019273Y007908D01*
X016481Y010700D01*
X012879Y010700D01*
X012160Y009981D01*
X012160Y009393D01*
X012205Y009284D01*
X012205Y009076D01*
X012160Y008967D01*
X012160Y008085D01*
X012087Y007908D01*
X011952Y007773D01*
X011896Y007750D01*
X012516Y007750D01*
X012419Y007790D01*
X012290Y007919D01*
X012220Y008088D01*
X012220Y008271D01*
X012290Y008441D01*
X012360Y008511D01*
X012360Y008849D01*
X012220Y008989D01*
X012220Y009371D01*
X012489Y009640D01*
X012871Y009640D01*
X013011Y009500D01*
X013849Y009500D01*
X013989Y009640D01*
X014371Y009640D01*
X014640Y009371D01*
X014640Y008989D01*
X014371Y008720D01*
X013989Y008720D01*
X013849Y008860D01*
X013011Y008860D01*
X013000Y008849D01*
X013000Y008511D01*
X013070Y008441D01*
X013140Y008271D01*
X013140Y008088D01*
X013070Y007919D01*
X012941Y007790D01*
X012844Y007750D01*
X013297Y007750D01*
X013360Y007813D01*
X013360Y007849D01*
X013290Y007919D01*
X013220Y008088D01*
X013220Y008271D01*
X013290Y008441D01*
X013419Y008570D01*
X013588Y008640D01*
X013771Y008640D01*
X013941Y008570D01*
X014070Y008441D01*
X014140Y008271D01*
X014140Y008088D01*
X014070Y007919D01*
X014000Y007849D01*
X014000Y007616D01*
X013951Y007499D01*
X013703Y007250D01*
X014047Y007250D01*
X014360Y007563D01*
X014360Y007849D01*
X014290Y007919D01*
X014220Y008088D01*
X014220Y008271D01*
X014290Y008441D01*
X014419Y008570D01*
X014588Y008640D01*
X014771Y008640D01*
X014941Y008570D01*
X015070Y008441D01*
X015140Y008271D01*
X015140Y008088D01*
X015070Y007919D01*
X015000Y007849D01*
X015000Y007366D01*
X014951Y007249D01*
X014861Y007159D01*
X014861Y007159D01*
X014453Y006750D01*
X014547Y006750D01*
X015360Y007563D01*
X015360Y008849D01*
X015220Y008989D01*
X015220Y009371D01*
X015489Y009640D01*
X015871Y009640D01*
X016011Y009500D01*
X016849Y009500D01*
X016989Y009640D01*
X017371Y009640D01*
X017640Y009371D01*
X017640Y008989D01*
X017371Y008720D01*
X016989Y008720D01*
X016849Y008860D01*
X016011Y008860D01*
X016000Y008849D01*
X016000Y007366D01*
X015951Y007249D01*
X014953Y006250D01*
X015297Y006250D01*
X016499Y007451D01*
X016616Y007500D01*
X016849Y007500D01*
X016989Y007640D01*
X017371Y007640D01*
X017511Y007500D01*
X022493Y007500D01*
X022597Y007604D01*
X022781Y007680D01*
X023579Y007680D01*
X023795Y007788D02*
X030065Y007788D01*
X029936Y007947D02*
X023924Y007947D01*
X023980Y008105D02*
X029880Y008105D01*
X029880Y008264D02*
X023980Y008264D01*
X023921Y008422D02*
X029939Y008422D01*
X030073Y008581D02*
X023787Y008581D01*
X022638Y008739D02*
X019800Y008739D01*
X019641Y008898D02*
X021026Y008898D01*
X020851Y009056D02*
X019483Y009056D01*
X019324Y009215D02*
X020693Y009215D01*
X020534Y009373D02*
X019166Y009373D01*
X019007Y009532D02*
X020376Y009532D01*
X020217Y009690D02*
X018849Y009690D01*
X018690Y009849D02*
X020059Y009849D01*
X019900Y010007D02*
X018532Y010007D01*
X018373Y010166D02*
X019742Y010166D01*
X019583Y010324D02*
X018215Y010324D01*
X018056Y010483D02*
X019425Y010483D01*
X019266Y010641D02*
X017898Y010641D01*
X017739Y010800D02*
X019108Y010800D01*
X018949Y010958D02*
X017581Y010958D01*
X017422Y011117D02*
X018791Y011117D01*
X018632Y011275D02*
X017264Y011275D01*
X017105Y011434D02*
X018474Y011434D01*
X018315Y011592D02*
X016940Y011592D01*
X015998Y011909D02*
X010630Y011909D01*
X010788Y011751D02*
X018157Y011751D01*
X016857Y010324D02*
X012503Y010324D01*
X012661Y010483D02*
X016699Y010483D01*
X016540Y010641D02*
X012820Y010641D01*
X012344Y010166D02*
X017016Y010166D01*
X017174Y010007D02*
X012186Y010007D01*
X012160Y009849D02*
X017333Y009849D01*
X017491Y009690D02*
X012160Y009690D01*
X012160Y009532D02*
X012381Y009532D01*
X012222Y009373D02*
X012168Y009373D01*
X012205Y009215D02*
X012220Y009215D01*
X012220Y009056D02*
X012197Y009056D01*
X012160Y008898D02*
X012312Y008898D01*
X012360Y008739D02*
X012160Y008739D01*
X012160Y008581D02*
X012360Y008581D01*
X012282Y008422D02*
X012160Y008422D01*
X012160Y008264D02*
X012220Y008264D01*
X012220Y008105D02*
X012160Y008105D01*
X012103Y007947D02*
X012279Y007947D01*
X012424Y007788D02*
X011967Y007788D01*
X011393Y007788D02*
X010525Y007788D01*
X010366Y007947D02*
X011257Y007947D01*
X011200Y008105D02*
X010208Y008105D01*
X010049Y008264D02*
X011200Y008264D01*
X011200Y008422D02*
X010000Y008422D01*
X010000Y008581D02*
X011200Y008581D01*
X011200Y008739D02*
X010927Y008739D01*
X011099Y008898D02*
X011200Y008898D01*
X011192Y009373D02*
X011148Y009373D01*
X011200Y009532D02*
X011043Y009532D01*
X011200Y009690D02*
X010000Y009690D01*
X010000Y009532D02*
X010317Y009532D01*
X010295Y009509D02*
X010248Y009445D01*
X010212Y009374D01*
X010187Y009298D01*
X010175Y009220D01*
X010175Y009180D01*
X010680Y009180D01*
X010680Y009180D01*
X010680Y009180D01*
X010680Y009685D01*
X010640Y009685D01*
X010562Y009673D01*
X010486Y009648D01*
X010415Y009612D01*
X010351Y009565D01*
X010295Y009509D01*
X010212Y009373D02*
X010138Y009373D01*
X010140Y009215D02*
X010175Y009215D01*
X010175Y009180D02*
X010175Y009140D01*
X010187Y009062D01*
X010212Y008986D01*
X010248Y008915D01*
X010295Y008851D01*
X010351Y008795D01*
X010415Y008748D01*
X010486Y008712D01*
X010562Y008687D01*
X010640Y008675D01*
X010680Y008675D01*
X010680Y009180D01*
X010175Y009180D01*
X010189Y009056D02*
X010140Y009056D01*
X010048Y008898D02*
X010261Y008898D01*
X010433Y008739D02*
X010000Y008739D01*
X010680Y008739D02*
X010680Y008739D01*
X010680Y008898D02*
X010680Y008898D01*
X010680Y009056D02*
X010680Y009056D01*
X010680Y009215D02*
X010680Y009215D01*
X010680Y009373D02*
X010680Y009373D01*
X010680Y009532D02*
X010680Y009532D01*
X011200Y009849D02*
X010000Y009849D01*
X010140Y010007D02*
X011174Y010007D01*
X011016Y010166D02*
X010140Y010166D01*
X010140Y010324D02*
X010857Y010324D01*
X011581Y010958D02*
X011779Y010958D01*
X011938Y011117D02*
X011422Y011117D01*
X011264Y011275D02*
X012096Y011275D01*
X012255Y011434D02*
X011105Y011434D01*
X010947Y011592D02*
X012420Y011592D01*
X012498Y012740D02*
X012240Y012998D01*
X012240Y013180D01*
X012680Y013180D01*
X012680Y013180D01*
X012680Y013620D01*
X012862Y013620D01*
X013120Y013362D01*
X013120Y013180D01*
X012680Y013180D01*
X012680Y013180D01*
X012680Y013180D01*
X012680Y013620D01*
X012498Y013620D01*
X012240Y013362D01*
X012240Y013180D01*
X012680Y013180D01*
X013120Y013180D01*
X013120Y012998D01*
X012862Y012740D01*
X012680Y012740D01*
X012680Y013180D01*
X012680Y013180D01*
X012680Y012740D01*
X012498Y012740D01*
X012378Y012860D02*
X009679Y012860D01*
X009837Y012702D02*
X015360Y012702D01*
X015349Y012860D02*
X014511Y012860D01*
X014640Y013019D02*
X015220Y013019D01*
X015220Y013177D02*
X014640Y013177D01*
X014788Y013336D02*
X015220Y013336D01*
X015343Y013494D02*
X014947Y013494D01*
X015105Y013653D02*
X030200Y013653D01*
X030200Y013811D02*
X015264Y013811D01*
X014834Y014287D02*
X014739Y014287D01*
X014675Y014128D02*
X014581Y014128D01*
X014467Y014014D02*
X015951Y015499D01*
X016000Y015616D01*
X016000Y015807D01*
X016095Y015902D01*
X016170Y016083D01*
X016170Y016277D01*
X016095Y016458D01*
X016000Y016553D01*
X016000Y024047D01*
X018813Y026860D01*
X019307Y026860D01*
X019402Y026765D01*
X019583Y026690D01*
X019777Y026690D01*
X019958Y026765D01*
X020095Y026902D01*
X020170Y027083D01*
X020170Y027277D01*
X020095Y027458D01*
X019958Y027595D01*
X019777Y027670D01*
X019583Y027670D01*
X019402Y027595D01*
X019307Y027500D01*
X018616Y027500D01*
X018499Y027451D01*
X015499Y024451D01*
X015409Y024361D01*
X015360Y024244D01*
X015360Y016553D01*
X015265Y016458D01*
X015190Y016277D01*
X015190Y016083D01*
X015265Y015902D01*
X015357Y015810D01*
X014061Y014514D01*
X013580Y014506D01*
X013462Y014625D01*
X013269Y014705D01*
X013108Y014705D01*
X012451Y015361D01*
X012361Y015451D01*
X012244Y015500D01*
X010616Y015500D01*
X010499Y015451D01*
X009687Y014640D01*
X009489Y014640D01*
X009220Y014371D01*
X009220Y013989D01*
X009489Y013720D01*
X009871Y013720D01*
X010140Y013989D01*
X010140Y014187D01*
X010813Y014860D01*
X012047Y014860D01*
X012639Y014268D01*
X012639Y014076D01*
X012719Y013883D01*
X012867Y013735D01*
X013060Y013655D01*
X013269Y013655D01*
X013462Y013735D01*
X013593Y013867D01*
X014183Y013876D01*
X014259Y013876D01*
X014377Y013924D01*
X014467Y014014D01*
X014422Y013970D02*
X014517Y013970D01*
X014358Y013811D02*
X013538Y013811D01*
X013843Y013494D02*
X012988Y013494D01*
X013120Y013336D02*
X013720Y013336D01*
X013720Y013177D02*
X013120Y013177D01*
X013120Y013019D02*
X013720Y013019D01*
X013849Y012860D02*
X012982Y012860D01*
X012680Y012860D02*
X012680Y012860D01*
X012680Y013019D02*
X012680Y013019D01*
X012680Y013177D02*
X012680Y013177D01*
X012680Y013336D02*
X012680Y013336D01*
X012680Y013494D02*
X012680Y013494D01*
X012372Y013494D02*
X009045Y013494D01*
X009203Y013336D02*
X012240Y013336D01*
X012240Y013177D02*
X009362Y013177D01*
X009520Y013019D02*
X012240Y013019D01*
X012791Y013811D02*
X011541Y013811D01*
X011525Y013795D02*
X011581Y013851D01*
X011628Y013915D01*
X011664Y013986D01*
X011688Y014062D01*
X011701Y014140D01*
X011701Y014180D01*
X011701Y014220D01*
X011688Y014298D01*
X011664Y014374D01*
X011628Y014445D01*
X011581Y014509D01*
X011525Y014565D01*
X011460Y014612D01*
X011390Y014648D01*
X011314Y014673D01*
X011235Y014685D01*
X011196Y014685D01*
X011196Y014180D01*
X011701Y014180D01*
X011196Y014180D01*
X011196Y014180D01*
X011196Y013675D01*
X011235Y013675D01*
X011314Y013687D01*
X011390Y013712D01*
X011460Y013748D01*
X011525Y013795D01*
X011655Y013970D02*
X012683Y013970D01*
X012639Y014128D02*
X011699Y014128D01*
X011690Y014287D02*
X012621Y014287D01*
X012462Y014445D02*
X011627Y014445D01*
X011472Y014604D02*
X012304Y014604D01*
X012145Y014762D02*
X010715Y014762D01*
X010556Y014604D02*
X010920Y014604D01*
X010931Y014612D02*
X010867Y014565D01*
X010811Y014509D01*
X010764Y014445D01*
X010398Y014445D01*
X010239Y014287D02*
X010701Y014287D01*
X010703Y014298D02*
X010691Y014220D01*
X010691Y014180D01*
X010691Y014140D01*
X010703Y014062D01*
X010728Y013986D01*
X010764Y013915D01*
X010811Y013851D01*
X010867Y013795D01*
X010931Y013748D01*
X011002Y013712D01*
X011077Y013687D01*
X011156Y013675D01*
X011196Y013675D01*
X011196Y014180D01*
X011196Y014180D01*
X011196Y014180D01*
X011196Y014685D01*
X011156Y014685D01*
X011077Y014673D01*
X011002Y014648D01*
X010931Y014612D01*
X010764Y014445D02*
X010728Y014374D01*
X010703Y014298D01*
X010691Y014180D02*
X011196Y014180D01*
X010691Y014180D01*
X010693Y014128D02*
X010140Y014128D01*
X010120Y013970D02*
X010736Y013970D01*
X010851Y013811D02*
X009962Y013811D01*
X009398Y013811D02*
X008728Y013811D01*
X008886Y013653D02*
X014200Y013653D01*
X014151Y014604D02*
X013483Y014604D01*
X013051Y014762D02*
X014309Y014762D01*
X014468Y014921D02*
X012892Y014921D01*
X012734Y015079D02*
X014626Y015079D01*
X014785Y015238D02*
X012575Y015238D01*
X012417Y015396D02*
X014943Y015396D01*
X015102Y015555D02*
X007660Y015555D01*
X007660Y015713D02*
X013527Y015713D01*
X013833Y015713D02*
X014527Y015713D01*
X014583Y015690D02*
X014402Y015765D01*
X014265Y015902D01*
X014190Y016083D01*
X014190Y016277D01*
X014265Y016458D01*
X014402Y016595D01*
X014583Y016670D01*
X014777Y016670D01*
X014958Y016595D01*
X015095Y016458D01*
X015170Y016277D01*
X015170Y016083D01*
X015095Y015902D01*
X014958Y015765D01*
X014777Y015690D01*
X014583Y015690D01*
X014833Y015713D02*
X015260Y015713D01*
X015296Y015872D02*
X015064Y015872D01*
X015148Y016030D02*
X015212Y016030D01*
X015190Y016189D02*
X015170Y016189D01*
X015141Y016347D02*
X015219Y016347D01*
X015313Y016506D02*
X015047Y016506D01*
X014792Y016664D02*
X015360Y016664D01*
X015360Y016823D02*
X014015Y016823D01*
X013958Y016765D02*
X014095Y016902D01*
X014170Y017083D01*
X014170Y017277D01*
X014095Y017458D01*
X013958Y017595D01*
X013777Y017670D01*
X013583Y017670D01*
X013402Y017595D01*
X013265Y017458D01*
X013190Y017277D01*
X013190Y017083D01*
X013265Y016902D01*
X013402Y016765D01*
X013583Y016690D01*
X013777Y016690D01*
X013958Y016765D01*
X013792Y016664D02*
X014568Y016664D01*
X014313Y016506D02*
X014047Y016506D01*
X014141Y016347D02*
X014219Y016347D01*
X014190Y016189D02*
X014170Y016189D01*
X014148Y016030D02*
X014212Y016030D01*
X014296Y015872D02*
X014064Y015872D01*
X013313Y016506D02*
X012807Y016506D01*
X012649Y016664D02*
X013568Y016664D01*
X013345Y016823D02*
X012490Y016823D01*
X012332Y016981D02*
X013232Y016981D01*
X013190Y017140D02*
X012173Y017140D01*
X012015Y017298D02*
X013199Y017298D01*
X013264Y017457D02*
X011849Y017457D01*
X011495Y017615D02*
X013450Y017615D01*
X013583Y017690D02*
X013402Y017765D01*
X013265Y017902D01*
X013190Y018083D01*
X013190Y018277D01*
X013265Y018458D01*
X013402Y018595D01*
X013583Y018670D01*
X013777Y018670D01*
X013958Y018595D01*
X014095Y018458D01*
X014170Y018277D01*
X014170Y018083D01*
X014095Y017902D01*
X013958Y017765D01*
X013777Y017690D01*
X013583Y017690D01*
X013394Y017774D02*
X010039Y017774D01*
X009881Y017932D02*
X013252Y017932D01*
X013190Y018091D02*
X009722Y018091D01*
X009564Y018249D02*
X013190Y018249D01*
X013244Y018408D02*
X009500Y018408D01*
X009500Y018566D02*
X013373Y018566D01*
X013499Y018725D02*
X009500Y018725D01*
X009500Y018883D02*
X012561Y018883D01*
X012366Y019042D02*
X009500Y019042D01*
X009500Y019200D02*
X012207Y019200D01*
X012049Y019359D02*
X009500Y019359D01*
X008860Y019359D02*
X007660Y019359D01*
X007660Y019517D02*
X008860Y019517D01*
X008860Y019676D02*
X007822Y019676D01*
X008010Y019834D02*
X008860Y019834D01*
X008860Y019993D02*
X008089Y019993D01*
X008120Y020151D02*
X008860Y020151D01*
X008860Y020310D02*
X008113Y020310D01*
X008048Y020468D02*
X008860Y020468D01*
X008781Y020627D02*
X007910Y020627D01*
X007660Y019200D02*
X008860Y019200D01*
X008860Y019042D02*
X007660Y019042D01*
X007660Y018883D02*
X008860Y018883D01*
X008860Y018725D02*
X007660Y018725D01*
X007660Y018566D02*
X008860Y018566D01*
X008860Y018408D02*
X007660Y018408D01*
X007660Y018249D02*
X008860Y018249D01*
X008871Y018091D02*
X007660Y018091D01*
X007660Y017932D02*
X008975Y017932D01*
X009134Y017774D02*
X007660Y017774D01*
X007660Y017615D02*
X009292Y017615D01*
X009451Y017457D02*
X007660Y017457D01*
X007660Y017298D02*
X009609Y017298D01*
X009650Y017140D02*
X007660Y017140D01*
X007660Y016981D02*
X009650Y016981D01*
X009788Y016823D02*
X007660Y016823D01*
X007660Y016664D02*
X009946Y016664D01*
X010414Y016664D02*
X010946Y016664D01*
X010788Y016823D02*
X010572Y016823D01*
X010653Y017457D02*
X010707Y017457D01*
X010865Y017615D02*
X010495Y017615D01*
X011414Y016664D02*
X011743Y016664D01*
X011585Y016823D02*
X011572Y016823D01*
X011902Y016506D02*
X007660Y016506D01*
X007660Y016347D02*
X012060Y016347D01*
X012219Y016189D02*
X007660Y016189D01*
X007660Y016030D02*
X012377Y016030D01*
X012589Y015872D02*
X007660Y015872D01*
X007660Y015396D02*
X010443Y015396D01*
X010285Y015238D02*
X007660Y015238D01*
X007660Y015079D02*
X010126Y015079D01*
X009968Y014921D02*
X007660Y014921D01*
X007777Y014762D02*
X009809Y014762D01*
X009453Y014604D02*
X007935Y014604D01*
X008094Y014445D02*
X009294Y014445D01*
X009220Y014287D02*
X008252Y014287D01*
X008411Y014128D02*
X009220Y014128D01*
X009240Y013970D02*
X008569Y013970D01*
X008480Y012702D02*
X007210Y012702D01*
X007150Y012702D02*
X005050Y012702D01*
X005050Y012860D02*
X006290Y012860D01*
X006376Y013019D02*
X005034Y013019D01*
X004992Y013177D02*
X006574Y013177D01*
X007150Y013177D02*
X007210Y013177D01*
X007210Y013019D02*
X007150Y013019D01*
X007150Y012860D02*
X007210Y012860D01*
X007150Y012650D02*
X006260Y012650D01*
X006260Y012637D01*
X006274Y012551D01*
X006300Y012469D01*
X006340Y012392D01*
X006390Y012322D01*
X006452Y012260D01*
X006522Y012210D01*
X006599Y012170D01*
X006681Y012144D01*
X006767Y012130D01*
X007150Y012130D01*
X007150Y012650D01*
X007150Y012543D02*
X007210Y012543D01*
X007210Y012385D02*
X007150Y012385D01*
X007150Y012226D02*
X007210Y012226D01*
X006499Y012226D02*
X005003Y012226D01*
X005046Y012385D02*
X006345Y012385D01*
X006276Y012543D02*
X005050Y012543D01*
X002509Y014762D02*
X000660Y014762D01*
X000660Y014604D02*
X002022Y014604D01*
X001747Y014445D02*
X000660Y014445D01*
X000660Y014287D02*
X001538Y014287D01*
X001380Y014128D02*
X000660Y014128D01*
X000660Y013970D02*
X001227Y013970D01*
X001135Y013811D02*
X000660Y013811D01*
X000660Y013653D02*
X001044Y013653D01*
X000953Y013494D02*
X000660Y013494D01*
X000660Y013336D02*
X000911Y013336D01*
X000868Y013177D02*
X000660Y013177D01*
X000660Y013019D02*
X000826Y013019D01*
X000810Y012860D02*
X000660Y012860D01*
X000660Y012702D02*
X000810Y012702D01*
X000810Y012543D02*
X000660Y012543D01*
X000660Y012385D02*
X000814Y012385D01*
X000857Y012226D02*
X000660Y012226D01*
X000660Y012068D02*
X000899Y012068D01*
X000942Y011909D02*
X000660Y011909D01*
X000660Y011751D02*
X001019Y011751D01*
X001110Y011592D02*
X000660Y011592D01*
X000660Y011434D02*
X001202Y011434D01*
X001337Y011275D02*
X000660Y011275D01*
X000660Y011117D02*
X001495Y011117D01*
X001673Y010958D02*
X000660Y010958D01*
X000660Y010800D02*
X001947Y010800D01*
X002349Y010641D02*
X000660Y010641D01*
X003751Y007154D02*
X010260Y007154D01*
X011500Y006203D02*
X004787Y006203D01*
X004696Y006362D02*
X011659Y006362D01*
X011817Y006520D02*
X004588Y006520D01*
X004430Y006679D02*
X011976Y006679D01*
X012134Y006837D02*
X004271Y006837D01*
X004025Y006996D02*
X012293Y006996D01*
X012723Y006520D02*
X013067Y006520D01*
X012909Y006362D02*
X012564Y006362D01*
X012406Y006203D02*
X012750Y006203D01*
X012592Y006045D02*
X012247Y006045D01*
X012089Y005886D02*
X012433Y005886D01*
X012360Y005728D02*
X012000Y005728D01*
X012000Y005569D02*
X012360Y005569D01*
X012278Y005411D02*
X012082Y005411D01*
X012140Y005252D02*
X012220Y005252D01*
X012220Y005094D02*
X012140Y005094D01*
X012076Y004935D02*
X012284Y004935D01*
X012452Y004777D02*
X011908Y004777D01*
X011452Y004777D02*
X009927Y004777D01*
X009433Y004777D02*
X008762Y004777D01*
X008604Y004935D02*
X009274Y004935D01*
X009220Y005094D02*
X008445Y005094D01*
X008287Y005252D02*
X009220Y005252D01*
X009260Y005411D02*
X008128Y005411D01*
X007970Y005569D02*
X009418Y005569D01*
X009942Y005569D02*
X011360Y005569D01*
X011360Y005728D02*
X007718Y005728D01*
X006642Y005728D02*
X004978Y005728D01*
X004936Y005886D02*
X011360Y005886D01*
X011381Y006045D02*
X004879Y006045D01*
X005021Y005569D02*
X006393Y005569D01*
X006289Y005411D02*
X005050Y005411D01*
X005050Y005252D02*
X006240Y005252D01*
X006240Y005094D02*
X005050Y005094D01*
X005050Y004935D02*
X006295Y004935D01*
X006407Y004777D02*
X005017Y004777D01*
X004974Y004618D02*
X006677Y004618D01*
X007722Y004460D02*
X004932Y004460D01*
X004870Y004301D02*
X007880Y004301D01*
X008039Y004143D02*
X004779Y004143D01*
X004687Y003984D02*
X008197Y003984D01*
X008356Y003826D02*
X004574Y003826D01*
X002102Y002716D02*
X014478Y002716D01*
X015082Y002875D02*
X016863Y002875D01*
X016740Y003033D02*
X015163Y003033D01*
X015185Y003192D02*
X016740Y003192D01*
X016740Y003350D02*
X015156Y003350D01*
X015066Y003509D02*
X016886Y003509D01*
X018098Y004777D02*
X015000Y004777D01*
X015076Y004935D02*
X018256Y004935D01*
X018415Y005094D02*
X015140Y005094D01*
X015140Y005252D02*
X018573Y005252D01*
X018732Y005411D02*
X015082Y005411D01*
X014942Y005569D02*
X018890Y005569D01*
X019049Y005728D02*
X015680Y005728D01*
X015839Y005886D02*
X019207Y005886D01*
X019366Y006045D02*
X015997Y006045D01*
X016156Y006203D02*
X019524Y006203D01*
X019717Y006362D02*
X016314Y006362D01*
X015884Y006837D02*
X015540Y006837D01*
X015698Y006996D02*
X016043Y006996D01*
X016201Y007154D02*
X015857Y007154D01*
X015978Y007313D02*
X016360Y007313D01*
X016546Y007471D02*
X016000Y007471D01*
X016000Y007630D02*
X016979Y007630D01*
X017381Y007630D02*
X022659Y007630D01*
X022516Y006837D02*
X017488Y006837D01*
X016872Y006837D02*
X016790Y006837D01*
X015726Y006679D02*
X015381Y006679D01*
X015223Y006520D02*
X015567Y006520D01*
X015409Y006362D02*
X015064Y006362D01*
X014634Y006837D02*
X014540Y006837D01*
X014698Y006996D02*
X014793Y006996D01*
X014857Y007154D02*
X014951Y007154D01*
X014978Y007313D02*
X015110Y007313D01*
X015000Y007471D02*
X015268Y007471D01*
X015360Y007630D02*
X015000Y007630D01*
X015000Y007788D02*
X015360Y007788D01*
X015360Y007947D02*
X015081Y007947D01*
X015140Y008105D02*
X015360Y008105D01*
X015360Y008264D02*
X015140Y008264D01*
X015078Y008422D02*
X015360Y008422D01*
X015360Y008581D02*
X014915Y008581D01*
X015360Y008739D02*
X014390Y008739D01*
X014445Y008581D02*
X013915Y008581D01*
X013970Y008739D02*
X013000Y008739D01*
X013000Y008581D02*
X013445Y008581D01*
X013282Y008422D02*
X013078Y008422D01*
X013140Y008264D02*
X013220Y008264D01*
X013220Y008105D02*
X013140Y008105D01*
X013081Y007947D02*
X013279Y007947D01*
X013335Y007788D02*
X012936Y007788D01*
X013765Y007313D02*
X014110Y007313D01*
X014268Y007471D02*
X013924Y007471D01*
X014000Y007630D02*
X014360Y007630D01*
X014360Y007788D02*
X014000Y007788D01*
X014081Y007947D02*
X014279Y007947D01*
X014220Y008105D02*
X014140Y008105D01*
X014140Y008264D02*
X014220Y008264D01*
X014282Y008422D02*
X014078Y008422D01*
X014548Y008898D02*
X015312Y008898D01*
X015220Y009056D02*
X014640Y009056D01*
X014640Y009215D02*
X015220Y009215D01*
X015222Y009373D02*
X014638Y009373D01*
X014479Y009532D02*
X015381Y009532D01*
X015979Y009532D02*
X016881Y009532D01*
X017479Y009532D02*
X017650Y009532D01*
X017638Y009373D02*
X017808Y009373D01*
X017967Y009215D02*
X017640Y009215D01*
X017640Y009056D02*
X018125Y009056D01*
X018284Y008898D02*
X017548Y008898D01*
X017390Y008739D02*
X018442Y008739D01*
X018601Y008581D02*
X016000Y008581D01*
X016000Y008739D02*
X016970Y008739D01*
X016000Y008422D02*
X018759Y008422D01*
X018918Y008264D02*
X016000Y008264D01*
X016000Y008105D02*
X019076Y008105D01*
X019235Y007947D02*
X016000Y007947D01*
X016000Y007788D02*
X019393Y007788D01*
X021281Y009532D02*
X022524Y009532D01*
X022106Y011117D02*
X028754Y011117D01*
X028783Y011087D02*
X028587Y011283D01*
X028480Y011541D01*
X028480Y011819D01*
X028587Y012077D01*
X028783Y012273D01*
X029041Y012380D01*
X029319Y012380D01*
X029577Y012273D01*
X029773Y012077D01*
X029880Y011819D01*
X029880Y011541D01*
X029773Y011283D01*
X029577Y011087D01*
X029319Y010980D01*
X029041Y010980D01*
X028783Y011087D01*
X028595Y011275D02*
X022265Y011275D01*
X022336Y011434D02*
X028524Y011434D01*
X028480Y011592D02*
X022380Y011592D01*
X022380Y011751D02*
X028480Y011751D01*
X028517Y011909D02*
X022343Y011909D01*
X022277Y012068D02*
X028583Y012068D01*
X028736Y012226D02*
X022124Y012226D01*
X020064Y015872D02*
X030080Y015872D01*
X030080Y016030D02*
X020148Y016030D01*
X020170Y016189D02*
X030080Y016189D01*
X030080Y016347D02*
X020141Y016347D01*
X020047Y016506D02*
X030080Y016506D01*
X030148Y016664D02*
X019792Y016664D01*
X019568Y016664D02*
X018792Y016664D01*
X018568Y016664D02*
X017792Y016664D01*
X017777Y016670D02*
X017583Y016670D01*
X017402Y016595D01*
X017265Y016458D01*
X017190Y016277D01*
X017190Y016083D01*
X017265Y015902D01*
X017402Y015765D01*
X017583Y015690D01*
X017777Y015690D01*
X017958Y015765D01*
X018095Y015902D01*
X018170Y016083D01*
X018170Y016277D01*
X018095Y016458D01*
X017958Y016595D01*
X017777Y016670D01*
X017568Y016664D02*
X016000Y016664D01*
X016047Y016506D02*
X016341Y016506D01*
X016322Y016486D02*
X016278Y016426D01*
X016244Y016360D01*
X016222Y016290D01*
X016210Y016217D01*
X016210Y016195D01*
X016665Y016195D01*
X016665Y016650D01*
X016643Y016650D01*
X016570Y016638D01*
X016500Y016616D01*
X016434Y016582D01*
X016374Y016538D01*
X016322Y016486D01*
X016240Y016347D02*
X016141Y016347D01*
X016170Y016189D02*
X016665Y016189D01*
X016665Y016195D02*
X016665Y016165D01*
X016695Y016165D01*
X016695Y016195D01*
X017150Y016195D01*
X017150Y016217D01*
X017138Y016290D01*
X017116Y016360D01*
X017082Y016426D01*
X017038Y016486D01*
X016986Y016538D01*
X016926Y016582D01*
X016860Y016616D01*
X016790Y016638D01*
X016717Y016650D01*
X016695Y016650D01*
X016695Y016195D01*
X016665Y016195D01*
X016665Y016165D02*
X016210Y016165D01*
X016210Y016143D01*
X016222Y016070D01*
X016244Y016000D01*
X016278Y015934D01*
X016322Y015874D01*
X016374Y015822D01*
X016434Y015778D01*
X016500Y015744D01*
X016570Y015722D01*
X016643Y015710D01*
X016665Y015710D01*
X016665Y016165D01*
X016695Y016165D02*
X016695Y015710D01*
X016717Y015710D01*
X016790Y015722D01*
X016860Y015744D01*
X016926Y015778D01*
X016986Y015822D01*
X017038Y015874D01*
X017082Y015934D01*
X017116Y016000D01*
X017138Y016070D01*
X017150Y016143D01*
X017150Y016165D01*
X016695Y016165D01*
X016695Y016189D02*
X017190Y016189D01*
X017212Y016030D02*
X017125Y016030D01*
X017036Y015872D02*
X017296Y015872D01*
X017527Y015713D02*
X016736Y015713D01*
X016695Y015713D02*
X016665Y015713D01*
X016624Y015713D02*
X016000Y015713D01*
X015974Y015555D02*
X018360Y015555D01*
X018360Y015713D02*
X017833Y015713D01*
X018064Y015872D02*
X018296Y015872D01*
X018212Y016030D02*
X018148Y016030D01*
X018170Y016189D02*
X018190Y016189D01*
X018219Y016347D02*
X018141Y016347D01*
X018047Y016506D02*
X018313Y016506D01*
X017313Y016506D02*
X017019Y016506D01*
X017120Y016347D02*
X017219Y016347D01*
X016695Y016347D02*
X016665Y016347D01*
X016665Y016506D02*
X016695Y016506D01*
X016665Y016030D02*
X016695Y016030D01*
X016695Y015872D02*
X016665Y015872D01*
X016324Y015872D02*
X016064Y015872D01*
X016148Y016030D02*
X016235Y016030D01*
X015849Y015396D02*
X018360Y015396D01*
X018285Y015238D02*
X015690Y015238D01*
X015532Y015079D02*
X018126Y015079D01*
X017968Y014921D02*
X015373Y014921D01*
X015215Y014762D02*
X017809Y014762D01*
X017651Y014604D02*
X015056Y014604D01*
X014992Y014445D02*
X014898Y014445D01*
X015390Y012543D02*
X009996Y012543D01*
X010154Y012385D02*
X015523Y012385D01*
X015681Y012226D02*
X010313Y012226D01*
X010471Y012068D02*
X015840Y012068D01*
X013881Y009532D02*
X012979Y009532D01*
X013497Y006045D02*
X013592Y006045D01*
X013433Y005886D02*
X013339Y005886D01*
X013360Y005728D02*
X013180Y005728D01*
X013022Y005569D02*
X013360Y005569D01*
X013278Y005411D02*
X013082Y005411D01*
X013140Y005252D02*
X013220Y005252D01*
X013220Y005094D02*
X013140Y005094D01*
X013076Y004935D02*
X013284Y004935D01*
X013452Y004777D02*
X012908Y004777D01*
X013908Y004777D02*
X014360Y004777D01*
X014284Y004935D02*
X014076Y004935D01*
X014140Y005094D02*
X014220Y005094D01*
X014220Y005252D02*
X014140Y005252D01*
X014082Y005411D02*
X014278Y005411D01*
X014418Y005569D02*
X014022Y005569D01*
X022098Y005252D02*
X028762Y005252D01*
X028604Y005094D02*
X022256Y005094D01*
X022332Y004935D02*
X028528Y004935D01*
X028480Y004777D02*
X022380Y004777D01*
X022380Y004618D02*
X028480Y004618D01*
X028514Y004460D02*
X022346Y004460D01*
X022281Y004301D02*
X028579Y004301D01*
X028728Y004143D02*
X022132Y004143D01*
X023844Y006837D02*
X030016Y006837D01*
X031160Y009849D02*
X033070Y009849D01*
X033070Y010007D02*
X031160Y010007D01*
X031160Y010166D02*
X033070Y010166D01*
X033070Y010324D02*
X031160Y010324D01*
X031160Y010483D02*
X033070Y010483D01*
X033070Y010641D02*
X031160Y010641D01*
X031160Y010800D02*
X033070Y010800D01*
X033070Y010958D02*
X031160Y010958D01*
X031160Y011117D02*
X033070Y011117D01*
X033070Y011275D02*
X031160Y011275D01*
X031160Y011434D02*
X033070Y011434D01*
X033070Y011592D02*
X031160Y011592D01*
X031160Y011751D02*
X033070Y011751D01*
X033070Y011909D02*
X031160Y011909D01*
X031160Y012068D02*
X033070Y012068D01*
X033070Y012226D02*
X031160Y012226D01*
X031160Y012385D02*
X033070Y012385D01*
X033070Y012543D02*
X031160Y012543D01*
X031160Y012702D02*
X033070Y012702D01*
X033070Y012860D02*
X031160Y012860D01*
X031160Y013019D02*
X033070Y013019D01*
X033070Y013177D02*
X031160Y013177D01*
X031160Y013336D02*
X033070Y013336D01*
X033070Y013494D02*
X031160Y013494D01*
X031160Y013653D02*
X033070Y013653D01*
X033070Y013811D02*
X031160Y013811D01*
X031160Y013970D02*
X033070Y013970D01*
X033070Y014128D02*
X031160Y014128D01*
X031160Y014287D02*
X033070Y014287D01*
X033070Y014445D02*
X031160Y014445D01*
X031160Y014604D02*
X033070Y014604D01*
X033070Y014762D02*
X031160Y014762D01*
X031160Y014921D02*
X033070Y014921D01*
X033070Y015079D02*
X031160Y015079D01*
X031160Y015238D02*
X033070Y015238D01*
X033070Y015396D02*
X031160Y015396D01*
X031204Y015555D02*
X033070Y015555D01*
X033070Y015713D02*
X031280Y015713D01*
X031280Y015872D02*
X033070Y015872D01*
X033070Y016030D02*
X031280Y016030D01*
X031280Y016189D02*
X033070Y016189D01*
X033070Y016347D02*
X031280Y016347D01*
X031280Y016506D02*
X033070Y016506D01*
X033070Y016664D02*
X031212Y016664D01*
X030957Y016981D02*
X033070Y016981D01*
X033070Y016823D02*
X020015Y016823D01*
X019910Y017615D02*
X030112Y017615D01*
X030173Y017774D02*
X019966Y017774D01*
X022470Y019517D02*
X031564Y019517D01*
X031406Y019359D02*
X031039Y019359D01*
X031192Y019200D02*
X031247Y019200D01*
X030868Y019676D02*
X031723Y019676D01*
X031881Y019834D02*
X031116Y019834D01*
X031445Y019993D02*
X032040Y019993D01*
X032110Y020151D02*
X031604Y020151D01*
X031762Y020310D02*
X032110Y020310D01*
X032110Y020468D02*
X031921Y020468D01*
X032000Y020627D02*
X032110Y020627D01*
X032110Y020785D02*
X032000Y020785D01*
X032000Y020944D02*
X032110Y020944D01*
X032110Y021102D02*
X032000Y021102D01*
X032000Y021261D02*
X032110Y021261D01*
X032110Y021419D02*
X032000Y021419D01*
X032000Y021578D02*
X032110Y021578D01*
X032110Y021736D02*
X032000Y021736D01*
X032000Y021895D02*
X032110Y021895D01*
X032110Y022053D02*
X032000Y022053D01*
X032000Y022212D02*
X032110Y022212D01*
X032110Y022370D02*
X032000Y022370D01*
X032000Y022529D02*
X032110Y022529D01*
X032110Y022687D02*
X032000Y022687D01*
X032000Y022846D02*
X032110Y022846D01*
X032110Y023004D02*
X032000Y023004D01*
X032000Y023163D02*
X032110Y023163D01*
X032110Y023321D02*
X032000Y023321D01*
X032000Y023480D02*
X032110Y023480D01*
X032110Y023638D02*
X032000Y023638D01*
X032000Y023797D02*
X032110Y023797D01*
X032110Y023955D02*
X032000Y023955D01*
X032000Y024114D02*
X032110Y024114D01*
X032110Y024272D02*
X032000Y024272D01*
X032000Y024431D02*
X032110Y024431D01*
X032110Y024589D02*
X032000Y024589D01*
X032000Y024748D02*
X032110Y024748D01*
X032110Y024906D02*
X032000Y024906D01*
X032000Y025065D02*
X032110Y025065D01*
X032110Y025223D02*
X032000Y025223D01*
X032000Y025382D02*
X032110Y025382D01*
X032110Y025540D02*
X032000Y025540D01*
X032000Y025699D02*
X032110Y025699D01*
X032110Y025857D02*
X032000Y025857D01*
X032000Y026016D02*
X032110Y026016D01*
X032110Y026174D02*
X032000Y026174D01*
X032000Y026333D02*
X032110Y026333D01*
X032110Y026491D02*
X032000Y026491D01*
X031913Y026650D02*
X032110Y026650D01*
X032099Y026808D02*
X031755Y026808D01*
X031596Y026967D02*
X031941Y026967D01*
X031782Y027125D02*
X031438Y027125D01*
X031279Y027284D02*
X031624Y027284D01*
X031465Y027442D02*
X031121Y027442D01*
X030962Y027601D02*
X031307Y027601D01*
X031148Y027759D02*
X030804Y027759D01*
X030645Y027918D02*
X030990Y027918D01*
X030831Y028076D02*
X030487Y028076D01*
X030328Y028235D02*
X030673Y028235D01*
X030514Y028393D02*
X030170Y028393D01*
X030011Y028552D02*
X030356Y028552D01*
X030197Y028710D02*
X029853Y028710D01*
X029694Y028869D02*
X030039Y028869D01*
X029880Y029027D02*
X029536Y029027D01*
X029377Y029186D02*
X029722Y029186D01*
X029563Y029344D02*
X029219Y029344D01*
X029060Y029503D02*
X029405Y029503D01*
X029246Y029661D02*
X028902Y029661D01*
X028743Y029820D02*
X029088Y029820D01*
X028929Y029978D02*
X028585Y029978D01*
X028426Y030137D02*
X028771Y030137D01*
X028612Y030295D02*
X017248Y030295D01*
X017184Y030137D02*
X017089Y030137D01*
X017025Y029978D02*
X016931Y029978D01*
X016867Y029820D02*
X016772Y029820D01*
X016708Y029661D02*
X016614Y029661D01*
X016550Y029503D02*
X016455Y029503D01*
X016391Y029344D02*
X016297Y029344D01*
X016233Y029186D02*
X016138Y029186D01*
X016074Y029027D02*
X015980Y029027D01*
X015916Y028869D02*
X015821Y028869D01*
X015757Y028710D02*
X015663Y028710D01*
X015599Y028552D02*
X015504Y028552D01*
X015440Y028393D02*
X015346Y028393D01*
X015282Y028235D02*
X015187Y028235D01*
X015123Y028076D02*
X015029Y028076D01*
X014965Y027918D02*
X014870Y027918D01*
X014599Y028552D02*
X014001Y028552D01*
X013860Y028744D02*
X013926Y028778D01*
X013986Y028822D01*
X014038Y028874D01*
X014082Y028934D01*
X014116Y029000D01*
X014138Y029070D01*
X014150Y029143D01*
X014150Y029165D01*
X013695Y029165D01*
X013695Y029195D01*
X014150Y029195D01*
X014150Y029217D01*
X014138Y029290D01*
X014116Y029360D01*
X014082Y029426D01*
X014038Y029486D01*
X013986Y029538D01*
X013926Y029582D01*
X013860Y029616D01*
X013790Y029638D01*
X013717Y029650D01*
X013695Y029650D01*
X013695Y029195D01*
X013665Y029195D01*
X013665Y029650D01*
X013643Y029650D01*
X013570Y029638D01*
X013500Y029616D01*
X013434Y029582D01*
X013374Y029538D01*
X013322Y029486D01*
X013278Y029426D01*
X013244Y029360D01*
X013222Y029290D01*
X013210Y029217D01*
X013210Y029195D01*
X013665Y029195D01*
X013665Y029165D01*
X013695Y029165D01*
X013695Y028710D01*
X013717Y028710D01*
X013790Y028722D01*
X013860Y028744D01*
X013717Y028710D02*
X014757Y028710D01*
X014916Y028869D02*
X014033Y028869D01*
X014124Y029027D02*
X015074Y029027D01*
X015233Y029186D02*
X013695Y029186D01*
X013665Y029186D02*
X012127Y029186D01*
X011969Y029344D02*
X013239Y029344D01*
X013210Y029165D02*
X013210Y029143D01*
X013222Y029070D01*
X013244Y029000D01*
X013278Y028934D01*
X013322Y028874D01*
X013374Y028822D01*
X013434Y028778D01*
X013500Y028744D01*
X013570Y028722D01*
X013643Y028710D01*
X013665Y028710D01*
X013665Y029165D01*
X013210Y029165D01*
X013236Y029027D02*
X012286Y029027D01*
X012444Y028869D02*
X013327Y028869D01*
X013359Y028552D02*
X012761Y028552D01*
X012603Y028710D02*
X013643Y028710D01*
X013665Y028710D02*
X013695Y028710D01*
X013695Y028869D02*
X013665Y028869D01*
X013665Y029027D02*
X013695Y029027D01*
X013695Y029344D02*
X013665Y029344D01*
X013665Y029503D02*
X013695Y029503D01*
X014022Y029503D02*
X015550Y029503D01*
X015708Y029661D02*
X011448Y029661D01*
X011607Y029503D02*
X013338Y029503D01*
X014121Y029344D02*
X015391Y029344D01*
X016346Y028393D02*
X019238Y028393D01*
X019265Y028458D02*
X019190Y028277D01*
X019190Y028083D01*
X019265Y027902D01*
X019402Y027765D01*
X019583Y027690D01*
X019777Y027690D01*
X019958Y027765D01*
X020095Y027902D01*
X020170Y028083D01*
X020170Y028277D01*
X020095Y028458D01*
X019958Y028595D01*
X019777Y028670D01*
X019583Y028670D01*
X019402Y028595D01*
X019265Y028458D01*
X019359Y028552D02*
X016504Y028552D01*
X016663Y028710D02*
X019534Y028710D01*
X019298Y028869D02*
X016821Y028869D01*
X016980Y029027D02*
X019213Y029027D01*
X019190Y029186D02*
X017138Y029186D01*
X017297Y029344D02*
X019218Y029344D01*
X019310Y029503D02*
X017455Y029503D01*
X016187Y028235D02*
X019190Y028235D01*
X019193Y028076D02*
X016029Y028076D01*
X015870Y027918D02*
X019258Y027918D01*
X019416Y027759D02*
X015712Y027759D01*
X015553Y027601D02*
X019415Y027601D01*
X019945Y027601D02*
X021807Y027601D01*
X021648Y027759D02*
X019944Y027759D01*
X020102Y027918D02*
X021490Y027918D01*
X021331Y028076D02*
X020167Y028076D01*
X020170Y028235D02*
X021173Y028235D01*
X021014Y028393D02*
X020122Y028393D01*
X020001Y028552D02*
X020856Y028552D01*
X020697Y028710D02*
X019826Y028710D01*
X020050Y029503D02*
X028155Y029503D01*
X028313Y029344D02*
X020969Y029344D01*
X021127Y029186D02*
X028472Y029186D01*
X028630Y029027D02*
X021286Y029027D01*
X021444Y028869D02*
X028789Y028869D01*
X028947Y028710D02*
X021603Y028710D01*
X021761Y028552D02*
X029106Y028552D01*
X029264Y028393D02*
X021920Y028393D01*
X022078Y028235D02*
X029423Y028235D01*
X029581Y028076D02*
X022237Y028076D01*
X022395Y027918D02*
X029740Y027918D01*
X029898Y027759D02*
X022554Y027759D01*
X022712Y027601D02*
X030057Y027601D01*
X030215Y027442D02*
X022871Y027442D01*
X023029Y027284D02*
X030374Y027284D01*
X030532Y027125D02*
X023188Y027125D01*
X023346Y026967D02*
X030691Y026967D01*
X030849Y026808D02*
X023505Y026808D01*
X023663Y026650D02*
X031008Y026650D01*
X031166Y026491D02*
X023822Y026491D01*
X023980Y026333D02*
X030338Y026333D01*
X030180Y026174D02*
X024139Y026174D01*
X023709Y025699D02*
X019798Y025699D01*
X019777Y025690D02*
X019958Y025765D01*
X020095Y025902D01*
X020170Y026083D01*
X020170Y026277D01*
X020095Y026458D01*
X019958Y026595D01*
X019777Y026670D01*
X019583Y026670D01*
X019402Y026595D01*
X019265Y026458D01*
X019190Y026277D01*
X019190Y026083D01*
X019265Y025902D01*
X019402Y025765D01*
X019583Y025690D01*
X019777Y025690D01*
X019777Y025670D02*
X019583Y025670D01*
X019402Y025595D01*
X019265Y025458D01*
X019190Y025277D01*
X019190Y025083D01*
X019265Y024902D01*
X019402Y024765D01*
X019583Y024690D01*
X019777Y024690D01*
X019958Y024765D01*
X020095Y024902D01*
X020170Y025083D01*
X020170Y025277D01*
X020095Y025458D01*
X019958Y025595D01*
X019777Y025670D01*
X019562Y025699D02*
X017651Y025699D01*
X017810Y025857D02*
X019310Y025857D01*
X019218Y026016D02*
X017968Y026016D01*
X018127Y026174D02*
X019190Y026174D01*
X019213Y026333D02*
X018285Y026333D01*
X018444Y026491D02*
X019298Y026491D01*
X019533Y026650D02*
X018602Y026650D01*
X018761Y026808D02*
X019359Y026808D01*
X019827Y026650D02*
X022758Y026650D01*
X022599Y026808D02*
X020001Y026808D01*
X020122Y026967D02*
X022441Y026967D01*
X022282Y027125D02*
X020170Y027125D01*
X020167Y027284D02*
X022124Y027284D01*
X021965Y027442D02*
X020102Y027442D01*
X020062Y026491D02*
X022916Y026491D01*
X023075Y026333D02*
X020147Y026333D01*
X020170Y026174D02*
X023233Y026174D01*
X023392Y026016D02*
X020142Y026016D01*
X020050Y025857D02*
X023550Y025857D01*
X023888Y025540D02*
X020013Y025540D01*
X020127Y025382D02*
X030276Y025382D01*
X030457Y024985D02*
X030376Y024944D01*
X030302Y024890D01*
X030238Y024826D01*
X030184Y024752D01*
X030142Y024671D01*
X030114Y024584D01*
X030100Y024494D01*
X030100Y024486D01*
X030642Y024486D01*
X030642Y025028D01*
X030634Y025028D01*
X030544Y025014D01*
X030457Y024985D01*
X030324Y024906D02*
X020097Y024906D01*
X020163Y025065D02*
X031360Y025065D01*
X031360Y025223D02*
X020170Y025223D01*
X019916Y024748D02*
X030182Y024748D01*
X030116Y024589D02*
X019964Y024589D01*
X019958Y024595D02*
X019777Y024670D01*
X019583Y024670D01*
X019402Y024595D01*
X019265Y024458D01*
X019190Y024277D01*
X019190Y024083D01*
X019265Y023902D01*
X019402Y023765D01*
X019583Y023690D01*
X019777Y023690D01*
X019958Y023765D01*
X020095Y023902D01*
X020170Y024083D01*
X020170Y024277D01*
X020095Y024458D01*
X019958Y024595D01*
X020107Y024431D02*
X030642Y024431D01*
X030642Y024410D02*
X030100Y024410D01*
X030100Y024402D01*
X030114Y024312D01*
X030142Y024225D01*
X030184Y024144D01*
X030238Y024070D01*
X030302Y024006D01*
X030376Y023952D01*
X030457Y023910D01*
X030544Y023882D01*
X030634Y023868D01*
X030642Y023868D01*
X030642Y024410D01*
X030642Y024486D01*
X030718Y024486D01*
X030718Y025028D01*
X030726Y025028D01*
X030816Y025014D01*
X030903Y024985D01*
X030984Y024944D01*
X031058Y024890D01*
X031122Y024826D01*
X031176Y024752D01*
X031218Y024671D01*
X031246Y024584D01*
X031260Y024494D01*
X031260Y024486D01*
X030718Y024486D01*
X030718Y024410D01*
X031260Y024410D01*
X031260Y024402D01*
X031246Y024312D01*
X031218Y024225D01*
X031176Y024144D01*
X031122Y024070D01*
X031058Y024006D01*
X030984Y023952D01*
X030903Y023910D01*
X030816Y023882D01*
X030726Y023868D01*
X030718Y023868D01*
X030718Y024410D01*
X030642Y024410D01*
X030718Y024431D02*
X031360Y024431D01*
X031360Y024589D02*
X031244Y024589D01*
X031178Y024748D02*
X031360Y024748D01*
X031360Y024906D02*
X031036Y024906D01*
X030718Y024906D02*
X030642Y024906D01*
X030642Y024748D02*
X030718Y024748D01*
X030718Y024589D02*
X030642Y024589D01*
X030642Y024272D02*
X030718Y024272D01*
X030718Y024114D02*
X030642Y024114D01*
X030642Y023955D02*
X030718Y023955D01*
X030988Y023955D02*
X031360Y023955D01*
X031360Y023797D02*
X019990Y023797D01*
X020117Y023955D02*
X030372Y023955D01*
X030206Y024114D02*
X020170Y024114D01*
X020170Y024272D02*
X030127Y024272D01*
X030484Y023638D02*
X019855Y023638D01*
X019777Y023670D02*
X019583Y023670D01*
X019402Y023595D01*
X019265Y023458D01*
X019190Y023277D01*
X019190Y023083D01*
X019265Y022902D01*
X019402Y022765D01*
X019583Y022690D01*
X019777Y022690D01*
X019958Y022765D01*
X020095Y022902D01*
X020170Y023083D01*
X020170Y023277D01*
X020095Y023458D01*
X019958Y023595D01*
X019777Y023670D01*
X019505Y023638D02*
X016000Y023638D01*
X016000Y023480D02*
X019287Y023480D01*
X019208Y023321D02*
X016000Y023321D01*
X016000Y023163D02*
X019190Y023163D01*
X019223Y023004D02*
X016000Y023004D01*
X016000Y022846D02*
X019321Y022846D01*
X020038Y022846D02*
X023893Y022846D01*
X024051Y023004D02*
X020137Y023004D01*
X020170Y023163D02*
X024210Y023163D01*
X024368Y023321D02*
X020152Y023321D01*
X020073Y023480D02*
X030241Y023480D01*
X030876Y023638D02*
X031360Y023638D01*
X031360Y023480D02*
X031119Y023480D01*
X031225Y023321D02*
X031360Y023321D01*
X031360Y023163D02*
X031280Y023163D01*
X031280Y023004D02*
X031360Y023004D01*
X031360Y022846D02*
X031236Y022846D01*
X031146Y022687D02*
X031360Y022687D01*
X031360Y022529D02*
X030941Y022529D01*
X031243Y022212D02*
X031360Y022212D01*
X031360Y022370D02*
X024323Y022370D01*
X024481Y022529D02*
X030419Y022529D01*
X030214Y022687D02*
X024640Y022687D01*
X024164Y022212D02*
X030117Y022212D01*
X031280Y022053D02*
X031360Y022053D01*
X031360Y021895D02*
X031280Y021895D01*
X031280Y021736D02*
X031360Y021736D01*
X031360Y021578D02*
X031280Y021578D01*
X031280Y021419D02*
X031360Y021419D01*
X031360Y021261D02*
X031280Y021261D01*
X031360Y021102D02*
X031173Y021102D01*
X031360Y020944D02*
X023896Y020944D01*
X019370Y023797D02*
X016000Y023797D01*
X016000Y023955D02*
X019243Y023955D01*
X019190Y024114D02*
X016066Y024114D01*
X016225Y024272D02*
X019190Y024272D01*
X019253Y024431D02*
X016383Y024431D01*
X016542Y024589D02*
X019396Y024589D01*
X019444Y024748D02*
X016700Y024748D01*
X016859Y024906D02*
X019263Y024906D01*
X019197Y025065D02*
X017017Y025065D01*
X017176Y025223D02*
X019190Y025223D01*
X019233Y025382D02*
X017334Y025382D01*
X017493Y025540D02*
X019347Y025540D01*
X018014Y026967D02*
X015000Y026967D01*
X015000Y026808D02*
X017855Y026808D01*
X017697Y026650D02*
X015000Y026650D01*
X015000Y026491D02*
X017538Y026491D01*
X017380Y026333D02*
X015000Y026333D01*
X015000Y026174D02*
X017221Y026174D01*
X017063Y026016D02*
X015000Y026016D01*
X015000Y025857D02*
X016904Y025857D01*
X016746Y025699D02*
X015000Y025699D01*
X014968Y025540D02*
X016587Y025540D01*
X016429Y025382D02*
X014834Y025382D01*
X014676Y025223D02*
X016270Y025223D01*
X016112Y025065D02*
X014517Y025065D01*
X014355Y024906D02*
X015953Y024906D01*
X015795Y024748D02*
X013916Y024748D01*
X013964Y024589D02*
X015636Y024589D01*
X015478Y024431D02*
X014107Y024431D01*
X014170Y024272D02*
X015372Y024272D01*
X015360Y024114D02*
X014170Y024114D01*
X014117Y023955D02*
X015360Y023955D01*
X015360Y023797D02*
X013990Y023797D01*
X013855Y023638D02*
X015360Y023638D01*
X015360Y023480D02*
X014073Y023480D01*
X014152Y023321D02*
X015360Y023321D01*
X015360Y023163D02*
X014170Y023163D01*
X014137Y023004D02*
X015360Y023004D01*
X015360Y022846D02*
X014038Y022846D01*
X013471Y021736D02*
X010500Y021736D01*
X010500Y021578D02*
X013385Y021578D01*
X013249Y021419D02*
X010500Y021419D01*
X010500Y021261D02*
X013190Y021261D01*
X013190Y021102D02*
X010500Y021102D01*
X010500Y020944D02*
X013248Y020944D01*
X012533Y021895D02*
X010418Y021895D01*
X010260Y022053D02*
X012354Y022053D01*
X012196Y022212D02*
X010101Y022212D01*
X009943Y022370D02*
X012037Y022370D01*
X011879Y022529D02*
X009784Y022529D01*
X009923Y022687D02*
X009626Y022687D01*
X009500Y022846D02*
X009765Y022846D01*
X009650Y023004D02*
X009500Y023004D01*
X009500Y023163D02*
X009650Y023163D01*
X009650Y023321D02*
X009500Y023321D01*
X009500Y023480D02*
X009730Y023480D01*
X009860Y023638D02*
X009500Y023638D01*
X009500Y023797D02*
X009860Y023797D01*
X009860Y023955D02*
X009500Y023955D01*
X009500Y024114D02*
X009860Y024114D01*
X009860Y024272D02*
X009488Y024272D01*
X009382Y024431D02*
X009860Y024431D01*
X009818Y024589D02*
X009224Y024589D01*
X009065Y024748D02*
X009660Y024748D01*
X009501Y024906D02*
X008907Y024906D01*
X008748Y025065D02*
X009343Y025065D01*
X009184Y025223D02*
X008590Y025223D01*
X008431Y025382D02*
X009026Y025382D01*
X008867Y025540D02*
X007970Y025540D01*
X008392Y026016D02*
X000660Y026016D01*
X000660Y026174D02*
X008233Y026174D01*
X008075Y026333D02*
X007983Y026333D01*
X007377Y026333D02*
X003955Y026333D01*
X003862Y026240D02*
X004120Y026498D01*
X004120Y026680D01*
X004120Y026862D01*
X003862Y027120D01*
X003680Y027120D01*
X003680Y026680D01*
X004120Y026680D01*
X003680Y026680D01*
X003680Y026680D01*
X003680Y026680D01*
X003680Y026240D01*
X003862Y026240D01*
X003680Y026240D02*
X003680Y026680D01*
X003680Y026680D01*
X003680Y026680D01*
X003240Y026680D01*
X003240Y026862D01*
X003498Y027120D01*
X003680Y027120D01*
X003680Y026680D01*
X003240Y026680D01*
X003240Y026498D01*
X003498Y026240D01*
X003680Y026240D01*
X003680Y026333D02*
X003680Y026333D01*
X003680Y026491D02*
X003680Y026491D01*
X003680Y026650D02*
X003680Y026650D01*
X003680Y026808D02*
X003680Y026808D01*
X003680Y026967D02*
X003680Y026967D01*
X004016Y026967D02*
X007316Y026967D01*
X007220Y026808D02*
X004120Y026808D01*
X004120Y026650D02*
X007220Y026650D01*
X007220Y026491D02*
X004113Y026491D01*
X003405Y026333D02*
X000660Y026333D01*
X000660Y026491D02*
X003247Y026491D01*
X003240Y026650D02*
X000660Y026650D01*
X000660Y026808D02*
X003240Y026808D01*
X003344Y026967D02*
X000660Y026967D01*
X000660Y027125D02*
X007475Y027125D01*
X007910Y027759D02*
X008648Y027759D01*
X009078Y028235D02*
X012173Y028235D01*
X012014Y028393D02*
X008920Y028393D01*
X009237Y028076D02*
X012331Y028076D01*
X012490Y027918D02*
X009395Y027918D01*
X009096Y028869D02*
X000660Y028869D01*
X000660Y029027D02*
X008880Y029027D01*
X008722Y029186D02*
X002177Y029186D01*
X001183Y029186D02*
X000660Y029186D01*
X000660Y029344D02*
X000946Y029344D01*
X000790Y029503D02*
X000660Y029503D01*
X000660Y029661D02*
X000698Y029661D01*
X000660Y025857D02*
X008550Y025857D01*
X008709Y025699D02*
X000660Y025699D01*
X000660Y025540D02*
X003418Y025540D01*
X003498Y025620D02*
X003240Y025362D01*
X003240Y025180D01*
X003680Y025180D01*
X004120Y025180D01*
X004120Y025362D01*
X003862Y025620D01*
X003680Y025620D01*
X003680Y025180D01*
X003680Y025180D01*
X003680Y025180D01*
X004120Y025180D01*
X004120Y024998D01*
X003862Y024740D01*
X003680Y024740D01*
X003680Y025180D01*
X003680Y025180D01*
X003680Y025180D01*
X003680Y025620D01*
X003498Y025620D01*
X003680Y025540D02*
X003680Y025540D01*
X003680Y025382D02*
X003680Y025382D01*
X003680Y025223D02*
X003680Y025223D01*
X003680Y025180D02*
X003240Y025180D01*
X003240Y024998D01*
X003498Y024740D01*
X003680Y024740D01*
X003680Y025180D01*
X003680Y025065D02*
X003680Y025065D01*
X003680Y024906D02*
X003680Y024906D01*
X003680Y024748D02*
X003680Y024748D01*
X003870Y024748D02*
X007462Y024748D01*
X007303Y024906D02*
X004028Y024906D01*
X004120Y025065D02*
X007220Y025065D01*
X007220Y025223D02*
X004120Y025223D01*
X004101Y025382D02*
X007231Y025382D01*
X007390Y025540D02*
X003942Y025540D01*
X003259Y025382D02*
X000660Y025382D01*
X000660Y025223D02*
X003240Y025223D01*
X003240Y025065D02*
X000660Y025065D01*
X000660Y024906D02*
X003332Y024906D01*
X003490Y024748D02*
X000660Y024748D01*
X000660Y024589D02*
X008318Y024589D01*
X008160Y024748D02*
X007898Y024748D01*
X008477Y024431D02*
X000660Y024431D01*
X000660Y024272D02*
X008635Y024272D01*
X009614Y025699D02*
X009912Y025699D01*
X009753Y025857D02*
X009456Y025857D01*
X009297Y026016D02*
X009650Y026016D01*
X009650Y026174D02*
X009139Y026174D01*
X008980Y026333D02*
X009650Y026333D01*
X009742Y026491D02*
X008822Y026491D01*
X007959Y028552D02*
X011856Y028552D01*
X011697Y028710D02*
X011460Y028710D01*
X011765Y026491D02*
X013298Y026491D01*
X013213Y026333D02*
X011980Y026333D01*
X012139Y026174D02*
X013190Y026174D01*
X013218Y026016D02*
X012297Y026016D01*
X012456Y025857D02*
X013310Y025857D01*
X013562Y025699D02*
X012614Y025699D01*
X012773Y025540D02*
X013347Y025540D01*
X013798Y025699D02*
X014246Y025699D01*
X014360Y025857D02*
X014050Y025857D01*
X014142Y026016D02*
X014360Y026016D01*
X014360Y026174D02*
X014170Y026174D01*
X014147Y026333D02*
X014360Y026333D01*
X014360Y026491D02*
X014062Y026491D01*
X014087Y025540D02*
X014013Y025540D01*
X015078Y027125D02*
X018172Y027125D01*
X018331Y027284D02*
X015236Y027284D01*
X015395Y027442D02*
X018489Y027442D01*
X011720Y022687D02*
X011437Y022687D01*
X010923Y022687D02*
X010437Y022687D01*
X010595Y022846D02*
X010765Y022846D01*
X010730Y023480D02*
X010630Y023480D01*
X010500Y023638D02*
X010889Y023638D01*
X007360Y023004D02*
X000660Y023004D01*
X000660Y022846D02*
X007360Y022846D01*
X007360Y022687D02*
X000660Y022687D01*
X000660Y022529D02*
X007360Y022529D01*
X007360Y022370D02*
X000660Y022370D01*
X000660Y022212D02*
X002321Y022212D01*
X001934Y022053D02*
X000660Y022053D01*
X000660Y021895D02*
X001660Y021895D01*
X001488Y021736D02*
X000660Y021736D01*
X000660Y021578D02*
X001329Y021578D01*
X001197Y021419D02*
X000660Y021419D01*
X000660Y021261D02*
X001106Y021261D01*
X001014Y021102D02*
X000660Y021102D01*
X000660Y020944D02*
X000940Y020944D01*
X000897Y020785D02*
X000660Y020785D01*
X000660Y020627D02*
X000855Y020627D01*
X000812Y020468D02*
X000660Y020468D01*
X000660Y020310D02*
X000810Y020310D01*
X000810Y020151D02*
X000660Y020151D01*
X000660Y019993D02*
X000810Y019993D01*
X000828Y019834D02*
X000660Y019834D01*
X000660Y019676D02*
X000870Y019676D01*
X000913Y019517D02*
X000660Y019517D01*
X000660Y019359D02*
X000956Y019359D01*
X001048Y019200D02*
X000660Y019200D01*
X000660Y019042D02*
X001139Y019042D01*
X001231Y018883D02*
X000660Y018883D01*
X000660Y018725D02*
X001387Y018725D01*
X001546Y018566D02*
X000660Y018566D01*
X000660Y018408D02*
X001760Y018408D01*
X002035Y018249D02*
X000660Y018249D01*
X000660Y018091D02*
X002537Y018091D01*
X003680Y023321D02*
X003680Y023321D01*
X003680Y023480D02*
X003680Y023480D01*
X003680Y023638D02*
X003680Y023638D01*
X003680Y023797D02*
X003680Y023797D01*
X003680Y023955D02*
X003680Y023955D01*
X003680Y024114D02*
X003680Y024114D01*
X003491Y024114D02*
X000660Y024114D01*
X000660Y023955D02*
X003333Y023955D01*
X003240Y023797D02*
X000660Y023797D01*
X000660Y023638D02*
X003240Y023638D01*
X003258Y023480D02*
X000660Y023480D01*
X011196Y014604D02*
X011196Y014604D01*
X011196Y014445D02*
X011196Y014445D01*
X011196Y014287D02*
X011196Y014287D01*
X011196Y014180D02*
X011196Y014180D01*
X011196Y014128D02*
X011196Y014128D01*
X011196Y013970D02*
X011196Y013970D01*
X011196Y013811D02*
X011196Y013811D01*
X014128Y016981D02*
X015360Y016981D01*
X015360Y017140D02*
X014170Y017140D01*
X014161Y017298D02*
X015360Y017298D01*
X015360Y017457D02*
X014096Y017457D01*
X013910Y017615D02*
X015360Y017615D01*
X015360Y017774D02*
X013966Y017774D01*
X014108Y017932D02*
X015360Y017932D01*
X015360Y018091D02*
X014170Y018091D01*
X014170Y018249D02*
X015360Y018249D01*
X015360Y018408D02*
X014116Y018408D01*
X013987Y018566D02*
X015360Y018566D01*
X015360Y018725D02*
X013861Y018725D01*
X014076Y018883D02*
X015360Y018883D01*
X015360Y019042D02*
X014153Y019042D01*
X014170Y019200D02*
X015360Y019200D01*
X015360Y019359D02*
X014136Y019359D01*
X014036Y019517D02*
X015360Y019517D01*
X029624Y012226D02*
X030200Y012226D01*
X030200Y012068D02*
X029777Y012068D01*
X029843Y011909D02*
X030200Y011909D01*
X030200Y011751D02*
X029880Y011751D01*
X029880Y011592D02*
X030200Y011592D01*
X030200Y011434D02*
X029836Y011434D01*
X029765Y011275D02*
X030200Y011275D01*
X030200Y011117D02*
X029606Y011117D01*
X031142Y017140D02*
X033070Y017140D01*
X033070Y017298D02*
X031227Y017298D01*
X031149Y020627D02*
X031174Y020627D01*
X031332Y020785D02*
X030949Y020785D01*
X031154Y024114D02*
X031360Y024114D01*
X031360Y024272D02*
X031233Y024272D01*
X031360Y025382D02*
X031084Y025382D01*
X031211Y025540D02*
X031360Y025540D01*
X031360Y025699D02*
X031277Y025699D01*
X031280Y025857D02*
X031360Y025857D01*
X031360Y026016D02*
X031251Y026016D01*
X031180Y026174D02*
X031360Y026174D01*
X031325Y026333D02*
X031022Y026333D01*
X030944Y028869D02*
X033070Y028869D01*
X033070Y029027D02*
X030786Y029027D01*
X032677Y029186D02*
X033070Y029186D01*
X033070Y029344D02*
X032914Y029344D01*
D22*
X030680Y016113D02*
X030680Y009180D01*
X023180Y009180D01*
X023180Y008180D02*
X019680Y008180D01*
X016680Y011180D01*
X012680Y011180D01*
X011680Y010180D01*
X011680Y009180D01*
X011680Y008180D01*
X011680Y010180D02*
X007180Y014680D01*
X007180Y020180D01*
X019930Y005930D02*
X018180Y004180D01*
X014680Y004180D01*
X008680Y004180D01*
X007680Y005180D01*
X007180Y005180D01*
X019930Y005930D02*
X031930Y005930D01*
X032180Y006180D01*
X032180Y007680D01*
X031680Y008180D01*
X030680Y008180D01*
M02*
