%
M48
M72
T01C0.0276
T02C0.0320
T03C0.0380
T04C0.0400
T05C0.0433
T06C0.0440
T07C0.0472
T08C0.1260
T09C0.3280
%
T01
X10680Y9180
X11680Y9180
X14680Y4180
X14680Y3180
X13164Y14180
X11196Y14180
T02
X12680Y13180
X14180Y13180
X15680Y13180
X17180Y13180
X17180Y9180
X15680Y9180
X14680Y8180
X13680Y8180
X12680Y8180
X12680Y9180
X11680Y8180
X9680Y9180
X9680Y10180
X9680Y14180
X10180Y17180
X11180Y17180
X11180Y20180
X10180Y20180
X10180Y23180
X11180Y23180
X11180Y26180
X10180Y26180
X7680Y26680
X7680Y25180
X7680Y23680
X3680Y23680
X3680Y25180
X3680Y26680
X3680Y28180
X3680Y29680
X7680Y29680
X7680Y28180
X10180Y29180
X11180Y29180
X14180Y9180
X17180Y7180
X14680Y5180
X13680Y5180
X12680Y5180
X11680Y5180
X9680Y5180
X17180Y3180
T03
X16680Y16180
X15680Y16180
X14680Y16180
X13680Y16180
X13680Y17180
X13680Y18180
X13680Y19180
X13680Y20180
X13680Y21180
X13680Y22180
X13680Y23180
X13680Y24180
X13680Y25180
X13680Y26180
X13680Y27180
X13680Y28180
X13680Y29180
X19680Y29180
X19680Y28180
X19680Y27180
X19680Y26180
X19680Y25180
X19680Y24180
X19680Y23180
X19680Y22180
X19680Y21180
X19680Y20180
X19680Y19180
X19680Y18180
X19680Y17180
X19680Y16180
X18680Y16180
X17680Y16180
T04
X23180Y9180
X23180Y8180
X23180Y7180
X30680Y7180
X30680Y8180
X30680Y9180
T05
X29180Y11680
X29180Y4680
X21680Y4680
X21680Y11680
T06
X7180Y12680
X7180Y5180
X7180Y20180
T07
X30680Y20247
X30680Y18869
X30680Y17491
X30680Y16113
X30680Y21692
X30680Y23070
X30680Y24448
X30680Y25826
T08
X1680Y1680
X1680Y30180
X32180Y30180
X32180Y1680
T09
X2930Y5180
X2930Y12680
X2930Y20180
M30
